<?xml version="1.0" encoding="utf-8"?>
<!-- Generator: Adobe Illustrator 16.0.3, SVG Export Plug-In . SVG Version: 6.00 Build 0)  -->
<!DOCTYPE svg PUBLIC "-//W3C//DTD SVG 1.1//EN" "http://www.w3.org/Graphics/SVG/1.1/DTD/svg11.dtd">
<svg version="1.1" id="Layer_1" xmlns="http://www.w3.org/2000/svg" xmlns:xlink="http://www.w3.org/1999/xlink" x="0px" y="0px"
	 width="976.405px" height="273.391px" viewBox="61.245 26.255 976.405 273.391"
	 enable-background="new 61.245 26.255 976.405 273.391" xml:space="preserve">
<g id="Layer_6">
	<g>
		<path fill="#00AEEF" d="M344.812,209.684c5.198,3.198,12.795,5.864,20.792,5.864c11.861,0,18.793-6.267,18.793-15.328
			c0-8.396-4.798-13.195-16.927-17.86c-14.662-5.196-23.727-12.795-23.727-25.457c0-13.994,11.597-24.392,29.058-24.392
			c9.195,0,15.859,2.133,19.858,4.397l-3.198,9.465c-2.934-1.602-8.931-4.268-17.062-4.268c-12.263,0-16.927,7.331-16.927,13.462
			c0,8.397,5.464,12.529,17.858,17.327c15.195,5.864,22.926,13.195,22.926,26.393c0,13.859-10.264,25.855-31.455,25.855
			c-8.664,0-18.126-2.532-22.926-5.729L344.812,209.684z"/>
		<path fill="#00AEEF" d="M487.831,184.359c-0.667-12.527-1.467-27.591-1.333-38.786h-0.399
			c-3.064,10.529-6.797,21.728-11.329,34.121l-15.86,43.584h-8.798l-14.527-42.782c-4.266-12.662-7.863-24.261-10.396-34.923h-0.267
			c-0.269,11.195-0.935,26.259-1.733,39.721l-2.399,38.52h-11.063l6.265-89.834h14.794l15.328,43.45
			c3.732,11.063,6.798,20.926,9.063,30.256h0.398c2.267-9.063,5.465-18.926,9.463-30.256l15.994-43.45h14.795l5.599,89.834h-11.329
			L487.831,184.359z"/>
		<path fill="#00AEEF" d="M532.484,195.555l-9.33,28.257h-11.996l30.522-89.834h13.995l30.654,89.834h-12.396l-9.597-28.257H532.484
			z M561.94,186.49l-8.797-25.855c-2-5.864-3.332-11.195-4.665-16.396h-0.267c-1.333,5.331-2.8,10.798-4.532,16.263l-8.797,25.988
			H561.94z"/>
		<path fill="#00AEEF" d="M599.53,135.177c5.864-1.199,14.264-1.866,22.261-1.866c12.396,0,20.392,2.268,25.988,7.331
			c4.531,3.998,7.064,10.13,7.064,17.063c0,11.86-7.465,19.726-16.928,22.925v0.398c6.932,2.398,11.063,8.797,13.192,18.126
			c2.935,12.529,5.066,21.192,6.933,24.658h-11.994c-1.465-2.532-3.465-10.263-5.998-21.459
			c-2.666-12.396-7.463-17.061-17.992-17.46h-10.93v38.919H599.53V135.177z M611.128,176.096h11.86
			c12.396,0,20.26-6.798,20.26-17.062c0-11.598-8.396-16.66-20.657-16.795c-5.601,0-9.599,0.533-11.463,1.065V176.096z"/>
		<path fill="#00AEEF" d="M689.5,143.84h-27.323v-9.862h66.51v9.862h-27.459v79.972h-11.729V143.84H689.5z"/>
		<path fill="#00AEEF" d="M736.285,209.684c5.197,3.198,12.795,5.864,20.793,5.864c11.861,0,18.793-6.267,18.793-15.328
			c0-8.396-4.801-13.195-16.93-17.86c-14.66-5.196-23.725-12.795-23.725-25.457c0-13.994,11.596-24.392,29.057-24.392
			c9.197,0,15.861,2.133,19.859,4.397l-3.199,9.465c-2.932-1.602-8.93-4.268-17.061-4.268c-12.263,0-16.929,7.331-16.929,13.462
			c0,8.397,5.467,12.529,17.861,17.327c15.193,5.864,22.924,13.195,22.924,26.393c0,13.859-10.262,25.855-31.455,25.855
			c-8.664,0-18.127-2.532-22.926-5.729L736.285,209.684z"/>
		<path fill="#00AEEF" d="M815.191,133.978v37.586h43.451v-37.586h11.729v89.834h-11.729v-42.118h-43.451v42.118h-11.596v-89.834
			H815.191z"/>
		<path fill="#00AEEF" d="M967.273,177.961c0,30.923-18.793,47.314-41.719,47.314c-23.725,0-40.387-18.394-40.387-45.583
			c0-28.521,17.729-47.184,41.719-47.184C951.412,132.511,967.273,151.304,967.273,177.961z M897.564,179.428
			c0,19.192,10.396,36.387,28.656,36.387c18.395,0,28.789-16.928,28.789-37.318c0-17.86-9.33-36.521-28.656-36.521
			C907.162,141.975,897.564,159.7,897.564,179.428z"/>
		<path fill="#00AEEF" d="M982.339,135.043c5.598-0.935,12.93-1.732,22.26-1.732c11.461,0,19.858,2.666,25.188,7.464
			c4.933,4.268,7.863,10.796,7.863,18.794c0,8.131-2.397,14.527-6.93,19.192c-6.133,6.531-16.129,9.863-27.457,9.863
			c-3.467,0-6.664-0.134-9.33-0.801v35.986h-11.596L982.339,135.043L982.339,135.043z M993.933,178.361
			c2.531,0.666,5.729,0.935,9.596,0.935c13.996,0,22.525-6.797,22.525-19.193c0-11.862-8.396-17.593-21.191-17.593
			c-5.063,0-8.932,0.397-10.93,0.933V178.361z"/>
	</g>
</g>
<g id="Layer_1_1_">
	<g>
		<polygon fill="#00AEEF" points="280.496,72.207 87.264,72.207 61.292,242.948 306.471,242.948 		"/>
		<polygon opacity="0.3" fill="#1C75BC" enable-background="new    " points="306.471,242.948 306.517,243.253 306.517,242.948 		
			"/>
		<polygon opacity="0.3" fill="#1C75BC" enable-background="new    " points="61.245,242.948 61.245,243.253 61.292,242.948 		"/>
		<polygon fill="#00AEEF" points="61.292,242.948 61.245,243.253 61.245,299.646 306.517,299.646 306.517,243.253 306.471,242.948 
					"/>
		<polygon opacity="0.3" fill="#1C75BC" enable-background="new    " points="61.292,242.948 61.245,243.253 61.245,299.646 
			306.517,299.646 306.517,243.253 306.471,242.948 		"/>
	</g>
	<path opacity="0.3" fill="#1C75BC" enable-background="new    " d="M61.245,243.253L280.496,72.207L61.245,243.253z"/>
</g>
<g id="Layer_8">
	<polygon fill="#00A1BC" points="61.245,243.253 280.496,72.207 306.471,242.948 306.517,299.646 61.245,299.646 	"/>
</g>
<g id="Layer_7">
</g>
<g id="Layer_2">
	<path fill="none" stroke="#00AEEF" stroke-width="10" stroke-miterlimit="10" d="M235.821,82.061
		c0-28.06-22.745-50.806-50.805-50.806c-28.062,0-50.807,22.747-50.807,50.806"/>
</g>
<g id="Layer_4">
	<circle fill="#0C5B8E" cx="135.169" cy="94.669" r="8.928"/>
	<circle fill="#0C5B8E" cx="235.823" cy="94.888" r="8.927"/>
</g>
<g id="Layer_5">
	<g>
		<path fill="#0C5B8E" d="M141.778,247.611c9.467,5.362,23.304,9.832,37.869,9.832c21.604,0,34.228-10.503,34.228-25.695
			c0-14.077-8.737-22.121-30.829-29.942c-26.701-8.714-43.21-21.451-43.21-42.679c0-23.462,21.119-40.894,52.92-40.894
			c16.75,0,28.889,3.575,36.17,7.374l-5.824,15.865c-5.34-2.682-16.266-7.15-31.072-7.15c-22.333,0-30.829,12.29-30.829,22.568
			c0,14.077,9.953,21.004,32.528,29.049c27.674,9.831,41.753,22.121,41.753,44.242c0,23.239-18.692,43.35-57.29,43.35
			c-15.779,0-33.016-4.243-41.753-9.606L141.778,247.611z"/>
	</g>
</g>
</svg>
