<?xml version="1.0" encoding="utf-8"?>
<!-- Generator: Adobe Illustrator 16.0.3, SVG Export Plug-In . SVG Version: 6.00 Build 0)  -->
<!DOCTYPE svg PUBLIC "-//W3C//DTD SVG 1.1//EN" "http://www.w3.org/Graphics/SVG/1.1/DTD/svg11.dtd">
<svg version="1.1" id="Layer_1" xmlns="http://www.w3.org/2000/svg" xmlns:xlink="http://www.w3.org/1999/xlink" x="0px" y="0px"
	 width="937.185px" height="280.099px" viewBox="0 0 937.185 280.099" enable-background="new 0 0 937.185 280.099"
	 xml:space="preserve">
<polygon fill="#48A2DA" points="205.598,31.709 28.604,31.709 0,224.698 0,280.099 234.202,280.099 234.202,224.698 "/>
<g>
	<g>
		<defs>
			<polygon id="SVGID_1_" points="205.598,31.709 28.604,31.709 0,224.698 0,280.099 234.202,280.099 234.202,224.698 			"/>
		</defs>
		<clipPath id="SVGID_2_">
			<use xlink:href="#SVGID_1_"  overflow="visible"/>
		</clipPath>
		<g opacity="0.1" clip-path="url(#SVGID_2_)">
			<path fill="#0F1621" d="M28.092,32.076l206.394,192.137l20.968,66.574l-52.887,15.321H5.85l-44.979-22.735V105.438
				c0,0,49.92-77.6,51.403-76.611S28.092,32.076,28.092,32.076z"/>
		</g>
	</g>
</g>
<g opacity="0.2" enable-background="new    ">
	<g>
		<defs>
			<polygon id="SVGID_3_" points="205.598,31.709 28.604,31.709 0,224.698 0,280.099 234.202,280.099 234.202,224.698 			"/>
		</defs>
		<clipPath id="SVGID_4_">
			<use xlink:href="#SVGID_3_"  overflow="visible"/>
		</clipPath>
		<g opacity="0.9" clip-path="url(#SVGID_4_)">
			<polyline fill="#0F1621" points="205.598,31.709 -25.229,253.222 6.33,302.649 218.687,302.649 273.247,268.545 252.921,111.369 
							"/>
		</g>
	</g>
</g>
<g>
	<g>
		<defs>
			<polygon id="SVGID_5_" points="205.598,31.709 28.604,31.709 0,224.698 0,280.099 234.202,280.099 234.202,224.698 			"/>
		</defs>
		<clipPath id="SVGID_6_">
			<use xlink:href="#SVGID_5_"  overflow="visible"/>
		</clipPath>
		<polyline clip-path="url(#SVGID_6_)" fill="#066C97" points="0.3,228.723 234.485,224.213 241.615,317.971 16.724,317.971 
			-60.876,260.142 		"/>
	</g>
</g>
<g>
	<g>
		<defs>
			<polygon id="SVGID_7_" points="205.598,31.709 28.604,31.709 0,224.698 0,280.099 234.202,280.099 234.202,224.698 			"/>
		</defs>
		<clipPath id="SVGID_8_">
			<use xlink:href="#SVGID_7_"  overflow="visible"/>
		</clipPath>
		<g opacity="0.5" clip-path="url(#SVGID_8_)">
			<g>
				<g>
					<path fill="#014F77" d="M237.509,358.997c8.04,5.272,19.789,9.665,32.158,9.665c18.347,0,29.066-10.324,29.066-25.262
						c0-13.839-7.422-21.748-26.181-29.437c-22.676-8.564-36.693-21.081-36.693-41.942c0-23.058,17.935-40.186,44.939-40.186
						c14.224,0,24.53,3.513,30.715,7.246l-4.947,15.592c-4.535-2.636-13.811-7.028-26.386-7.028
						c-18.966,0-26.18,12.078-26.18,22.179c0,13.835,8.452,20.644,27.623,28.549c23.5,9.661,35.457,21.741,35.457,43.488
						c0,22.846-15.874,42.617-48.65,42.617c-13.399,0-28.036-4.175-35.457-9.446L237.509,358.997z"/>
				</g>
			</g>
			<g>
				<g>
					<path fill="#014F77" d="M236.458,357.946c8.04,5.272,19.789,9.666,32.158,9.666c18.347,0,29.067-10.325,29.067-25.263
						c0-13.839-7.422-21.748-26.181-29.436c-22.676-8.564-36.693-21.082-36.693-41.943c0-23.058,17.935-40.186,44.939-40.186
						c14.224,0,24.531,3.513,30.715,7.246l-4.947,15.592c-4.535-2.636-13.812-7.028-26.386-7.028
						c-18.966,0-26.18,12.078-26.18,22.179c0,13.835,8.451,20.644,27.623,28.549c23.5,9.662,35.457,21.741,35.457,43.488
						c0,22.846-15.874,42.617-48.65,42.617c-13.399,0-28.036-4.174-35.457-9.445L236.458,357.946z"/>
				</g>
			</g>
			<g>
				<g>
					<path fill="#014F77" d="M235.407,356.896c8.04,5.272,19.789,9.666,32.158,9.666c18.347,0,29.067-10.324,29.067-25.263
						c0-13.839-7.422-21.747-26.181-29.436c-22.676-8.564-36.693-21.082-36.693-41.943c0-23.058,17.935-40.186,44.939-40.186
						c14.224,0,24.531,3.513,30.715,7.246l-4.947,15.592c-4.535-2.636-13.812-7.028-26.386-7.028
						c-18.966,0-26.18,12.078-26.18,22.179c0,13.835,8.452,20.644,27.623,28.55c23.5,9.661,35.457,21.74,35.457,43.488
						c0,22.846-15.874,42.616-48.65,42.616c-13.4,0-28.036-4.174-35.457-9.445L235.407,356.896z"/>
				</g>
			</g>
			<g>
				<g>
					<path fill="#014F77" d="M234.356,355.846c8.04,5.271,19.789,9.665,32.158,9.665c18.347,0,29.066-10.324,29.066-25.263
						c0-13.839-7.422-21.747-26.181-29.436c-22.676-8.564-36.693-21.081-36.693-41.943c0-23.057,17.935-40.186,44.939-40.186
						c14.223,0,24.53,3.514,30.715,7.246l-4.947,15.592c-4.535-2.635-13.811-7.028-26.386-7.028c-18.965,0-26.18,12.078-26.18,22.18
						c0,13.834,8.452,20.643,27.623,28.548c23.5,9.662,35.457,21.742,35.457,43.489c0,22.846-15.874,42.616-48.65,42.616
						c-13.399,0-28.036-4.174-35.457-9.445L234.356,355.846z"/>
				</g>
			</g>
			<g>
				<g>
					<path fill="#014F77" d="M233.305,354.795c8.04,5.272,19.789,9.665,32.158,9.665c18.347,0,29.066-10.324,29.066-25.262
						c0-13.84-7.422-21.748-26.181-29.437c-22.675-8.564-36.693-21.081-36.693-41.943c0-23.057,17.935-40.186,44.939-40.186
						c14.223,0,24.53,3.514,30.715,7.246l-4.947,15.592c-4.535-2.635-13.811-7.027-26.386-7.027
						c-18.966,0-26.18,12.078-26.18,22.179c0,13.835,8.452,20.644,27.623,28.549c23.5,9.661,35.457,21.741,35.457,43.488
						c0,22.846-15.874,42.616-48.65,42.616c-13.399,0-28.036-4.174-35.457-9.445L233.305,354.795z"/>
				</g>
			</g>
			<g>
				<g>
					<path fill="#014F77" d="M232.254,353.744c8.04,5.272,19.789,9.666,32.158,9.666c18.347,0,29.067-10.325,29.067-25.263
						c0-13.839-7.422-21.748-26.181-29.437c-22.676-8.564-36.693-21.081-36.693-41.942c0-23.058,17.935-40.186,44.939-40.186
						c14.224,0,24.531,3.513,30.715,7.246l-4.947,15.592c-4.535-2.636-13.812-7.028-26.386-7.028
						c-18.966,0-26.18,12.078-26.18,22.179c0,13.835,8.452,20.644,27.623,28.548c23.5,9.662,35.457,21.742,35.457,43.489
						c0,22.846-15.874,42.617-48.65,42.617c-13.399,0-28.035-4.174-35.457-9.446L232.254,353.744z"/>
				</g>
			</g>
			<g>
				<g>
					<path fill="#014F77" d="M231.203,352.693c8.04,5.272,19.789,9.666,32.158,9.666c18.347,0,29.066-10.324,29.066-25.263
						c0-13.839-7.422-21.747-26.18-29.436c-22.676-8.564-36.694-21.082-36.694-41.943c0-23.058,17.935-40.186,44.939-40.186
						c14.224,0,24.531,3.513,30.715,7.246l-4.947,15.592c-4.535-2.636-13.812-7.028-26.386-7.028
						c-18.966,0-26.181,12.078-26.181,22.179c0,13.835,8.452,20.644,27.624,28.549c23.5,9.662,35.456,21.741,35.456,43.489
						c0,22.846-15.873,42.616-48.649,42.616c-13.4,0-28.036-4.174-35.457-9.445L231.203,352.693z"/>
				</g>
			</g>
			<g>
				<g>
					<path fill="#014F77" d="M230.153,351.643c8.04,5.272,19.789,9.666,32.158,9.666c18.347,0,29.066-10.324,29.066-25.263
						c0-13.839-7.422-21.747-26.181-29.436c-22.676-8.564-36.693-21.081-36.693-41.943c0-23.058,17.935-40.186,44.939-40.186
						c14.223,0,24.53,3.513,30.715,7.246l-4.947,15.592c-4.535-2.636-13.811-7.028-26.386-7.028
						c-18.966,0-26.181,12.078-26.181,22.18c0,13.834,8.452,20.643,27.624,28.548c23.5,9.662,35.456,21.741,35.456,43.489
						c0,22.846-15.873,42.616-48.649,42.616c-13.399,0-28.036-4.174-35.457-9.445L230.153,351.643z"/>
				</g>
			</g>
			<g>
				<g>
					<path fill="#014F77" d="M229.102,350.593c8.04,5.272,19.789,9.665,32.158,9.665c18.346,0,29.065-10.324,29.065-25.262
						c0-13.84-7.421-21.748-26.18-29.437c-22.676-8.564-36.693-21.081-36.693-41.943c0-23.057,17.935-40.186,44.939-40.186
						c14.223,0,24.53,3.514,30.715,7.246l-4.947,15.592c-4.535-2.635-13.812-7.027-26.386-7.027
						c-18.966,0-26.181,12.078-26.181,22.179c0,13.834,8.453,20.644,27.624,28.548c23.5,9.662,35.456,21.742,35.456,43.489
						c0,22.846-15.873,42.616-48.649,42.616c-13.399,0-28.036-4.174-35.457-9.445L229.102,350.593z"/>
				</g>
			</g>
			<g>
				<g>
					<path fill="#014F77" d="M228.051,349.542c8.04,5.272,19.789,9.666,32.158,9.666c18.346,0,29.066-10.325,29.066-25.263
						c0-13.839-7.421-21.748-26.18-29.437c-22.675-8.564-36.693-21.081-36.693-41.942c0-23.058,17.935-40.186,44.939-40.186
						c14.224,0,24.531,3.513,30.715,7.246l-4.947,15.592c-4.536-2.636-13.812-7.028-26.386-7.028
						c-18.966,0-26.181,12.078-26.181,22.179c0,13.835,8.452,20.644,27.624,28.548c23.5,9.662,35.456,21.742,35.456,43.489
						c0,22.846-15.873,42.617-48.649,42.617c-13.4,0-28.036-4.174-35.457-9.446L228.051,349.542z"/>
				</g>
			</g>
			<g>
				<g>
					<path fill="#014F77" d="M227,348.491c8.04,5.272,19.789,9.666,32.158,9.666c18.346,0,29.066-10.325,29.066-25.263
						c0-13.839-7.421-21.747-26.18-29.436c-22.676-8.564-36.694-21.082-36.694-41.943c0-23.058,17.935-40.186,44.939-40.186
						c14.223,0,24.531,3.513,30.715,7.246l-4.947,15.592c-4.535-2.637-13.812-7.028-26.386-7.028
						c-18.966,0-26.181,12.078-26.181,22.179c0,13.835,8.452,20.643,27.624,28.549c23.5,9.662,35.456,21.741,35.456,43.488
						c0,22.847-15.873,42.617-48.649,42.617c-13.399,0-28.035-4.174-35.457-9.445L227,348.491z"/>
				</g>
			</g>
			<g>
				<g>
					<path fill="#014F77" d="M225.949,347.44c8.04,5.272,19.789,9.666,32.158,9.666c18.346,0,29.065-10.324,29.065-25.263
						c0-13.839-7.421-21.747-26.18-29.436c-22.676-8.564-36.693-21.081-36.693-41.943c0-23.058,17.935-40.186,44.939-40.186
						c14.223,0,24.53,3.513,30.715,7.246l-4.947,15.592c-4.535-2.636-13.812-7.028-26.386-7.028
						c-18.966,0-26.181,12.078-26.181,22.18c0,13.834,8.452,20.643,27.624,28.548c23.5,9.662,35.456,21.741,35.456,43.489
						c0,22.846-15.873,42.616-48.649,42.616c-13.399,0-28.036-4.174-35.457-9.445L225.949,347.44z"/>
				</g>
			</g>
			<g>
				<g>
					<path fill="#014F77" d="M224.897,346.391c8.041,5.271,19.79,9.665,32.159,9.665c18.346,0,29.066-10.324,29.066-25.263
						c0-13.839-7.421-21.747-26.18-29.436c-22.676-8.564-36.693-21.081-36.693-41.943c0-23.057,17.935-40.186,44.939-40.186
						c14.224,0,24.531,3.514,30.715,7.246l-4.947,15.592c-4.535-2.636-13.812-7.027-26.386-7.027
						c-18.966,0-26.181,12.078-26.181,22.179c0,13.834,8.452,20.643,27.624,28.548c23.5,9.662,35.456,21.742,35.456,43.489
						c0,22.846-15.873,42.616-48.65,42.616c-13.398,0-28.035-4.174-35.456-9.445L224.897,346.391z"/>
				</g>
			</g>
			<g>
				<g>
					<path fill="#014F77" d="M223.847,345.34c8.04,5.272,19.79,9.666,32.158,9.666c18.347,0,29.066-10.325,29.066-25.263
						c0-13.839-7.421-21.748-26.18-29.437c-22.675-8.564-36.693-21.081-36.693-41.943c0-23.057,17.935-40.185,44.939-40.185
						c14.223,0,24.531,3.514,30.715,7.245l-4.947,15.592c-4.536-2.635-13.812-7.027-26.386-7.027
						c-18.966,0-26.181,12.078-26.181,22.179c0,13.835,8.452,20.644,27.624,28.548c23.5,9.662,35.456,21.742,35.456,43.489
						c0,22.846-15.874,42.617-48.65,42.617c-13.399,0-28.035-4.175-35.456-9.446L223.847,345.34z"/>
				</g>
			</g>
			<g>
				<g>
					<path fill="#014F77" d="M222.795,344.289c8.04,5.272,19.79,9.666,32.158,9.666c18.347,0,29.067-10.325,29.067-25.263
						c0-13.839-7.421-21.747-26.18-29.436c-22.675-8.564-36.693-21.082-36.693-41.943c0-23.058,17.935-40.186,44.939-40.186
						c14.224,0,24.53,3.513,30.715,7.246l-4.947,15.592c-4.536-2.637-13.812-7.028-26.386-7.028
						c-18.966,0-26.181,12.078-26.181,22.179c0,13.835,8.452,20.643,27.623,28.549c23.5,9.661,35.457,21.741,35.457,43.488
						c0,22.846-15.874,42.617-48.65,42.617c-13.399,0-28.035-4.174-35.456-9.445L222.795,344.289z"/>
				</g>
			</g>
			<g>
				<g>
					<path fill="#014F77" d="M221.745,343.238c8.041,5.272,19.79,9.666,32.158,9.666c18.347,0,29.066-10.324,29.066-25.263
						c0-13.839-7.421-21.747-26.18-29.436c-22.676-8.564-36.693-21.081-36.693-41.943c0-23.058,17.935-40.186,44.939-40.186
						c14.224,0,24.531,3.513,30.715,7.246l-4.947,15.592c-4.535-2.636-13.812-7.028-26.386-7.028
						c-18.966,0-26.181,12.078-26.181,22.18c0,13.834,8.452,20.643,27.623,28.548c23.5,9.662,35.457,21.741,35.457,43.489
						c0,22.846-15.874,42.616-48.65,42.616c-13.398,0-28.035-4.174-35.456-9.445L221.745,343.238z"/>
				</g>
			</g>
			<g>
				<g>
					<path fill="#014F77" d="M220.693,342.188c8.04,5.272,19.79,9.666,32.158,9.666c18.347,0,29.066-10.324,29.066-25.263
						c0-13.839-7.421-21.747-26.18-29.436c-22.676-8.564-36.693-21.081-36.693-41.943c0-23.057,17.935-40.185,44.939-40.185
						c14.224,0,24.531,3.513,30.715,7.246l-4.947,15.592c-4.535-2.636-13.812-7.028-26.386-7.028
						c-18.966,0-26.181,12.078-26.181,22.18c0,13.834,8.452,20.643,27.623,28.548c23.5,9.662,35.457,21.741,35.457,43.489
						c0,22.846-15.873,42.616-48.65,42.616c-13.398,0-28.035-4.174-35.456-9.445L220.693,342.188z"/>
				</g>
			</g>
			<g>
				<g>
					<path fill="#014F77" d="M219.643,341.138c8.041,5.272,19.79,9.665,32.158,9.665c18.347,0,29.067-10.324,29.067-25.262
						c0-13.84-7.421-21.748-26.18-29.437c-22.676-8.564-36.693-21.081-36.693-41.943c0-23.057,17.935-40.185,44.939-40.185
						c14.223,0,24.53,3.513,30.715,7.246l-4.947,15.592c-4.535-2.636-13.811-7.027-26.386-7.027
						c-18.966,0-26.181,12.078-26.181,22.179c0,13.835,8.452,20.643,27.623,28.548c23.5,9.662,35.457,21.742,35.457,43.489
						c0,22.846-15.874,42.617-48.65,42.617c-13.399,0-28.035-4.175-35.456-9.446L219.643,341.138z"/>
				</g>
			</g>
			<g>
				<g>
					<path fill="#014F77" d="M218.592,340.087c8.04,5.272,19.79,9.666,32.158,9.666c18.347,0,29.067-10.325,29.067-25.263
						c0-13.839-7.421-21.748-26.18-29.436c-22.675-8.564-36.693-21.082-36.693-41.943c0-23.058,17.935-40.186,44.939-40.186
						c14.223,0,24.53,3.513,30.715,7.246l-4.947,15.592c-4.536-2.637-13.812-7.028-26.387-7.028
						c-18.965,0-26.18,12.078-26.18,22.179c0,13.835,8.452,20.643,27.623,28.549c23.5,9.661,35.457,21.741,35.457,43.488
						c0,22.846-15.874,42.617-48.65,42.617c-13.399,0-28.035-4.174-35.456-9.446L218.592,340.087z"/>
				</g>
			</g>
			<g>
				<g>
					<path fill="#014F77" d="M217.541,339.036c8.04,5.272,19.79,9.666,32.158,9.666c18.347,0,29.066-10.324,29.066-25.263
						c0-13.839-7.421-21.747-26.18-29.436c-22.676-8.564-36.693-21.082-36.693-41.943c0-23.058,17.935-40.186,44.939-40.186
						c14.224,0,24.531,3.513,30.715,7.246l-4.947,15.592c-4.535-2.637-13.812-7.028-26.386-7.028
						c-18.966,0-26.181,12.078-26.181,22.179c0,13.835,8.452,20.643,27.623,28.549c23.5,9.662,35.457,21.741,35.457,43.489
						c0,22.846-15.874,42.616-48.65,42.616c-13.399,0-28.035-4.174-35.456-9.445L217.541,339.036z"/>
				</g>
			</g>
			<g>
				<g>
					<path fill="#014F77" d="M216.49,337.985c8.04,5.272,19.79,9.666,32.158,9.666c18.347,0,29.066-10.324,29.066-25.263
						c0-13.839-7.421-21.747-26.18-29.436c-22.676-8.564-36.693-21.081-36.693-41.943c0-23.057,17.935-40.186,44.939-40.186
						c14.224,0,24.531,3.513,30.715,7.246l-4.947,15.592c-4.535-2.636-13.812-7.028-26.386-7.028
						c-18.966,0-26.181,12.078-26.181,22.18c0,13.834,8.452,20.643,27.623,28.548c23.5,9.662,35.457,21.741,35.457,43.489
						c0,22.846-15.874,42.616-48.65,42.616c-13.398,0-28.035-4.174-35.456-9.445L216.49,337.985z"/>
				</g>
			</g>
			<g>
				<g>
					<path fill="#014F77" d="M215.439,336.936c8.041,5.272,19.79,9.665,32.158,9.665c18.347,0,29.067-10.324,29.067-25.263
						c0-13.839-7.421-21.747-26.18-29.436c-22.675-8.564-36.693-21.081-36.693-41.943c0-23.057,17.934-40.185,44.939-40.185
						c14.223,0,24.53,3.513,30.715,7.246l-4.947,15.592c-4.535-2.636-13.811-7.027-26.386-7.027
						c-18.966,0-26.181,12.078-26.181,22.179c0,13.835,8.453,20.643,27.623,28.548c23.5,9.662,35.457,21.742,35.457,43.489
						c0,22.846-15.874,42.616-48.65,42.616c-13.399,0-28.035-4.174-35.457-9.445L215.439,336.936z"/>
				</g>
			</g>
			<g>
				<g>
					<path fill="#014F77" d="M214.388,335.885c8.041,5.272,19.79,9.666,32.158,9.666c18.347,0,29.066-10.325,29.066-25.263
						c0-13.839-7.421-21.748-26.18-29.437c-22.676-8.564-36.693-21.081-36.693-41.943c0-23.057,17.934-40.185,44.939-40.185
						c14.223,0,24.53,3.513,30.715,7.246l-4.947,15.592c-4.535-2.637-13.811-7.028-26.386-7.028
						c-18.965,0-26.18,12.078-26.18,22.179c0,13.835,8.452,20.643,27.623,28.548c23.5,9.662,35.457,21.742,35.457,43.489
						c0,22.846-15.874,42.617-48.65,42.617c-13.399,0-28.035-4.175-35.457-9.446L214.388,335.885z"/>
				</g>
			</g>
			<g>
				<g>
					<path fill="#014F77" d="M213.337,334.834c8.04,5.271,19.79,9.666,32.158,9.666c18.347,0,29.066-10.325,29.066-25.263
						c0-13.839-7.421-21.747-26.18-29.436c-22.676-8.564-36.694-21.082-36.694-41.943c0-23.058,17.934-40.186,44.939-40.186
						c14.224,0,24.531,3.513,30.715,7.246l-4.947,15.592c-4.535-2.637-13.812-7.028-26.386-7.028
						c-18.966,0-26.181,12.078-26.181,22.179c0,13.835,8.452,20.643,27.623,28.549c23.5,9.662,35.457,21.741,35.457,43.489
						c0,22.846-15.874,42.616-48.65,42.616c-13.399,0-28.035-4.174-35.457-9.445L213.337,334.834z"/>
				</g>
			</g>
			<g>
				<g>
					<path fill="#014F77" d="M212.287,333.783c8.041,5.272,19.79,9.666,32.158,9.666c18.347,0,29.067-10.324,29.067-25.263
						c0-13.839-7.421-21.747-26.18-29.436c-22.676-8.564-36.693-21.081-36.693-41.943c0-23.058,17.934-40.186,44.939-40.186
						c14.223,0,24.53,3.513,30.715,7.246l-4.947,15.592c-4.535-2.636-13.811-7.028-26.386-7.028
						c-18.966,0-26.181,12.078-26.181,22.18c0,13.834,8.452,20.643,27.623,28.548c23.5,9.662,35.457,21.741,35.457,43.489
						c0,22.846-15.874,42.616-48.65,42.616c-13.398,0-28.035-4.174-35.457-9.445L212.287,333.783z"/>
				</g>
			</g>
			<g>
				<g>
					<path fill="#014F77" d="M211.235,332.733c8.04,5.271,19.79,9.665,32.158,9.665c18.347,0,29.066-10.325,29.066-25.263
						c0-13.839-7.421-21.747-26.18-29.436c-22.676-8.564-36.693-21.081-36.693-41.943c0-23.057,17.934-40.185,44.939-40.185
						c14.223,0,24.53,3.513,30.715,7.246l-4.947,15.591c-4.535-2.636-13.812-7.027-26.386-7.027
						c-18.966,0-26.181,12.078-26.181,22.179c0,13.834,8.453,20.643,27.623,28.548c23.5,9.662,35.457,21.742,35.457,43.489
						c0,22.846-15.873,42.616-48.649,42.616c-13.4,0-28.035-4.174-35.457-9.445L211.235,332.733z"/>
				</g>
			</g>
			<g>
				<g>
					<path fill="#014F77" d="M210.185,331.683c8.04,5.271,19.79,9.665,32.158,9.665c18.347,0,29.066-10.325,29.066-25.262
						c0-13.839-7.421-21.748-26.18-29.437c-22.675-8.564-36.693-21.081-36.693-41.943c0-23.057,17.934-40.185,44.939-40.185
						c14.224,0,24.531,3.513,30.715,7.246l-4.947,15.592c-4.536-2.637-13.812-7.028-26.386-7.028
						c-18.966,0-26.181,12.078-26.181,22.179c0,13.835,8.452,20.643,27.623,28.548c23.5,9.662,35.457,21.742,35.457,43.489
						c0,22.846-15.874,42.617-48.65,42.617c-13.399,0-28.035-4.175-35.457-9.446L210.185,331.683z"/>
				</g>
			</g>
			<g>
				<g>
					<path fill="#014F77" d="M209.134,330.632c8.04,5.271,19.79,9.666,32.158,9.666c18.347,0,29.066-10.325,29.066-25.263
						c0-13.839-7.421-21.748-26.18-29.436c-22.676-8.564-36.694-21.082-36.694-41.943c0-23.058,17.934-40.186,44.939-40.186
						c14.224,0,24.531,3.513,30.715,7.246l-4.947,15.592c-4.535-2.637-13.812-7.028-26.386-7.028
						c-18.966,0-26.181,12.078-26.181,22.179c0,13.835,8.452,20.643,27.623,28.549c23.5,9.662,35.457,21.741,35.457,43.488
						c0,22.846-15.874,42.617-48.65,42.617c-13.399,0-28.035-4.174-35.457-9.445L209.134,330.632z"/>
				</g>
			</g>
			<g>
				<g>
					<path fill="#014F77" d="M208.083,329.581c8.04,5.271,19.79,9.666,32.158,9.666c18.347,0,29.066-10.325,29.066-25.263
						c0-13.839-7.421-21.747-26.18-29.436c-22.676-8.564-36.693-21.082-36.693-41.943c0-23.058,17.934-40.186,44.939-40.186
						c14.223,0,24.53,3.513,30.715,7.246l-4.947,15.592c-4.535-2.636-13.812-7.028-26.386-7.028
						c-18.966,0-26.181,12.078-26.181,22.179c0,13.835,8.453,20.643,27.623,28.549c23.5,9.662,35.457,21.741,35.457,43.489
						c0,22.846-15.873,42.616-48.65,42.616c-13.399,0-28.035-4.175-35.457-9.445L208.083,329.581z"/>
				</g>
			</g>
			<g>
				<g>
					<path fill="#014F77" d="M207.032,328.531c8.04,5.271,19.79,9.665,32.158,9.665c18.347,0,29.066-10.325,29.066-25.263
						c0-13.839-7.421-21.747-26.18-29.436c-22.676-8.564-36.693-21.081-36.693-41.943c0-23.057,17.934-40.185,44.939-40.185
						c14.224,0,24.531,3.513,30.715,7.246l-4.947,15.592c-4.535-2.635-13.812-7.028-26.386-7.028
						c-18.966,0-26.181,12.079-26.181,22.18c0,13.834,8.452,20.643,27.623,28.548c23.5,9.662,35.457,21.742,35.457,43.489
						c0,22.846-15.873,42.616-48.65,42.616c-13.399,0-28.035-4.175-35.457-9.445L207.032,328.531z"/>
				</g>
			</g>
			<g>
				<g>
					<path fill="#014F77" d="M205.981,327.48c8.039,5.271,19.79,9.665,32.158,9.665c18.347,0,29.066-10.325,29.066-25.262
						c0-13.839-7.421-21.748-26.18-29.437c-22.675-8.564-36.693-21.081-36.693-41.943c0-23.057,17.934-40.185,44.939-40.185
						c14.223,0,24.531,3.513,30.715,7.246l-4.947,15.591c-4.536-2.635-13.812-7.028-26.386-7.028
						c-18.966,0-26.181,12.079-26.181,22.179c0,13.835,8.452,20.643,27.623,28.548c23.5,9.662,35.457,21.742,35.457,43.489
						c0,22.846-15.874,42.616-48.65,42.616c-13.399,0-28.035-4.174-35.457-9.445L205.981,327.48z"/>
				</g>
			</g>
			<g>
				<g>
					<path fill="#014F77" d="M204.93,326.43c8.04,5.271,19.79,9.666,32.158,9.666c18.347,0,29.067-10.325,29.067-25.263
						c0-13.839-7.421-21.748-26.18-29.437c-22.676-8.564-36.693-21.081-36.693-41.942c0-23.058,17.934-40.186,44.938-40.186
						c14.225,0,24.531,3.513,30.716,7.246l-4.947,15.592c-4.536-2.636-13.812-7.028-26.387-7.028
						c-18.965,0-26.18,12.078-26.18,22.179c0,13.835,8.452,20.643,27.623,28.548c23.5,9.662,35.457,21.742,35.457,43.489
						c0,22.846-15.874,42.617-48.65,42.617c-13.399,0-28.035-4.175-35.457-9.446L204.93,326.43z"/>
				</g>
			</g>
			<g>
				<g>
					<path fill="#014F77" d="M203.879,325.379c8.04,5.271,19.79,9.666,32.158,9.666c18.347,0,29.066-10.325,29.066-25.263
						c0-13.839-7.421-21.747-26.18-29.436c-22.676-8.564-36.693-21.082-36.693-41.943c0-23.058,17.934-40.186,44.938-40.186
						c14.224,0,24.531,3.513,30.716,7.246l-4.947,15.592c-4.535-2.636-13.812-7.028-26.387-7.028
						c-18.965,0-26.18,12.078-26.18,22.179c0,13.835,8.452,20.643,27.623,28.549c23.5,9.662,35.457,21.741,35.457,43.489
						c0,22.846-15.874,42.616-48.65,42.616c-13.399,0-28.035-4.175-35.457-9.445L203.879,325.379z"/>
				</g>
			</g>
			<g>
				<g>
					<path fill="#014F77" d="M202.828,324.328c8.04,5.272,19.79,9.666,32.158,9.666c18.347,0,29.066-10.325,29.066-25.263
						c0-13.839-7.421-21.747-26.18-29.436c-22.676-8.564-36.693-21.081-36.693-41.943c0-23.057,17.934-40.186,44.938-40.186
						c14.224,0,24.531,3.513,30.716,7.246l-4.947,15.592c-4.535-2.636-13.812-7.028-26.387-7.028
						c-18.965,0-26.18,12.078-26.18,22.179c0,13.834,8.452,20.643,27.623,28.548c23.5,9.662,35.457,21.741,35.457,43.489
						c0,22.846-15.873,42.616-48.65,42.616c-13.399,0-28.035-4.175-35.457-9.445L202.828,324.328z"/>
				</g>
			</g>
			<g>
				<g>
					<path fill="#014F77" d="M201.777,323.278c8.04,5.271,19.79,9.665,32.158,9.665c18.347,0,29.067-10.325,29.067-25.262
						c0-13.84-7.421-21.748-26.181-29.437c-22.676-8.564-36.693-21.081-36.693-41.943c0-23.057,17.934-40.185,44.938-40.185
						c14.224,0,24.531,3.513,30.716,7.246l-4.947,15.591c-4.535-2.635-13.812-7.028-26.387-7.028
						c-18.966,0-26.18,12.079-26.18,22.179c0,13.834,8.451,20.643,27.623,28.548c23.5,9.662,35.457,21.742,35.457,43.489
						c0,22.846-15.874,42.616-48.65,42.616c-13.399,0-28.036-4.174-35.457-9.445L201.777,323.278z"/>
				</g>
			</g>
			<g>
				<g>
					<path fill="#014F77" d="M200.727,322.228c8.039,5.271,19.79,9.666,32.158,9.666c18.347,0,29.067-10.325,29.067-25.263
						c0-13.839-7.421-21.748-26.181-29.437c-22.676-8.564-36.693-21.081-36.693-41.942c0-23.058,17.934-40.186,44.938-40.186
						c14.224,0,24.531,3.513,30.716,7.246l-4.947,15.592c-4.536-2.636-13.813-7.028-26.387-7.028
						c-18.966,0-26.18,12.078-26.18,22.179c0,13.835,8.451,20.643,27.623,28.548c23.5,9.662,35.457,21.742,35.457,43.489
						c0,22.846-15.874,42.617-48.65,42.617c-13.399,0-28.036-4.175-35.457-9.446L200.727,322.228z"/>
				</g>
			</g>
			<g>
				<g>
					<path fill="#014F77" d="M199.676,321.177c8.04,5.271,19.79,9.666,32.158,9.666c18.347,0,29.066-10.325,29.066-25.263
						c0-13.839-7.421-21.747-26.181-29.436c-22.676-8.564-36.692-21.082-36.692-41.943c0-23.058,17.934-40.186,44.938-40.186
						c14.224,0,24.531,3.513,30.716,7.246l-4.947,15.592c-4.535-2.636-13.812-7.028-26.387-7.028
						c-18.966,0-26.18,12.078-26.18,22.179c0,13.835,8.452,20.643,27.623,28.549c23.5,9.662,35.457,21.741,35.457,43.488
						c0,22.847-15.874,42.617-48.65,42.617c-13.399,0-28.036-4.175-35.457-9.445L199.676,321.177z"/>
				</g>
			</g>
			<g>
				<g>
					<path fill="#014F77" d="M198.625,320.126c8.04,5.272,19.79,9.666,32.158,9.666c18.347,0,29.066-10.325,29.066-25.263
						c0-13.839-7.421-21.747-26.181-29.436c-22.675-8.564-36.692-21.081-36.692-41.943c0-23.057,17.934-40.186,44.938-40.186
						c14.224,0,24.53,3.513,30.716,7.246l-4.947,15.592c-4.535-2.635-13.812-7.028-26.387-7.028
						c-18.965,0-26.18,12.078-26.18,22.179c0,13.834,8.452,20.643,27.623,28.548c23.5,9.662,35.457,21.741,35.457,43.489
						c0,22.846-15.874,42.616-48.65,42.616c-13.399,0-28.036-4.175-35.457-9.445L198.625,320.126z"/>
				</g>
			</g>
			<g>
				<g>
					<path fill="#014F77" d="M197.574,319.076c8.04,5.271,19.79,9.665,32.158,9.665c18.347,0,29.067-10.325,29.067-25.263
						c0-13.839-7.421-21.747-26.181-29.436c-22.676-8.564-36.693-21.082-36.693-41.943c0-23.057,17.934-40.185,44.938-40.185
						c14.224,0,24.531,3.513,30.716,7.246l-4.947,15.592c-4.535-2.636-13.812-7.028-26.387-7.028
						c-18.966,0-26.18,12.079-26.18,22.179c0,13.834,8.452,20.643,27.623,28.548c23.5,9.662,35.457,21.742,35.457,43.489
						c0,22.846-15.874,42.616-48.65,42.616c-13.4,0-28.036-4.174-35.457-9.445L197.574,319.076z"/>
				</g>
			</g>
			<g>
				<g>
					<path fill="#014F77" d="M196.522,318.025c8.04,5.271,19.79,9.666,32.158,9.666c18.347,0,29.066-10.326,29.066-25.263
						c0-13.839-7.421-21.748-26.18-29.437c-22.676-8.564-36.693-21.081-36.693-41.943c0-23.057,17.934-40.185,44.938-40.185
						c14.224,0,24.531,3.513,30.716,7.246l-4.947,15.592c-4.535-2.635-13.812-7.028-26.387-7.028
						c-18.966,0-26.18,12.078-26.18,22.179c0,13.835,8.451,20.643,27.623,28.548c23.5,9.662,35.457,21.742,35.457,43.489
						c0,22.846-15.874,42.617-48.65,42.617c-13.399,0-28.036-4.175-35.457-9.446L196.522,318.025z"/>
				</g>
			</g>
			<g>
				<g>
					<path fill="#014F77" d="M195.472,316.975c8.04,5.271,19.79,9.666,32.158,9.666c18.347,0,29.066-10.325,29.066-25.263
						c0-13.839-7.421-21.747-26.181-29.436c-22.676-8.564-36.693-21.082-36.693-41.943c0-23.058,17.934-40.186,44.939-40.186
						c14.224,0,24.53,3.513,30.716,7.246l-4.947,15.592c-4.535-2.636-13.812-7.028-26.387-7.028
						c-18.966,0-26.18,12.078-26.18,22.179c0,13.835,8.452,20.643,27.623,28.549c23.5,9.662,35.457,21.741,35.457,43.488
						c0,22.847-15.874,42.617-48.65,42.617c-13.399,0-28.036-4.175-35.457-9.445L195.472,316.975z"/>
				</g>
			</g>
			<g>
				<g>
					<path fill="#014F77" d="M194.421,315.924c8.04,5.271,19.789,9.666,32.158,9.666c18.347,0,29.066-10.325,29.066-25.263
						c0-13.839-7.421-21.747-26.181-29.436c-22.676-8.564-36.692-21.082-36.692-41.943c0-23.057,17.934-40.186,44.938-40.186
						c14.224,0,24.53,3.513,30.716,7.246l-4.948,15.592c-4.534-2.636-13.812-7.028-26.386-7.028c-18.965,0-26.18,12.078-26.18,22.18
						c0,13.834,8.452,20.643,27.623,28.548c23.5,9.662,35.457,21.741,35.457,43.489c0,22.846-15.874,42.615-48.65,42.615
						c-13.399,0-28.036-4.174-35.457-9.444L194.421,315.924z"/>
				</g>
			</g>
			<g>
				<g>
					<path fill="#014F77" d="M193.37,314.874c8.04,5.271,19.789,9.665,32.158,9.665c18.347,0,29.066-10.325,29.066-25.263
						c0-13.839-7.421-21.747-26.181-29.436c-22.675-8.564-36.692-21.082-36.692-41.943c0-23.057,17.934-40.185,44.938-40.185
						c14.224,0,24.531,3.513,30.716,7.246l-4.948,15.592c-4.535-2.636-13.812-7.028-26.386-7.028
						c-18.966,0-26.18,12.078-26.18,22.179c0,13.834,8.452,20.643,27.623,28.548c23.5,9.662,35.457,21.741,35.457,43.489
						c0,22.845-15.873,42.616-48.649,42.616c-13.4,0-28.036-4.175-35.457-9.445L193.37,314.874z"/>
				</g>
			</g>
			<g>
				<g>
					<path fill="#014F77" d="M192.319,313.823c8.04,5.271,19.789,9.665,32.158,9.665c18.347,0,29.066-10.325,29.066-25.262
						c0-13.84-7.421-21.748-26.18-29.437c-22.676-8.564-36.694-21.082-36.694-41.943c0-23.057,17.935-40.185,44.939-40.185
						c14.224,0,24.531,3.513,30.716,7.246l-4.948,15.592c-4.535-2.636-13.812-7.028-26.386-7.028
						c-18.966,0-26.18,12.078-26.18,22.179c0,13.835,8.452,20.643,27.623,28.548c23.5,9.662,35.457,21.742,35.457,43.489
						c0,22.846-15.874,42.616-48.65,42.616c-13.399,0-28.035-4.174-35.457-9.445L192.319,313.823z"/>
				</g>
			</g>
			<g>
				<g>
					<path fill="#014F77" d="M191.269,312.772c8.04,5.271,19.789,9.666,32.158,9.666c18.347,0,29.066-10.325,29.066-25.263
						c0-13.839-7.421-21.748-26.181-29.436c-22.676-8.564-36.693-21.082-36.693-41.943c0-23.058,17.935-40.186,44.939-40.186
						c14.224,0,24.53,3.513,30.716,7.246l-4.948,15.592c-4.534-2.636-13.812-7.028-26.386-7.028
						c-18.966,0-26.18,12.078-26.18,22.179c0,13.835,8.452,20.643,27.623,28.549c23.5,9.662,35.457,21.741,35.457,43.488
						c0,22.846-15.874,42.617-48.65,42.617c-13.399,0-28.036-4.175-35.457-9.445L191.269,312.772z"/>
				</g>
			</g>
			<g>
				<g>
					<path fill="#014F77" d="M190.217,311.722c8.04,5.271,19.789,9.666,32.158,9.666c18.347,0,29.067-10.325,29.067-25.263
						c0-13.839-7.421-21.747-26.181-29.436c-22.676-8.564-36.693-21.082-36.693-41.943c0-23.058,17.935-40.187,44.939-40.187
						c14.225,0,24.531,3.514,30.716,7.247l-4.948,15.592c-4.535-2.636-13.812-7.028-26.386-7.028
						c-18.966,0-26.18,12.078-26.18,22.179c0,13.835,8.451,20.643,27.623,28.549c23.5,9.662,35.457,21.741,35.457,43.489
						c0,22.845-15.874,42.615-48.65,42.615c-13.399,0-28.036-4.174-35.457-9.444L190.217,311.722z"/>
				</g>
			</g>
			<g>
				<g>
					<path fill="#014F77" d="M189.167,310.671c8.04,5.272,19.789,9.666,32.158,9.666c18.347,0,29.066-10.325,29.066-25.263
						c0-13.839-7.421-21.747-26.181-29.436c-22.675-8.564-36.693-21.082-36.693-41.943c0-23.057,17.935-40.186,44.939-40.186
						c14.224,0,24.531,3.514,30.716,7.247l-4.948,15.592c-4.535-2.636-13.812-7.028-26.386-7.028
						c-18.966,0-26.18,12.078-26.18,22.179c0,13.834,8.452,20.643,27.623,28.548c23.5,9.662,35.457,21.741,35.457,43.489
						c0,22.845-15.873,42.616-48.65,42.616c-13.399,0-28.035-4.175-35.457-9.445L189.167,310.671z"/>
				</g>
			</g>
			<g>
				<g>
					<path fill="#014F77" d="M188.115,309.621c8.04,5.271,19.789,9.665,32.158,9.665c18.347,0,29.066-10.325,29.066-25.263
						c0-13.839-7.422-21.747-26.181-29.436c-22.675-8.564-36.693-21.082-36.693-41.943c0-23.057,17.935-40.186,44.939-40.186
						c14.224,0,24.531,3.514,30.715,7.247l-4.947,15.592c-4.535-2.636-13.812-7.028-26.386-7.028
						c-18.966,0-26.18,12.078-26.18,22.179c0,13.835,8.452,20.643,27.623,28.548c23.5,9.662,35.457,21.742,35.457,43.489
						c0,22.846-15.873,42.616-48.65,42.616c-13.399,0-28.036-4.174-35.457-9.445L188.115,309.621z"/>
				</g>
			</g>
			<g>
				<g>
					<path fill="#014F77" d="M187.065,308.57c8.04,5.271,19.789,9.666,32.158,9.666c18.347,0,29.067-10.326,29.067-25.263
						c0-13.839-7.422-21.748-26.181-29.437c-22.676-8.564-36.693-21.082-36.693-41.943c0-23.057,17.935-40.186,44.939-40.186
						c14.225,0,24.531,3.514,30.715,7.247l-4.947,15.592c-4.535-2.636-13.812-7.028-26.386-7.028
						c-18.966,0-26.18,12.078-26.18,22.179c0,13.835,8.451,20.643,27.623,28.548c23.5,9.662,35.457,21.742,35.457,43.489
						c0,22.846-15.874,42.617-48.65,42.617c-13.399,0-28.036-4.175-35.457-9.446L187.065,308.57z"/>
				</g>
			</g>
			<g>
				<g>
					<path fill="#014F77" d="M186.014,307.52c8.04,5.271,19.789,9.665,32.158,9.665c18.347,0,29.066-10.324,29.066-25.262
						c0-13.839-7.422-21.747-26.181-29.436c-22.675-8.564-36.693-21.082-36.693-41.943c0-23.058,17.935-40.187,44.939-40.187
						c14.224,0,24.531,3.514,30.715,7.247l-4.947,15.592c-4.535-2.636-13.812-7.028-26.386-7.028
						c-18.966,0-26.18,12.078-26.18,22.179c0,13.835,8.452,20.643,27.623,28.549c23.5,9.662,35.457,21.741,35.457,43.489
						c0,22.845-15.874,42.615-48.65,42.615c-13.399,0-28.035-4.174-35.457-9.444L186.014,307.52z"/>
				</g>
			</g>
			<g>
				<g>
					<path fill="#014F77" d="M184.963,306.469c8.04,5.271,19.789,9.666,32.158,9.666c18.347,0,29.066-10.325,29.066-25.263
						c0-13.839-7.422-21.747-26.181-29.436c-22.675-8.564-36.693-21.082-36.693-41.943c0-23.057,17.935-40.186,44.939-40.186
						c14.224,0,24.53,3.514,30.715,7.247l-4.947,15.592c-4.536-2.636-13.812-7.028-26.386-7.028
						c-18.966,0-26.18,12.078-26.18,22.179c0,13.834,8.452,20.643,27.623,28.548c23.5,9.662,35.457,21.741,35.457,43.489
						c0,22.845-15.873,42.615-48.65,42.615c-13.399,0-28.036-4.174-35.457-9.444L184.963,306.469z"/>
				</g>
			</g>
			<g>
				<g>
					<path fill="#014F77" d="M183.912,305.419c8.04,5.271,19.789,9.665,32.158,9.665c18.347,0,29.067-10.325,29.067-25.263
						c0-13.839-7.422-21.747-26.181-29.436c-22.676-8.564-36.693-21.082-36.693-41.943c0-23.057,17.935-40.186,44.939-40.186
						c14.224,0,24.531,3.514,30.715,7.247l-4.947,15.592c-4.535-2.636-13.812-7.028-26.386-7.028
						c-18.966,0-26.18,12.078-26.18,22.179c0,13.834,8.451,20.643,27.623,28.548c23.5,9.662,35.457,21.742,35.457,43.489
						c0,22.845-15.874,42.616-48.65,42.616c-13.399,0-28.036-4.175-35.457-9.445L183.912,305.419z"/>
				</g>
			</g>
			<g>
				<g>
					<path fill="#014F77" d="M182.861,304.368c8.039,5.272,19.789,9.665,32.158,9.665c18.347,0,29.067-10.325,29.067-25.262
						c0-13.839-7.422-21.748-26.181-29.437c-22.676-8.564-36.693-21.082-36.693-41.943c0-23.057,17.935-40.186,44.939-40.186
						c14.224,0,24.531,3.514,30.715,7.247l-4.947,15.592c-4.535-2.636-13.812-7.028-26.386-7.028
						c-18.966,0-26.18,12.078-26.18,22.179c0,13.835,8.451,20.643,27.623,28.548c23.5,9.662,35.457,21.742,35.457,43.489
						c0,22.846-15.874,42.616-48.65,42.616c-13.399,0-28.036-4.174-35.457-9.445L182.861,304.368z"/>
				</g>
			</g>
			<g>
				<g>
					<path fill="#014F77" d="M181.811,303.317c8.04,5.271,19.789,9.665,32.158,9.665c18.347,0,29.066-10.324,29.066-25.262
						c0-13.839-7.422-21.748-26.181-29.436c-22.676-8.564-36.693-21.082-36.693-41.944c0-23.057,17.935-40.186,44.939-40.186
						c14.224,0,24.53,3.514,30.715,7.247l-4.947,15.592c-4.535-2.636-13.811-7.028-26.386-7.028
						c-18.966,0-26.18,12.078-26.18,22.179c0,13.835,8.452,20.643,27.623,28.549c23.5,9.662,35.457,21.741,35.457,43.488
						c0,22.846-15.874,42.616-48.65,42.616c-13.399,0-28.036-4.174-35.457-9.444L181.811,303.317z"/>
				</g>
			</g>
			<g>
				<g>
					<path fill="#014F77" d="M180.759,302.267c8.04,5.271,19.789,9.665,32.158,9.665c18.347,0,29.066-10.324,29.066-25.262
						c0-13.839-7.422-21.747-26.181-29.436c-22.675-8.564-36.693-21.082-36.693-41.943c0-23.057,17.935-40.186,44.939-40.186
						c14.223,0,24.53,3.514,30.715,7.247l-4.947,15.592c-4.536-2.636-13.812-7.028-26.387-7.028
						c-18.965,0-26.18,12.078-26.18,22.179c0,13.834,8.452,20.642,27.623,28.548c23.5,9.662,35.457,21.741,35.457,43.489
						c0,22.845-15.874,42.615-48.65,42.615c-13.399,0-28.036-4.174-35.457-9.444L180.759,302.267z"/>
				</g>
			</g>
			<g>
				<g>
					<path fill="#014F77" d="M179.708,301.217c8.04,5.271,19.789,9.664,32.158,9.664c18.347,0,29.067-10.324,29.067-25.262
						c0-13.839-7.422-21.747-26.181-29.436c-22.676-8.564-36.693-21.082-36.693-41.943c0-23.057,17.935-40.186,44.939-40.186
						c14.224,0,24.531,3.514,30.715,7.247l-4.948,15.592c-4.535-2.636-13.811-7.028-26.386-7.028
						c-18.966,0-26.181,12.078-26.181,22.179c0,13.834,8.452,20.643,27.624,28.548c23.5,9.662,35.456,21.742,35.456,43.489
						c0,22.845-15.873,42.616-48.649,42.616c-13.399,0-28.036-4.175-35.457-9.445L179.708,301.217z"/>
				</g>
			</g>
			<g>
				<g>
					<path fill="#014F77" d="M178.657,300.166c8.04,5.271,19.789,9.665,32.158,9.665c18.347,0,29.066-10.325,29.066-25.262
						c0-13.839-7.422-21.748-26.18-29.437c-22.676-8.564-36.694-21.082-36.694-41.943c0-23.057,17.935-40.186,44.939-40.186
						c14.224,0,24.531,3.514,30.715,7.247l-4.947,15.592c-4.535-2.636-13.812-7.028-26.386-7.028
						c-18.966,0-26.18,12.078-26.18,22.179c0,13.835,8.451,20.643,27.623,28.548c23.5,9.662,35.457,21.742,35.457,43.489
						c0,22.845-15.874,42.616-48.65,42.616c-13.399,0-28.036-4.174-35.457-9.445L178.657,300.166z"/>
				</g>
			</g>
			<g>
				<g>
					<path fill="#014F77" d="M177.607,299.115c8.04,5.271,19.789,9.665,32.158,9.665c18.347,0,29.066-10.324,29.066-25.262
						c0-13.839-7.422-21.748-26.181-29.437c-22.676-8.564-36.693-21.082-36.693-41.943c0-23.057,17.935-40.186,44.939-40.186
						c14.223,0,24.53,3.514,30.715,7.247l-4.947,15.592c-4.535-2.636-13.811-7.028-26.386-7.028
						c-18.966,0-26.181,12.078-26.181,22.179c0,13.835,8.453,20.643,27.624,28.548c23.5,9.662,35.456,21.742,35.456,43.489
						c0,22.846-15.873,42.616-48.649,42.616c-13.399,0-28.036-4.174-35.457-9.445L177.607,299.115z"/>
				</g>
			</g>
			<g>
				<g>
					<path fill="#014F77" d="M176.556,298.064c8.04,5.271,19.789,9.665,32.158,9.665c18.346,0,29.066-10.324,29.066-25.262
						c0-13.839-7.422-21.747-26.181-29.436c-22.676-8.564-36.693-21.082-36.693-41.943c0-23.058,17.935-40.187,44.939-40.187
						c14.223,0,24.53,3.514,30.715,7.247l-4.947,15.592c-4.535-2.636-13.812-7.028-26.386-7.028
						c-18.965,0-26.181,12.078-26.181,22.179c0,13.834,8.453,20.642,27.624,28.548c23.5,9.662,35.457,21.741,35.457,43.489
						c0,22.845-15.873,42.615-48.649,42.615c-13.399,0-28.036-4.174-35.457-9.444L176.556,298.064z"/>
				</g>
			</g>
			<g>
				<g>
					<path fill="#014F77" d="M175.505,297.014c8.04,5.272,19.789,9.665,32.158,9.665c18.346,0,29.066-10.324,29.066-25.262
						c0-13.839-7.422-21.747-26.181-29.436c-22.675-8.564-36.693-21.082-36.693-41.943c0-23.057,17.935-40.186,44.939-40.186
						c14.224,0,24.531,3.514,30.715,7.247l-4.947,15.592c-4.535-2.636-13.812-7.028-26.386-7.028
						c-18.966,0-26.181,12.078-26.181,22.179c0,13.834,8.452,20.643,27.624,28.548c23.5,9.662,35.456,21.741,35.456,43.489
						c0,22.845-15.873,42.615-48.649,42.615c-13.4,0-28.036-4.174-35.457-9.444L175.505,297.014z"/>
				</g>
			</g>
			<g>
				<g>
					<path fill="#014F77" d="M174.454,295.964c8.04,5.271,19.789,9.665,32.158,9.665c18.346,0,29.066-10.325,29.066-25.262
						c0-13.84-7.421-21.748-26.18-29.437c-22.676-8.564-36.694-21.082-36.694-41.943c0-23.057,17.935-40.186,44.939-40.186
						c14.224,0,24.531,3.514,30.715,7.247l-4.947,15.592c-4.535-2.636-13.812-7.028-26.386-7.028
						c-18.966,0-26.181,12.078-26.181,22.179c0,13.834,8.452,20.643,27.624,28.548c23.5,9.662,35.456,21.742,35.456,43.489
						c0,22.845-15.873,42.616-48.649,42.616c-13.399,0-28.035-4.174-35.457-9.445L174.454,295.964z"/>
				</g>
			</g>
			<g>
				<g>
					<path fill="#014F77" d="M173.403,294.913c8.04,5.271,19.789,9.665,32.158,9.665c18.346,0,29.065-10.324,29.065-25.262
						c0-13.839-7.421-21.748-26.18-29.437c-22.676-8.564-36.693-21.082-36.693-41.943c0-23.057,17.935-40.186,44.939-40.186
						c14.223,0,24.53,3.514,30.715,7.247l-4.947,15.592c-4.535-2.636-13.812-7.028-26.386-7.028
						c-18.966,0-26.181,12.078-26.181,22.179c0,13.835,8.453,20.643,27.624,28.548c23.5,9.662,35.456,21.742,35.456,43.489
						c0,22.846-15.873,42.616-48.649,42.616c-13.399,0-28.036-4.174-35.457-9.445L173.403,294.913z"/>
				</g>
			</g>
			<g>
				<g>
					<path fill="#014F77" d="M172.352,293.862c8.04,5.271,19.789,9.665,32.158,9.665c18.346,0,29.066-10.324,29.066-25.262
						c0-13.839-7.421-21.747-26.18-29.436c-22.676-8.565-36.693-21.082-36.693-41.943c0-23.058,17.935-40.187,44.939-40.187
						c14.224,0,24.531,3.514,30.715,7.247l-4.947,15.592c-4.535-2.636-13.812-7.028-26.386-7.028
						c-18.966,0-26.181,12.078-26.181,22.179c0,13.834,8.452,20.642,27.624,28.548c23.499,9.662,35.456,21.741,35.456,43.488
						c0,22.846-15.873,42.616-48.649,42.616c-13.399,0-28.036-4.174-35.457-9.444L172.352,293.862z"/>
				</g>
			</g>
			<g>
				<g>
					<path fill="#014F77" d="M171.301,292.812c8.04,5.272,19.79,9.665,32.158,9.665c18.347,0,29.066-10.324,29.066-25.262
						c0-13.839-7.421-21.747-26.18-29.436c-22.675-8.564-36.693-21.082-36.693-41.943c0-23.057,17.935-40.186,44.939-40.186
						c14.223,0,24.531,3.514,30.715,7.247l-4.947,15.592c-4.535-2.636-13.812-7.028-26.386-7.028
						c-18.966,0-26.181,12.078-26.181,22.179c0,13.834,8.452,20.643,27.624,28.548c23.5,9.662,35.456,21.741,35.456,43.489
						c0,22.845-15.874,42.615-48.65,42.615c-13.399,0-28.035-4.174-35.456-9.444L171.301,292.812z"/>
				</g>
			</g>
			<g>
				<g>
					<path fill="#014F77" d="M170.25,291.762c8.04,5.271,19.79,9.665,32.158,9.665c18.347,0,29.067-10.325,29.067-25.263
						c0-13.839-7.421-21.747-26.18-29.436c-22.675-8.565-36.693-21.082-36.693-41.943c0-23.057,17.935-40.186,44.939-40.186
						c14.224,0,24.531,3.514,30.715,7.247l-4.947,15.592c-4.536-2.636-13.812-7.028-26.386-7.028
						c-18.966,0-26.181,12.078-26.181,22.179c0,13.834,8.452,20.643,27.624,28.548c23.5,9.662,35.456,21.742,35.456,43.489
						c0,22.845-15.874,42.616-48.65,42.616c-13.399,0-28.035-4.174-35.456-9.445L170.25,291.762z"/>
				</g>
			</g>
			<g>
				<g>
					<path fill="#014F77" d="M169.199,290.71c8.041,5.272,19.79,9.666,32.158,9.666c18.347,0,29.066-10.325,29.066-25.262
						c0-13.839-7.421-21.748-26.18-29.437c-22.676-8.564-36.693-21.082-36.693-41.943c0-23.057,17.935-40.186,44.939-40.186
						c14.224,0,24.531,3.514,30.715,7.247l-4.947,15.592c-4.535-2.636-13.812-7.028-26.386-7.028
						c-18.966,0-26.181,12.078-26.181,22.179c0,13.834,8.452,20.643,27.624,28.548c23.5,9.662,35.456,21.742,35.456,43.489
						c0,22.845-15.874,42.616-48.65,42.616c-13.398,0-28.035-4.174-35.456-9.445L169.199,290.71z"/>
				</g>
			</g>
			<g>
				<g>
					<path fill="#014F77" d="M168.147,289.66c8.04,5.271,19.79,9.665,32.158,9.665c18.347,0,29.066-10.324,29.066-25.262
						c0-13.839-7.421-21.747-26.18-29.436c-22.676-8.565-36.693-21.082-36.693-41.944c0-23.057,17.935-40.186,44.939-40.186
						c14.224,0,24.531,3.514,30.715,7.247l-4.947,15.592c-4.535-2.636-13.812-7.028-26.386-7.028
						c-18.966,0-26.181,12.078-26.181,22.179c0,13.835,8.452,20.643,27.623,28.549c23.5,9.662,35.457,21.741,35.457,43.488
						c0,22.846-15.873,42.616-48.65,42.616c-13.398,0-28.035-4.174-35.456-9.444L168.147,289.66z"/>
				</g>
			</g>
			<g>
				<g>
					<path fill="#014F77" d="M167.097,288.609c8.041,5.271,19.79,9.665,32.158,9.665c18.347,0,29.067-10.324,29.067-25.262
						c0-13.839-7.421-21.747-26.18-29.436c-22.675-8.565-36.693-21.082-36.693-41.943c0-23.057,17.935-40.186,44.939-40.186
						c14.223,0,24.53,3.514,30.715,7.247l-4.947,15.592c-4.536-2.636-13.812-7.028-26.386-7.028
						c-18.966,0-26.181,12.078-26.181,22.179c0,13.834,8.452,20.643,27.623,28.548c23.5,9.662,35.457,21.741,35.457,43.489
						c0,22.845-15.874,42.615-48.65,42.615c-13.399,0-28.035-4.174-35.456-9.444L167.097,288.609z"/>
				</g>
			</g>
			<g>
				<g>
					<path fill="#014F77" d="M166.046,287.56c8.04,5.271,19.79,9.665,32.158,9.665c18.347,0,29.067-10.324,29.067-25.262
						c0-13.839-7.421-21.747-26.18-29.436c-22.675-8.565-36.693-21.082-36.693-41.943c0-23.057,17.935-40.186,44.939-40.186
						c14.223,0,24.531,3.514,30.715,7.247l-4.947,15.592c-4.536-2.636-13.812-7.028-26.387-7.028
						c-18.965,0-26.18,12.078-26.18,22.179c0,13.834,8.452,20.642,27.623,28.548c23.5,9.662,35.457,21.741,35.457,43.489
						c0,22.845-15.874,42.615-48.65,42.615c-13.399,0-28.035-4.174-35.456-9.444L166.046,287.56z"/>
				</g>
			</g>
			<g>
				<g>
					<path fill="#014F77" d="M164.995,286.51c8.04,5.271,19.79,9.664,32.158,9.664c18.347,0,29.066-10.324,29.066-25.262
						c0-13.839-7.421-21.747-26.18-29.436c-22.676-8.565-36.693-21.081-36.693-41.943c0-23.057,17.935-40.186,44.939-40.186
						c14.224,0,24.531,3.514,30.715,7.247l-4.947,15.592c-4.535-2.636-13.812-7.028-26.386-7.028
						c-18.966,0-26.181,12.078-26.181,22.179c0,13.835,8.452,20.643,27.623,28.548c23.5,9.662,35.457,21.742,35.457,43.489
						c0,22.845-15.874,42.616-48.65,42.616c-13.398,0-28.035-4.175-35.456-9.445L164.995,286.51z"/>
				</g>
			</g>
			<g>
				<g>
					<path fill="#014F77" d="M163.944,285.458c8.04,5.272,19.79,9.666,32.158,9.666c18.347,0,29.066-10.325,29.066-25.262
						c0-13.839-7.421-21.748-26.18-29.437c-22.676-8.564-36.693-21.081-36.693-41.943c0-23.057,17.935-40.186,44.939-40.186
						c14.224,0,24.531,3.514,30.715,7.247l-4.947,15.592c-4.535-2.636-13.812-7.028-26.386-7.028
						c-18.966,0-26.181,12.078-26.181,22.179c0,13.834,8.452,20.643,27.623,28.548c23.5,9.662,35.457,21.742,35.457,43.489
						c0,22.845-15.874,42.616-48.65,42.616c-13.398,0-28.035-4.174-35.456-9.445L163.944,285.458z"/>
				</g>
			</g>
			<g>
				<g>
					<path fill="#014F77" d="M162.893,284.407c8.041,5.272,19.79,9.666,32.158,9.666c18.347,0,29.067-10.324,29.067-25.262
						c0-13.839-7.421-21.748-26.18-29.437c-22.675-8.564-36.693-21.082-36.693-41.943c0-23.057,17.935-40.186,44.939-40.186
						c14.223,0,24.53,3.514,30.715,7.247l-4.947,15.592c-4.536-2.636-13.812-7.028-26.387-7.028
						c-18.965,0-26.18,12.078-26.18,22.179c0,13.835,8.452,20.643,27.623,28.548c23.5,9.662,35.457,21.742,35.457,43.489
						c0,22.846-15.874,42.616-48.65,42.616c-13.399,0-28.035-4.174-35.456-9.445L162.893,284.407z"/>
				</g>
			</g>
			<g>
				<g>
					<path fill="#014F77" d="M161.842,283.357c8.041,5.271,19.79,9.665,32.158,9.665c18.347,0,29.067-10.324,29.067-25.262
						c0-13.839-7.421-21.747-26.18-29.436c-22.676-8.565-36.693-21.082-36.693-41.943c0-23.058,17.934-40.187,44.939-40.187
						c14.223,0,24.53,3.514,30.715,7.248l-4.947,15.592c-4.535-2.636-13.811-7.028-26.386-7.028
						c-18.966,0-26.181,12.078-26.181,22.179c0,13.834,8.452,20.643,27.623,28.548c23.5,9.662,35.457,21.741,35.457,43.489
						c0,22.845-15.874,42.615-48.65,42.615c-13.399,0-28.035-4.174-35.457-9.444L161.842,283.357z"/>
				</g>
			</g>
			<g>
				<g>
					<path fill="#014F77" d="M160.792,282.307c8.04,5.272,19.79,9.665,32.158,9.665c18.347,0,29.066-10.324,29.066-25.262
						c0-13.839-7.421-21.747-26.18-29.436c-22.676-8.565-36.694-21.082-36.694-41.943c0-23.057,17.934-40.187,44.939-40.187
						c14.224,0,24.531,3.514,30.715,7.247l-4.947,15.592c-4.535-2.636-13.812-7.028-26.386-7.028
						c-18.966,0-26.181,12.078-26.181,22.179c0,13.834,8.452,20.643,27.623,28.548c23.5,9.662,35.457,21.741,35.457,43.489
						c0,22.845-15.874,42.615-48.65,42.615c-13.398,0-28.035-4.174-35.457-9.444L160.792,282.307z"/>
				</g>
			</g>
			<g>
				<g>
					<path fill="#014F77" d="M159.74,281.256c8.04,5.272,19.79,9.666,32.158,9.666c18.347,0,29.066-10.325,29.066-25.262
						c0-13.84-7.421-21.748-26.18-29.437c-22.676-8.565-36.693-21.082-36.693-41.943c0-23.057,17.934-40.188,44.939-40.188
						c14.224,0,24.531,3.515,30.715,7.249l-4.947,15.592c-4.535-2.636-13.812-7.028-26.386-7.028
						c-18.966,0-26.181,12.078-26.181,22.179c0,13.834,8.452,20.643,27.623,28.548c23.5,9.662,35.457,21.742,35.457,43.489
						c0,22.845-15.874,42.616-48.65,42.616c-13.399,0-28.035-4.174-35.457-9.445L159.74,281.256z"/>
				</g>
			</g>
			<g>
				<g>
					<path fill="#014F77" d="M158.689,280.205c8.041,5.272,19.79,9.666,32.158,9.666c18.347,0,29.066-10.324,29.066-25.262
						c0-13.839-7.421-21.748-26.18-29.437c-22.676-8.564-36.693-21.082-36.693-41.943c0-23.057,17.934-40.188,44.939-40.188
						c14.223,0,24.53,3.515,30.715,7.248l-4.947,15.592c-4.535-2.636-13.812-7.028-26.386-7.028
						c-18.965,0-26.181,12.078-26.181,22.179c0,13.835,8.453,20.643,27.623,28.548c23.5,9.662,35.457,21.742,35.457,43.489
						c0,22.846-15.874,42.616-48.65,42.616c-13.399,0-28.035-4.174-35.456-9.445L158.689,280.205z"/>
				</g>
			</g>
			<g>
				<g>
					<path fill="#014F77" d="M157.639,279.154c8.04,5.272,19.79,9.666,32.158,9.666c18.347,0,29.066-10.324,29.066-25.262
						c0-13.839-7.421-21.747-26.18-29.436c-22.675-8.565-36.693-21.083-36.693-41.943c0-23.058,17.934-40.188,44.939-40.188
						c14.224,0,24.531,3.515,30.715,7.249l-4.947,15.592c-4.535-2.636-13.812-7.028-26.386-7.028
						c-18.966,0-26.181,12.078-26.181,22.179c0,13.834,8.452,20.643,27.623,28.548c23.5,9.662,35.457,21.741,35.457,43.488
						c0,22.846-15.874,42.616-48.65,42.616c-13.399,0-28.035-4.174-35.457-9.444L157.639,279.154z"/>
				</g>
			</g>
			<g>
				<g>
					<path fill="#014F77" d="M156.588,278.104c8.04,5.272,19.79,9.665,32.158,9.665c18.347,0,29.066-10.324,29.066-25.262
						c0-13.839-7.421-21.747-26.18-29.436c-22.676-8.565-36.694-21.082-36.694-41.943c0-23.057,17.934-40.188,44.939-40.188
						c14.224,0,24.531,3.515,30.715,7.249l-4.947,15.592c-4.535-2.636-13.812-7.028-26.386-7.028
						c-18.966,0-26.181,12.078-26.181,22.179c0,13.834,8.452,20.643,27.623,28.548c23.5,9.662,35.457,21.741,35.457,43.489
						c0,22.845-15.874,42.615-48.65,42.615c-13.399,0-28.035-4.174-35.457-9.444L156.588,278.104z"/>
				</g>
			</g>
			<g>
				<g>
					<path fill="#014F77" d="M155.537,277.054c8.04,5.272,19.79,9.665,32.158,9.665c18.347,0,29.066-10.324,29.066-25.262
						c0-13.839-7.421-21.747-26.18-29.436c-22.676-8.565-36.693-21.082-36.693-41.943c0-23.057,17.934-40.189,44.939-40.189
						c14.223,0,24.53,3.515,30.715,7.25l-4.947,15.592c-4.535-2.636-13.812-7.028-26.386-7.028
						c-18.966,0-26.181,12.078-26.181,22.179c0,13.834,8.453,20.643,27.623,28.548c23.5,9.662,35.457,21.742,35.457,43.489
						c0,22.845-15.873,42.616-48.649,42.616c-13.4,0-28.035-4.174-35.457-9.446L155.537,277.054z"/>
				</g>
			</g>
			<g>
				<g>
					<path fill="#014F77" d="M154.486,276.003c8.04,5.272,19.79,9.666,32.158,9.666c18.347,0,29.066-10.325,29.066-25.262
						c0-13.839-7.421-21.749-26.18-29.437c-22.676-8.564-36.693-21.082-36.693-41.943c0-23.057,17.934-40.189,44.939-40.189
						c14.224,0,24.531,3.515,30.715,7.25l-4.947,15.592c-4.535-2.636-13.811-7.028-26.386-7.028
						c-18.966,0-26.181,12.078-26.181,22.179c0,13.834,8.452,20.643,27.623,28.548c23.5,9.662,35.457,21.742,35.457,43.489
						c0,22.845-15.874,42.616-48.65,42.616c-13.399,0-28.035-4.175-35.457-9.446L154.486,276.003z"/>
				</g>
			</g>
			<g>
				<g>
					<path fill="#014F77" d="M153.436,274.952c8.04,5.272,19.79,9.666,32.158,9.666c18.347,0,29.066-10.324,29.066-25.263
						c0-13.839-7.421-21.746-26.18-29.435c-22.676-8.564-36.694-21.083-36.694-41.944c0-23.057,17.934-40.189,44.939-40.189
						c14.223,0,24.531,3.515,30.715,7.25l-4.947,15.593c-4.535-2.636-13.812-7.028-26.386-7.028
						c-18.966,0-26.181,12.078-26.181,22.179c0,13.835,8.452,20.643,27.623,28.548c23.5,9.663,35.457,21.742,35.457,43.489
						c0,22.846-15.874,42.616-48.65,42.616c-13.399,0-28.035-4.174-35.457-9.445L153.436,274.952z"/>
				</g>
			</g>
			<g>
				<g>
					<path fill="#014F77" d="M152.384,273.902c8.04,5.271,19.79,9.665,32.158,9.665c18.347,0,29.067-10.324,29.067-25.262
						c0-13.839-7.421-21.748-26.18-29.436c-22.675-8.564-36.693-21.082-36.693-41.943c0-23.057,17.934-40.19,44.938-40.19
						c14.225,0,24.532,3.515,30.716,7.25l-4.947,15.594c-4.536-2.636-13.812-7.028-26.387-7.028
						c-18.965,0-26.18,12.078-26.18,22.179c0,13.835,8.452,20.643,27.623,28.548c23.5,9.663,35.457,21.742,35.457,43.489
						c0,22.846-15.874,42.616-48.65,42.616c-13.399,0-28.035-4.174-35.457-9.445L152.384,273.902z"/>
				</g>
			</g>
			<g>
				<g>
					<path fill="#014F77" d="M151.333,272.852c8.04,5.272,19.79,9.665,32.158,9.665c18.347,0,29.066-10.324,29.066-25.262
						c0-13.839-7.421-21.747-26.18-29.436c-22.676-8.564-36.693-21.082-36.693-41.943c0-23.057,17.934-40.189,44.938-40.189
						c14.224,0,24.531,3.515,30.716,7.25l-4.947,15.593c-4.535-2.636-13.812-7.028-26.387-7.028
						c-18.965,0-26.18,12.078-26.18,22.179c0,13.834,8.452,20.643,27.623,28.548c23.5,9.662,35.457,21.741,35.457,43.489
						c0,22.845-15.874,42.615-48.65,42.615c-13.399,0-28.035-4.174-35.457-9.444L151.333,272.852z"/>
				</g>
			</g>
			<g>
				<g>
					<path fill="#014F77" d="M150.282,271.801c8.04,5.272,19.79,9.666,32.158,9.666c18.347,0,29.066-10.325,29.066-25.263
						c0-13.839-7.421-21.748-26.18-29.436c-22.676-8.564-36.693-21.082-36.693-41.943c0-23.057,17.934-40.19,44.938-40.19
						c14.224,0,24.531,3.515,30.716,7.25l-4.947,15.594c-4.535-2.636-13.812-7.028-26.387-7.028
						c-18.965,0-26.18,12.078-26.18,22.179c0,13.835,8.452,20.643,27.623,28.548c23.5,9.662,35.457,21.741,35.457,43.489
						c0,22.845-15.873,42.616-48.65,42.616c-13.399,0-28.035-4.175-35.457-9.446L150.282,271.801z"/>
				</g>
			</g>
			<g>
				<g>
					<path fill="#014F77" d="M149.232,270.75c8.04,5.272,19.79,9.666,32.158,9.666c18.347,0,29.067-10.324,29.067-25.263
						c0-13.839-7.421-21.747-26.18-29.435c-22.676-8.564-36.693-21.083-36.693-41.944c0-23.057,17.934-40.19,44.938-40.19
						c14.224,0,24.531,3.515,30.716,7.25l-4.947,15.594c-4.536-2.636-13.812-7.028-26.387-7.028
						c-18.965,0-26.18,12.078-26.18,22.179c0,13.834,8.452,20.643,27.623,28.548c23.5,9.662,35.457,21.742,35.457,43.489
						c0,22.845-15.874,42.616-48.65,42.616c-13.399,0-28.035-4.174-35.457-9.445L149.232,270.75z"/>
				</g>
			</g>
			<g>
				<g>
					<path fill="#014F77" d="M148.181,269.699c8.039,5.272,19.79,9.666,32.158,9.666c18.347,0,29.067-10.324,29.067-25.263
						c0-13.838-7.421-21.747-26.181-29.435c-22.676-8.564-36.693-21.083-36.693-41.943c0-23.058,17.934-40.191,44.938-40.191
						c14.224,0,24.531,3.515,30.716,7.25l-4.947,15.595c-4.536-2.636-13.813-7.028-26.387-7.028
						c-18.966,0-26.18,12.078-26.18,22.179c0,13.835,8.452,20.643,27.623,28.548c23.5,9.662,35.457,21.742,35.457,43.489
						c0,22.846-15.874,42.616-48.65,42.616c-13.399,0-28.035-4.174-35.457-9.445L148.181,269.699z"/>
				</g>
			</g>
			<g>
				<g>
					<path fill="#014F77" d="M147.13,268.649c8.04,5.272,19.79,9.665,32.158,9.665c18.347,0,29.066-10.324,29.066-25.262
						c0-13.84-7.421-21.748-26.181-29.436c-22.675-8.564-36.692-21.082-36.692-41.943c0-23.057,17.934-40.191,44.938-40.191
						c14.224,0,24.53,3.515,30.716,7.25l-4.947,15.595c-4.535-2.636-13.812-7.028-26.387-7.028c-18.966,0-26.18,12.078-26.18,22.179
						c0,13.834,8.452,20.643,27.623,28.548c23.5,9.663,35.457,21.742,35.457,43.49c0,22.845-15.874,42.615-48.65,42.615
						c-13.399,0-28.035-4.174-35.457-9.445L147.13,268.649z"/>
				</g>
			</g>
			<g>
				<g>
					<path fill="#014F77" d="M146.079,267.599c8.04,5.272,19.79,9.666,32.158,9.666c18.347,0,29.066-10.325,29.066-25.263
						c0-13.839-7.421-21.748-26.181-29.436c-22.675-8.564-36.692-21.082-36.692-41.943c0-23.057,17.934-40.191,44.938-40.191
						c14.224,0,24.531,3.515,30.716,7.25l-4.947,15.595c-4.535-2.636-13.812-7.027-26.387-7.027c-18.965,0-26.18,12.079-26.18,22.18
						c0,13.834,8.452,20.643,27.623,28.548c23.5,9.662,35.457,21.742,35.457,43.489c0,22.846-15.874,42.616-48.65,42.616
						c-13.399,0-28.035-4.174-35.457-9.445L146.079,267.599z"/>
				</g>
			</g>
			<g>
				<g>
					<path fill="#014F77" d="M145.028,266.548c8.04,5.272,19.79,9.666,32.158,9.666c18.347,0,29.067-10.325,29.067-25.263
						c0-13.839-7.421-21.747-26.181-29.436c-22.676-8.564-36.693-21.082-36.693-41.943c0-23.057,17.934-40.192,44.938-40.192
						c14.224,0,24.531,3.515,30.716,7.25l-4.948,15.595c-4.535-2.635-13.812-7.027-26.386-7.027c-18.966,0-26.18,12.079-26.18,22.18
						c0,13.834,8.451,20.643,27.623,28.548c23.5,9.662,35.457,21.741,35.457,43.489c0,22.845-15.874,42.615-48.65,42.615
						c-13.399,0-28.036-4.174-35.457-9.445L145.028,266.548z"/>
				</g>
			</g>
			<g>
				<g>
					<path fill="#014F77" d="M143.977,265.497c8.04,5.272,19.79,9.666,32.158,9.666c18.347,0,29.067-10.324,29.067-25.263
						c0-13.839-7.421-21.747-26.181-29.435c-22.676-8.565-36.693-21.083-36.693-41.943c0-23.058,17.934-40.193,44.938-40.193
						c14.224,0,24.531,3.515,30.716,7.25l-4.948,15.596c-4.535-2.636-13.812-7.028-26.386-7.028
						c-18.966,0-26.18,12.079-26.18,22.181c0,13.834,8.451,20.643,27.623,28.548c23.5,9.662,35.457,21.742,35.457,43.489
						c0,22.845-15.874,42.616-48.65,42.616c-13.399,0-28.036-4.174-35.457-9.446L143.977,265.497z"/>
				</g>
			</g>
			<g>
				<g>
					<path fill="#014F77" d="M142.926,264.447c8.04,5.271,19.79,9.665,32.158,9.665c18.347,0,29.066-10.324,29.066-25.263
						c0-13.839-7.421-21.747-26.181-29.435c-22.675-8.564-36.692-21.082-36.692-41.943c0-23.058,17.934-40.192,44.938-40.192
						c14.224,0,24.53,3.515,30.716,7.25l-4.948,15.595c-4.535-2.635-13.812-7.028-26.387-7.028c-18.965,0-26.18,12.08-26.18,22.18
						c0,13.834,8.452,20.643,27.623,28.548c23.5,9.662,35.457,21.742,35.457,43.489c0,22.845-15.874,42.616-48.65,42.616
						c-13.399,0-28.036-4.174-35.457-9.445L142.926,264.447z"/>
				</g>
			</g>
			<g>
				<g>
					<path fill="#014F77" d="M141.875,263.396c8.04,5.272,19.79,9.666,32.158,9.666c18.347,0,29.066-10.325,29.066-25.263
						c0-13.839-7.421-21.748-26.181-29.436c-22.676-8.564-36.692-21.082-36.692-41.943c0-23.059,17.934-40.193,44.938-40.193
						c14.224,0,24.53,3.515,30.716,7.25l-4.948,15.596c-4.534-2.636-13.811-7.029-26.386-7.029c-18.965,0-26.18,12.08-26.18,22.18
						c0,13.834,8.452,20.643,27.623,28.548c23.5,9.662,35.457,21.741,35.457,43.489c0,22.845-15.874,42.615-48.65,42.615
						c-13.399,0-28.036-4.174-35.457-9.445L141.875,263.396z"/>
				</g>
			</g>
			<g>
				<g>
					<path fill="#014F77" d="M140.824,262.346c8.04,5.272,19.79,9.666,32.158,9.666c18.347,0,29.066-10.325,29.066-25.263
						c0-13.839-7.421-21.747-26.18-29.436c-22.676-8.564-36.693-21.082-36.693-41.943c0-23.059,17.934-40.193,44.938-40.193
						c14.224,0,24.531,3.515,30.716,7.25l-4.948,15.596c-4.535-2.636-13.812-7.029-26.386-7.029c-18.966,0-26.18,12.08-26.18,22.181
						c0,13.834,8.452,20.643,27.623,28.548c23.5,9.662,35.457,21.741,35.457,43.489c0,22.845-15.874,42.615-48.65,42.615
						c-13.399,0-28.036-4.174-35.457-9.445L140.824,262.346z"/>
				</g>
			</g>
			<g>
				<g>
					<path fill="#014F77" d="M139.773,261.295c8.04,5.272,19.79,9.666,32.158,9.666c18.347,0,29.067-10.324,29.067-25.263
						c0-13.839-7.421-21.747-26.181-29.435c-22.676-8.564-36.693-21.082-36.693-41.943c0-23.059,17.934-40.194,44.938-40.194
						c14.224,0,24.531,3.515,30.716,7.25l-4.948,15.596c-4.535-2.636-13.812-7.029-26.386-7.029
						c-18.966,0-26.18,12.081-26.18,22.181c0,13.834,8.452,20.643,27.623,28.548c23.5,9.662,35.457,21.742,35.457,43.489
						c0,22.845-15.874,42.616-48.65,42.616c-13.4,0-28.036-4.174-35.457-9.445L139.773,261.295z"/>
				</g>
			</g>
			<g>
				<g>
					<path fill="#014F77" d="M138.723,260.245c8.04,5.271,19.789,9.665,32.158,9.665c18.347,0,29.066-10.324,29.066-25.263
						c0-13.839-7.421-21.747-26.181-29.435c-22.676-8.564-36.693-21.082-36.693-41.943c0-23.06,17.934-40.194,44.939-40.194
						c14.224,0,24.53,3.515,30.716,7.25l-4.948,15.596c-4.534-2.636-13.812-7.028-26.386-7.028c-18.965,0-26.18,12.081-26.18,22.182
						c0,13.834,8.452,20.643,27.623,28.548c23.5,9.662,35.457,21.742,35.457,43.489c0,22.845-15.874,42.616-48.65,42.616
						c-13.399,0-28.036-4.174-35.457-9.445L138.723,260.245z"/>
				</g>
			</g>
			<g>
				<g>
					<path fill="#014F77" d="M137.671,259.194c8.04,5.272,19.789,9.665,32.158,9.665c18.347,0,29.066-10.324,29.066-25.262
						c0-13.84-7.421-21.748-26.181-29.436c-22.676-8.565-36.693-21.082-36.693-41.943c0-23.061,17.935-40.195,44.939-40.195
						c14.224,0,24.53,3.515,30.716,7.249l-4.948,15.597c-4.534-2.636-13.811-7.029-26.386-7.029
						c-18.966,0-26.18,12.081-26.18,22.182c0,13.834,8.451,20.643,27.623,28.548c23.5,9.662,35.457,21.741,35.457,43.489
						c0,22.845-15.874,42.615-48.65,42.615c-13.399,0-28.036-4.174-35.457-9.445L137.671,259.194z"/>
				</g>
			</g>
			<g>
				<g>
					<path fill="#014F77" d="M136.621,258.144c8.04,5.272,19.789,9.666,32.158,9.666c18.347,0,29.066-10.325,29.066-25.263
						c0-13.839-7.421-21.747-26.18-29.435c-22.676-8.565-36.694-21.083-36.694-41.943c0-23.061,17.935-40.195,44.939-40.195
						c14.224,0,24.531,3.515,30.716,7.249l-4.948,15.597c-4.535-2.636-13.812-7.029-26.386-7.029
						c-18.966,0-26.18,12.082-26.18,22.183c0,13.834,8.452,20.643,27.623,28.548c23.5,9.662,35.457,21.741,35.457,43.489
						c0,22.845-15.874,42.615-48.65,42.615c-13.399,0-28.035-4.174-35.457-9.445L136.621,258.144z"/>
				</g>
			</g>
			<g>
				<g>
					<path fill="#014F77" d="M135.569,257.093c8.04,5.272,19.789,9.666,32.158,9.666c18.347,0,29.066-10.324,29.066-25.263
						c0-13.839-7.421-21.747-26.181-29.435c-22.675-8.565-36.693-21.082-36.693-41.943c0-23.061,17.935-40.195,44.939-40.195
						c14.224,0,24.531,3.515,30.715,7.249l-4.947,15.597c-4.536-2.636-13.812-7.029-26.386-7.029
						c-18.966,0-26.18,12.082-26.18,22.183c0,13.834,8.452,20.643,27.623,28.548c23.5,9.662,35.457,21.742,35.457,43.489
						c0,22.845-15.873,42.616-48.65,42.616c-13.399,0-28.035-4.174-35.457-9.446L135.569,257.093z"/>
				</g>
			</g>
			<g>
				<g>
					<path fill="#014F77" d="M134.519,256.043c8.04,5.271,19.789,9.665,32.158,9.665c18.347,0,29.067-10.324,29.067-25.263
						c0-13.839-7.422-21.746-26.181-29.435c-22.676-8.565-36.693-21.082-36.693-41.943c0-23.062,17.935-40.196,44.939-40.196
						c14.225,0,24.531,3.515,30.715,7.249l-4.947,15.597c-4.535-2.636-13.812-7.029-26.386-7.029
						c-18.966,0-26.18,12.082-26.18,22.184c0,13.834,8.451,20.643,27.623,28.548c23.5,9.662,35.457,21.742,35.457,43.489
						c0,22.845-15.874,42.616-48.65,42.616c-13.399,0-28.036-4.174-35.457-9.446L134.519,256.043z"/>
				</g>
			</g>
			<g>
				<g>
					<path fill="#014F77" d="M133.468,254.992c8.04,5.272,19.789,9.665,32.158,9.665c18.347,0,29.066-10.324,29.066-25.263
						c0-13.839-7.422-21.746-26.181-29.435c-22.676-8.565-36.693-21.082-36.693-41.943c0-23.062,17.935-40.196,44.939-40.196
						c14.224,0,24.53,3.515,30.715,7.249l-4.947,15.597c-4.535-2.636-13.812-7.029-26.386-7.029
						c-18.966,0-26.18,12.082-26.18,22.184c0,13.834,8.451,20.643,27.623,28.548c23.5,9.662,35.457,21.741,35.457,43.489
						c0,22.845-15.874,42.615-48.65,42.615c-13.399,0-28.036-4.174-35.457-9.445L133.468,254.992z"/>
				</g>
			</g>
			<g>
				<g>
					<path fill="#014F77" d="M132.417,253.941c8.04,5.272,19.789,9.666,32.158,9.666c18.347,0,29.066-10.325,29.066-25.263
						c0-13.839-7.422-21.747-26.181-29.436c-22.675-8.565-36.693-21.082-36.693-41.943c0-23.063,17.935-40.196,44.939-40.196
						c14.224,0,24.531,3.515,30.715,7.249l-4.947,15.597c-4.536-2.636-13.812-7.029-26.386-7.029
						c-18.966,0-26.18,12.082-26.18,22.184c0,13.834,8.452,20.643,27.623,28.548c23.5,9.662,35.457,21.742,35.457,43.49
						c0,22.845-15.873,42.615-48.65,42.615c-13.399,0-28.036-4.174-35.457-9.445L132.417,253.941z"/>
				</g>
			</g>
			<g>
				<g>
					<path fill="#014F77" d="M131.367,252.891c8.04,5.272,19.789,9.666,32.158,9.666c18.347,0,29.067-10.324,29.067-25.263
						c0-13.839-7.422-21.747-26.181-29.435c-22.676-8.565-36.693-21.082-36.693-41.943c0-23.062,17.935-40.197,44.939-40.197
						c14.224,0,24.531,3.514,30.715,7.249l-4.947,15.597c-4.535-2.636-13.812-7.029-26.386-7.029
						c-18.966,0-26.18,12.082-26.18,22.184c0,13.834,8.451,20.643,27.623,28.548c23.5,9.662,35.457,21.742,35.457,43.489
						c0,22.845-15.874,42.616-48.65,42.616c-13.399,0-28.036-4.174-35.457-9.446L131.367,252.891z"/>
				</g>
			</g>
			<g>
				<g>
					<path fill="#014F77" d="M130.315,251.84c8.039,5.272,19.789,9.666,32.158,9.666c18.347,0,29.067-10.324,29.067-25.263
						c0-13.839-7.422-21.747-26.181-29.435c-22.676-8.565-36.693-21.082-36.693-41.943c0-23.063,17.935-40.197,44.939-40.197
						c14.224,0,24.531,3.515,30.715,7.249l-4.947,15.597c-4.535-2.636-13.812-7.029-26.386-7.029
						c-18.966,0-26.18,12.082-26.18,22.185c0,13.834,8.451,20.643,27.623,28.548c23.5,9.662,35.457,21.742,35.457,43.489
						c0,22.845-15.874,42.616-48.65,42.616c-13.399,0-28.036-4.175-35.457-9.446L130.315,251.84z"/>
				</g>
			</g>
			<g>
				<g>
					<path fill="#014F77" d="M129.265,250.79c8.04,5.272,19.789,9.665,32.158,9.665c18.347,0,29.066-10.324,29.066-25.263
						c0-13.838-7.422-21.746-26.181-29.435c-22.675-8.565-36.693-21.082-36.693-41.943c0-23.063,17.935-40.198,44.939-40.198
						c14.224,0,24.53,3.515,30.715,7.249l-4.947,15.597c-4.536-2.636-13.812-7.029-26.386-7.029
						c-18.966,0-26.18,12.082-26.18,22.185c0,13.834,8.452,20.643,27.623,28.548c23.5,9.662,35.457,21.742,35.457,43.489
						c0,22.846-15.874,42.616-48.65,42.616c-13.399,0-28.036-4.174-35.457-9.445L129.265,250.79z"/>
				</g>
			</g>
			<g>
				<g>
					<path fill="#014F77" d="M128.213,249.739c8.04,5.272,19.789,9.666,32.158,9.666c18.347,0,29.066-10.325,29.066-25.263
						c0-13.839-7.422-21.747-26.181-29.436c-22.675-8.565-36.693-21.082-36.693-41.943c0-23.063,17.935-40.197,44.939-40.197
						c14.223,0,24.531,3.514,30.715,7.249l-4.947,15.597c-4.536-2.636-13.812-7.029-26.387-7.029
						c-18.965,0-26.18,12.082-26.18,22.186c0,13.834,8.452,20.643,27.623,28.548c23.5,9.662,35.456,21.742,35.456,43.489
						c0,22.846-15.873,42.616-48.649,42.616c-13.399,0-28.036-4.174-35.457-9.445L128.213,249.739z"/>
				</g>
			</g>
			<g>
				<g>
					<path fill="#014F77" d="M127.163,248.688c8.04,5.272,19.789,9.666,32.158,9.666c18.347,0,29.067-10.325,29.067-25.263
						c0-13.838-7.422-21.747-26.181-29.435c-22.676-8.565-36.693-21.082-36.693-41.943c0-23.064,17.935-40.198,44.939-40.198
						c14.224,0,24.531,3.514,30.715,7.249l-4.947,15.597c-4.535-2.636-13.812-7.029-26.386-7.029
						c-18.966,0-26.18,12.082-26.18,22.186c0,13.834,8.451,20.643,27.623,28.548c23.5,9.662,35.456,21.742,35.456,43.489
						c0,22.845-15.873,42.616-48.649,42.616c-13.399,0-28.036-4.175-35.457-9.446L127.163,248.688z"/>
				</g>
			</g>
			<g>
				<g>
					<path fill="#014F77" d="M126.111,247.638c8.04,5.272,19.789,9.666,32.158,9.666c18.347,0,29.067-10.324,29.067-25.263
						c0-13.838-7.422-21.747-26.181-29.435c-22.676-8.565-36.693-21.082-36.693-41.943c0-23.064,17.935-40.198,44.939-40.198
						c14.224,0,24.531,3.514,30.715,7.249l-4.947,15.597c-4.535-2.636-13.812-7.029-26.386-7.029
						c-18.966,0-26.18,12.082-26.18,22.187c0,13.834,8.451,20.643,27.623,28.548c23.5,9.662,35.456,21.742,35.456,43.489
						c0,22.845-15.873,42.616-48.649,42.616c-13.399,0-28.036-4.175-35.457-9.446L126.111,247.638z"/>
				</g>
			</g>
			<g>
				<g>
					<path fill="#014F77" d="M125.061,246.588c8.04,5.271,19.789,9.665,32.158,9.665c18.347,0,29.066-10.324,29.066-25.263
						c0-13.838-7.422-21.746-26.181-29.435c-22.676-8.565-36.693-21.082-36.693-41.943c0-23.064,17.935-40.199,44.939-40.199
						c14.223,0,24.53,3.515,30.715,7.249l-4.947,15.597c-4.536-2.636-13.812-7.029-26.387-7.029
						c-18.965,0-26.18,12.082-26.18,22.186c0,13.835,8.452,20.643,27.623,28.548c23.5,9.662,35.456,21.742,35.456,43.489
						c0,22.846-15.873,42.616-48.649,42.616c-13.399,0-28.036-4.174-35.457-9.445L125.061,246.588z"/>
				</g>
			</g>
			<g>
				<g>
					<path fill="#014F77" d="M124.01,245.537c8.04,5.272,19.789,9.666,32.158,9.666c18.347,0,29.066-10.325,29.066-25.263
						c0-13.839-7.422-21.747-26.181-29.436c-22.676-8.565-36.693-21.082-36.693-41.943c0-23.065,17.935-40.199,44.939-40.199
						c14.223,0,24.53,3.515,30.715,7.249l-4.947,15.597c-4.535-2.636-13.811-7.029-26.386-7.029
						c-18.965,0-26.18,12.082-26.18,22.187c0,13.835,8.452,20.643,27.624,28.548c23.5,9.662,35.456,21.742,35.456,43.489
						c0,22.846-15.873,42.616-48.649,42.616c-13.399,0-28.036-4.174-35.457-9.445L124.01,245.537z"/>
				</g>
			</g>
			<g>
				<g>
					<path fill="#014F77" d="M122.959,244.486c8.04,5.272,19.789,9.666,32.158,9.666c18.347,0,29.066-10.325,29.066-25.263
						c0-13.838-7.422-21.747-26.18-29.435c-22.676-8.565-36.694-21.083-36.694-41.943c0-23.065,17.935-40.2,44.939-40.2
						c14.224,0,24.531,3.515,30.715,7.249l-4.947,15.597c-4.535-2.636-13.812-7.029-26.386-7.029
						c-18.966,0-26.181,12.082-26.181,22.187c0,13.835,8.452,20.643,27.624,28.548c23.5,9.662,35.456,21.742,35.456,43.489
						c0,22.845-15.873,42.616-48.649,42.616c-13.4,0-28.036-4.175-35.457-9.446L122.959,244.486z"/>
				</g>
			</g>
			<g>
				<g>
					<path fill="#014F77" d="M121.908,243.436c8.04,5.272,19.789,9.666,32.158,9.666c18.346,0,29.066-10.324,29.066-25.263
						c0-13.838-7.421-21.747-26.18-29.435c-22.676-8.565-36.693-21.082-36.693-41.943c0-23.066,17.935-40.2,44.939-40.2
						c14.224,0,24.531,3.514,30.715,7.249l-4.947,15.597c-4.535-2.636-13.812-7.029-26.386-7.029
						c-18.966,0-26.181,12.082-26.181,22.187c0,13.835,8.452,20.643,27.624,28.549c23.5,9.662,35.456,21.742,35.456,43.489
						c0,22.845-15.873,42.615-48.649,42.615c-13.4,0-28.036-4.174-35.457-9.445L121.908,243.436z"/>
				</g>
			</g>
			<g>
				<g>
					<path fill="#014F77" d="M120.857,242.385c8.04,5.272,19.789,9.666,32.158,9.666c18.346,0,29.065-10.324,29.065-25.263
						c0-13.839-7.421-21.747-26.18-29.435c-22.676-8.565-36.693-21.082-36.693-41.944c0-23.066,17.935-40.201,44.939-40.201
						c14.223,0,24.53,3.515,30.715,7.25l-4.947,15.597c-4.535-2.636-13.812-7.029-26.386-7.029
						c-18.966,0-26.181,12.083-26.181,22.188c0,13.836,8.453,20.643,27.624,28.549c23.5,9.662,35.456,21.742,35.456,43.489
						c0,22.846-15.873,42.616-48.649,42.616c-13.399,0-28.036-4.174-35.457-9.445L120.857,242.385z"/>
				</g>
			</g>
			<g>
				<g>
					<path fill="#014F77" d="M119.806,241.335c8.04,5.272,19.789,9.665,32.158,9.665c18.346,0,29.066-10.324,29.066-25.262
						c0-13.839-7.421-21.748-26.18-29.436c-22.676-8.565-36.693-21.082-36.693-41.944c0-23.066,17.935-40.201,44.939-40.201
						c14.223,0,24.53,3.515,30.715,7.25l-4.947,15.597c-4.535-2.636-13.811-7.03-26.386-7.03c-18.966,0-26.181,12.083-26.181,22.188
						c0,13.836,8.453,20.644,27.624,28.55c23.5,9.662,35.456,21.742,35.456,43.489c0,22.846-15.874,42.616-48.65,42.616
						c-13.398,0-28.035-4.174-35.456-9.445L119.806,241.335z"/>
				</g>
			</g>
			<g>
				<g>
					<path fill="#014F77" d="M118.755,240.284c8.04,5.272,19.789,9.666,32.158,9.666c18.346,0,29.066-10.325,29.066-25.263
						c0-13.839-7.421-21.748-26.18-29.436c-22.676-8.565-36.694-21.082-36.694-41.944c0-23.066,17.935-40.201,44.939-40.201
						c14.224,0,24.531,3.515,30.715,7.25l-4.947,15.597c-4.535-2.636-13.812-7.029-26.386-7.029
						c-18.966,0-26.181,12.083-26.181,22.188c0,13.837,8.452,20.644,27.624,28.55c23.5,9.662,35.456,21.742,35.456,43.488
						c0,22.846-15.874,42.616-48.65,42.616c-13.399,0-28.035-4.174-35.456-9.445L118.755,240.284z"/>
				</g>
			</g>
			<g>
				<g>
					<path fill="#014F77" d="M117.704,239.233c8.04,5.272,19.79,9.666,32.158,9.666c18.347,0,29.066-10.325,29.066-25.263
						c0-13.839-7.421-21.748-26.18-29.435c-22.675-8.565-36.693-21.082-36.693-41.945c0-23.066,17.935-40.201,44.939-40.201
						c14.224,0,24.531,3.515,30.715,7.25l-4.947,15.597c-4.536-2.636-13.812-7.03-26.386-7.03
						c-18.966,0-26.181,12.083-26.181,22.188c0,13.836,8.452,20.645,27.624,28.55c23.5,9.662,35.456,21.742,35.456,43.488
						c0,22.846-15.874,42.616-48.65,42.616c-13.399,0-28.035-4.174-35.456-9.445L117.704,239.233z"/>
				</g>
			</g>
			<g>
				<g>
					<path fill="#014F77" d="M116.653,238.183c8.041,5.272,19.79,9.666,32.158,9.666c18.347,0,29.066-10.324,29.066-25.263
						c0-13.839-7.421-21.747-26.18-29.435c-22.676-8.565-36.693-21.082-36.693-41.945c0-23.066,17.935-40.201,44.939-40.201
						c14.224,0,24.531,3.515,30.715,7.25l-4.947,15.597c-4.535-2.636-13.812-7.029-26.386-7.029
						c-18.966,0-26.181,12.082-26.181,22.188c0,13.837,8.452,20.645,27.624,28.55c23.5,9.662,35.456,21.742,35.456,43.489
						c0,22.846-15.873,42.616-48.65,42.616c-13.398,0-28.035-4.174-35.456-9.445L116.653,238.183z"/>
				</g>
			</g>
			<g>
				<g>
					<path fill="#014F77" d="M115.602,237.133c8.041,5.271,19.79,9.665,32.158,9.665c18.347,0,29.066-10.324,29.066-25.263
						c0-13.838-7.421-21.747-26.18-29.435c-22.676-8.565-36.693-21.082-36.693-41.945c0-23.066,17.935-40.201,44.939-40.201
						c14.223,0,24.53,3.515,30.715,7.25l-4.947,15.597c-4.535-2.636-13.812-7.029-26.386-7.029
						c-18.966,0-26.181,12.083-26.181,22.188c0,13.837,8.452,20.646,27.623,28.551c23.5,9.662,35.457,21.742,35.457,43.489
						c0,22.846-15.873,42.616-48.65,42.616c-13.398,0-28.035-4.174-35.456-9.445L115.602,237.133z"/>
				</g>
			</g>
			<g>
				<g>
					<path fill="#014F77" d="M114.551,236.082c8.04,5.272,19.79,9.666,32.158,9.666c18.347,0,29.067-10.325,29.067-25.263
						c0-13.839-7.421-21.748-26.18-29.436c-22.675-8.565-36.693-21.082-36.693-41.946c0-23.065,17.935-40.2,44.939-40.2
						c14.224,0,24.531,3.515,30.715,7.25l-4.947,15.597c-4.536-2.636-13.812-7.029-26.386-7.029
						c-18.966,0-26.181,12.083-26.181,22.188c0,13.838,8.452,20.646,27.623,28.551c23.5,9.662,35.457,21.742,35.457,43.489
						c0,22.845-15.874,42.615-48.65,42.615c-13.399,0-28.035-4.174-35.456-9.445L114.551,236.082z"/>
				</g>
			</g>
			<g>
				<g>
					<path fill="#014F77" d="M113.5,235.031c8.04,5.272,19.79,9.666,32.158,9.666c18.347,0,29.067-10.325,29.067-25.263
						c0-13.839-7.421-21.748-26.18-29.435c-22.675-8.565-36.693-21.082-36.693-41.946c0-23.066,17.935-40.201,44.939-40.201
						c14.223,0,24.531,3.515,30.715,7.25l-4.947,15.597c-4.536-2.636-13.812-7.03-26.386-7.03
						c-18.966,0-26.181,12.082-26.181,22.188c0,13.838,8.452,20.646,27.623,28.552c23.5,9.662,35.457,21.742,35.457,43.489
						c0,22.845-15.874,42.615-48.65,42.615c-13.399,0-28.035-4.174-35.456-9.445L113.5,235.031z"/>
				</g>
			</g>
			<g>
				<g>
					<path fill="#014F77" d="M112.449,233.98c8.04,5.272,19.79,9.666,32.158,9.666c18.347,0,29.066-10.324,29.066-25.263
						c0-13.839-7.421-21.747-26.18-29.435c-22.676-8.565-36.693-21.082-36.693-41.947c0-23.066,17.935-40.201,44.939-40.201
						c14.224,0,24.531,3.515,30.715,7.25l-4.947,15.597c-4.535-2.636-13.812-7.03-26.386-7.03
						c-18.966,0-26.181,12.082-26.181,22.188c0,13.839,8.452,20.646,27.623,28.552c23.5,9.662,35.457,21.742,35.457,43.489
						c0,22.845-15.873,42.616-48.65,42.616c-13.398,0-28.035-4.174-35.456-9.445L112.449,233.98z"/>
				</g>
			</g>
			<g>
				<g>
					<path fill="#014F77" d="M111.398,232.931c8.04,5.271,19.79,9.665,32.158,9.665c18.347,0,29.066-10.324,29.066-25.263
						c0-13.838-7.421-21.747-26.18-29.435c-22.676-8.565-36.693-21.082-36.693-41.947c0-23.065,17.935-40.2,44.939-40.2
						c14.224,0,24.531,3.515,30.715,7.25l-4.947,15.597c-4.535-2.636-13.812-7.029-26.386-7.029
						c-18.966,0-26.181,12.082-26.181,22.188c0,13.839,8.452,20.647,27.623,28.553c23.5,9.662,35.457,21.742,35.457,43.489
						c0,22.846-15.874,42.616-48.65,42.616c-13.398,0-28.035-4.174-35.456-9.445L111.398,232.931z"/>
				</g>
			</g>
			<g>
				<g>
					<path fill="#014F77" d="M110.348,231.88c8.04,5.272,19.79,9.665,32.158,9.665c18.347,0,29.067-10.324,29.067-25.262
						c0-13.839-7.421-21.748-26.18-29.435c-22.675-8.565-36.693-21.082-36.693-41.948c0-23.066,17.935-40.2,44.939-40.2
						c14.223,0,24.531,3.515,30.715,7.25l-4.947,15.597c-4.536-2.636-13.812-7.029-26.386-7.029
						c-18.966,0-26.181,12.082-26.181,22.188c0,13.84,8.452,20.647,27.623,28.553c23.5,9.662,35.457,21.741,35.457,43.489
						c0,22.845-15.874,42.616-48.65,42.616c-13.399,0-28.035-4.174-35.456-9.445L110.348,231.88z"/>
				</g>
			</g>
			<g>
				<g>
					<path fill="#014F77" d="M109.296,230.829c8.041,5.272,19.79,9.666,32.158,9.666c18.347,0,29.067-10.325,29.067-25.263
						c0-13.839-7.421-21.748-26.18-29.435c-22.675-8.565-36.693-21.083-36.693-41.948c0-23.066,17.935-40.201,44.939-40.201
						c14.223,0,24.53,3.515,30.715,7.25l-4.947,15.597c-4.535-2.637-13.811-7.03-26.386-7.03c-18.966,0-26.181,12.082-26.181,22.188
						c0,13.84,8.452,20.648,27.623,28.554c23.5,9.662,35.457,21.741,35.457,43.489c0,22.845-15.874,42.616-48.65,42.616
						c-13.399,0-28.035-4.174-35.456-9.445L109.296,230.829z"/>
				</g>
			</g>
			<g>
				<g>
					<path fill="#014F77" d="M108.246,229.778c8.04,5.272,19.79,9.666,32.158,9.666c18.347,0,29.066-10.324,29.066-25.263
						c0-13.839-7.421-21.748-26.18-29.435c-22.676-8.565-36.693-21.082-36.693-41.948c0-23.066,17.935-40.201,44.939-40.201
						c14.224,0,24.531,3.515,30.715,7.25l-4.947,15.597c-4.535-2.637-13.812-7.03-26.386-7.03
						c-18.966,0-26.181,12.082-26.181,22.187c0,13.84,8.452,20.648,27.623,28.554c23.5,9.662,35.457,21.742,35.457,43.489
						c0,22.845-15.874,42.616-48.65,42.616c-13.398,0-28.035-4.174-35.456-9.446L108.246,229.778z"/>
				</g>
			</g>
			<g>
				<g>
					<path fill="#014F77" d="M107.194,228.729c8.04,5.271,19.79,9.665,32.158,9.665c18.347,0,29.066-10.324,29.066-25.262
						c0-13.839-7.421-21.748-26.18-29.435c-22.676-8.565-36.693-21.082-36.693-41.949c0-23.066,17.934-40.201,44.939-40.201
						c14.224,0,24.531,3.516,30.715,7.25l-4.947,15.597c-4.535-2.637-13.812-7.029-26.386-7.029
						c-18.966,0-26.181,12.082-26.181,22.187c0,13.841,8.452,20.649,27.623,28.555c23.5,9.662,35.457,21.742,35.457,43.489
						c0,22.845-15.874,42.616-48.65,42.616c-13.398,0-28.035-4.174-35.457-9.445L107.194,228.729z"/>
				</g>
			</g>
			<g>
				<g>
					<path fill="#014F77" d="M106.144,227.678c8.041,5.272,19.79,9.665,32.158,9.665c18.347,0,29.067-10.324,29.067-25.262
						c0-13.839-7.421-21.748-26.18-29.435c-22.676-8.565-36.693-21.082-36.693-41.949c0-23.066,17.934-40.2,44.939-40.2
						c14.223,0,24.53,3.515,30.715,7.25l-4.947,15.597c-4.535-2.637-13.811-7.029-26.386-7.029c-18.965,0-26.18,12.082-26.18,22.187
						c0,13.839,8.452,20.649,27.623,28.555c23.5,9.662,35.457,21.741,35.457,43.489c0,22.845-15.874,42.616-48.65,42.616
						c-13.399,0-28.035-4.174-35.457-9.445L106.144,227.678z"/>
				</g>
			</g>
			<g>
				<g>
					<path fill="#014F77" d="M105.093,226.627c8.04,5.272,19.79,9.666,32.158,9.666c18.347,0,29.066-10.325,29.066-25.263
						c0-13.839-7.421-21.748-26.18-29.436c-22.676-8.564-36.694-21.082-36.694-41.948c0-23.066,17.934-40.201,44.939-40.201
						c14.224,0,24.531,3.515,30.715,7.25l-4.947,15.597c-4.535-2.637-13.812-7.03-26.386-7.03
						c-18.966,0-26.181,12.082-26.181,22.187c0,13.84,8.452,20.65,27.623,28.555c23.5,9.662,35.457,21.742,35.457,43.489
						c0,22.845-15.874,42.616-48.65,42.616c-13.399,0-28.035-4.174-35.457-9.445L105.093,226.627z"/>
				</g>
			</g>
			<g>
				<g>
					<path fill="#014F77" d="M104.042,225.576c8.04,5.272,19.79,9.666,32.158,9.666c18.347,0,29.066-10.324,29.066-25.263
						c0-13.839-7.421-21.748-26.18-29.436c-22.676-8.564-36.693-21.082-36.693-41.949c0-23.066,17.934-40.201,44.939-40.201
						c14.224,0,24.531,3.515,30.715,7.25l-4.947,15.597c-4.535-2.637-13.812-7.03-26.386-7.03
						c-18.966,0-26.181,12.082-26.181,22.187c0,13.84,8.452,20.65,27.623,28.555c23.5,9.662,35.457,21.742,35.457,43.489
						c0,22.845-15.874,42.616-48.65,42.616c-13.399,0-28.035-4.174-35.457-9.446L104.042,225.576z"/>
				</g>
			</g>
			<g>
				<g>
					<path fill="#014F77" d="M102.991,224.525c8.04,5.272,19.79,9.666,32.158,9.666c18.347,0,29.066-10.324,29.066-25.263
						c0-13.839-7.421-21.747-26.18-29.436c-22.676-8.564-36.693-21.082-36.693-41.949c0-23.066,17.934-40.201,44.939-40.201
						c14.223,0,24.53,3.515,30.715,7.25l-4.947,15.597c-4.535-2.637-13.812-7.029-26.386-7.029
						c-18.966,0-26.181,12.082-26.181,22.187c0,13.84,8.453,20.65,27.623,28.556c23.5,9.662,35.457,21.742,35.457,43.489
						c0,22.845-15.873,42.616-48.649,42.616c-13.4,0-28.035-4.175-35.457-9.446L102.991,224.525z"/>
				</g>
			</g>
			<g>
				<g>
					<path fill="#014F77" d="M101.94,223.476c8.04,5.272,19.79,9.665,32.158,9.665c18.347,0,29.067-10.324,29.067-25.262
						c0-13.839-7.421-21.748-26.18-29.436c-22.676-8.564-36.693-21.081-36.693-41.95c0-23.065,17.934-40.2,44.939-40.2
						c14.223,0,24.53,3.515,30.715,7.25l-4.947,15.597c-4.535-2.637-13.811-7.029-26.386-7.029
						c-18.966,0-26.181,12.082-26.181,22.187c0,13.84,8.453,20.65,27.623,28.556c23.5,9.662,35.457,21.742,35.457,43.489
						c0,22.845-15.874,42.616-48.65,42.616c-13.4,0-28.035-4.174-35.457-9.445L101.94,223.476z"/>
				</g>
			</g>
			<g>
				<g>
					<path fill="#014F77" d="M100.89,222.425c8.04,5.272,19.79,9.666,32.158,9.666c18.347,0,29.066-10.325,29.066-25.263
						c0-13.839-7.421-21.747-26.18-29.436c-22.676-8.564-36.694-21.082-36.694-41.951c0-23.065,17.934-40.2,44.939-40.2
						c14.224,0,24.531,3.515,30.715,7.25l-4.947,15.597c-4.535-2.637-13.812-7.029-26.386-7.029
						c-18.966,0-26.181,12.082-26.181,22.187c0,13.839,8.452,20.65,27.623,28.557c23.5,9.662,35.457,21.742,35.457,43.489
						c0,22.845-15.874,42.616-48.65,42.616c-13.399,0-28.035-4.174-35.457-9.445L100.89,222.425z"/>
				</g>
			</g>
			<g>
				<g>
					<path fill="#014F77" d="M99.838,221.374c8.04,5.272,19.79,9.666,32.158,9.666c18.347,0,29.066-10.325,29.066-25.263
						c0-13.839-7.421-21.748-26.18-29.436c-22.675-8.564-36.693-21.082-36.693-41.95c0-23.065,17.934-40.2,44.939-40.2
						c14.224,0,24.531,3.515,30.715,7.25l-4.947,15.597c-4.536-2.637-13.812-7.03-26.386-7.03
						c-18.966,0-26.181,12.082-26.181,22.187c0,13.84,8.452,20.65,27.623,28.557c23.5,9.662,35.457,21.742,35.457,43.489
						c0,22.845-15.874,42.616-48.65,42.616c-13.399,0-28.035-4.174-35.457-9.445L99.838,221.374z"/>
				</g>
			</g>
			<g>
				<g>
					<path fill="#014F77" d="M98.788,220.323c8.04,5.272,19.79,9.666,32.158,9.666c18.347,0,29.066-10.324,29.066-25.263
						c0-13.839-7.421-21.747-26.18-29.436c-22.676-8.564-36.693-21.082-36.693-41.951c0-23.065,17.934-40.2,44.939-40.2
						c14.224,0,24.531,3.515,30.715,7.25l-4.947,15.597c-4.535-2.637-13.812-7.029-26.387-7.029
						c-18.965,0-26.18,12.082-26.18,22.187c0,13.84,8.452,20.65,27.623,28.558c23.5,9.662,35.457,21.742,35.457,43.489
						c0,22.845-15.873,42.616-48.65,42.616c-13.399,0-28.035-4.175-35.457-9.446L98.788,220.323z"/>
				</g>
			</g>
			<g>
				<g>
					<path fill="#014F77" d="M97.736,219.273c8.04,5.271,19.79,9.665,32.158,9.665c18.347,0,29.066-10.324,29.066-25.262
						c0-13.839-7.421-21.748-26.18-29.436c-22.676-8.564-36.693-21.083-36.693-41.951c0-23.065,17.934-40.2,44.938-40.2
						c14.224,0,24.531,3.515,30.716,7.25l-4.947,15.597c-4.535-2.637-13.812-7.029-26.387-7.029
						c-18.965,0-26.18,12.082-26.18,22.187c0,13.839,8.452,20.65,27.623,28.558c23.5,9.662,35.457,21.742,35.457,43.489
						c0,22.845-15.873,42.616-48.65,42.616c-13.399,0-28.035-4.174-35.457-9.445L97.736,219.273z"/>
				</g>
			</g>
			<g>
				<g>
					<path fill="#014F77" d="M96.686,218.223c8.04,5.272,19.79,9.666,32.158,9.666c18.347,0,29.067-10.325,29.067-25.263
						c0-13.839-7.421-21.748-26.18-29.436c-22.675-8.564-36.693-21.083-36.693-41.952c0-23.065,17.934-40.2,44.938-40.2
						c14.225,0,24.532,3.515,30.716,7.25l-4.947,15.597c-4.536-2.637-13.812-7.029-26.387-7.029
						c-18.965,0-26.18,12.082-26.18,22.187c0,13.839,8.452,20.649,27.623,28.558c23.5,9.662,35.457,21.742,35.457,43.489
						c0,22.845-15.874,42.616-48.65,42.616c-13.399,0-28.035-4.174-35.457-9.445L96.686,218.223z"/>
				</g>
			</g>
			<g>
				<g>
					<path fill="#014F77" d="M95.635,217.172c8.04,5.272,19.79,9.666,32.158,9.666c18.347,0,29.067-10.325,29.067-25.263
						c0-13.839-7.421-21.748-26.18-29.436c-22.676-8.564-36.693-21.083-36.693-41.952c0-23.065,17.934-40.2,44.938-40.2
						c14.224,0,24.532,3.515,30.716,7.25l-4.947,15.597c-4.536-2.637-13.813-7.03-26.387-7.03c-18.966,0-26.18,12.082-26.18,22.187
						c0,13.84,8.452,20.65,27.623,28.559c23.5,9.663,35.457,21.742,35.457,43.49c0,22.845-15.874,42.616-48.65,42.616
						c-13.399,0-28.035-4.174-35.457-9.445L95.635,217.172z"/>
				</g>
			</g>
			<g>
				<g>
					<path fill="#014F77" d="M94.584,216.122c8.04,5.272,19.79,9.666,32.158,9.666c18.347,0,29.066-10.325,29.066-25.263
						c0-13.839-7.421-21.748-26.18-29.436c-22.676-8.564-36.693-21.083-36.693-41.953c0-23.065,17.934-40.2,44.938-40.2
						c14.224,0,24.531,3.515,30.716,7.25l-4.947,15.597c-4.535-2.637-13.812-7.03-26.387-7.03c-18.966,0-26.18,12.082-26.18,22.187
						c0,13.84,8.452,20.65,27.623,28.558c23.5,9.663,35.457,21.743,35.457,43.49c0,22.845-15.873,42.616-48.65,42.616
						c-13.399,0-28.035-4.175-35.457-9.446L94.584,216.122z"/>
				</g>
			</g>
			<g>
				<g>
					<path fill="#014F77" d="M93.533,215.071c8.04,5.272,19.79,9.666,32.158,9.666c18.347,0,29.066-10.324,29.066-25.262
						c0-13.839-7.421-21.748-26.181-29.436c-22.675-8.564-36.692-21.083-36.692-41.953c0-23.065,17.934-40.2,44.938-40.2
						c14.224,0,24.531,3.515,30.716,7.25l-4.947,15.597c-4.535-2.637-13.812-7.029-26.387-7.029
						c-18.966,0-26.18,12.082-26.18,22.187c0,13.839,8.452,20.649,27.623,28.558c23.5,9.664,35.457,21.743,35.457,43.491
						c0,22.845-15.874,42.616-48.65,42.616c-13.399,0-28.036-4.175-35.457-9.446L93.533,215.071z"/>
				</g>
			</g>
			<g>
				<g>
					<path fill="#014F77" d="M92.482,214.021c8.039,5.272,19.79,9.665,32.158,9.665c18.347,0,29.067-10.324,29.067-25.262
						c0-13.839-7.421-21.748-26.181-29.436c-22.676-8.564-36.693-21.084-36.693-41.953c0-23.065,17.934-40.2,44.938-40.2
						c14.224,0,24.531,3.515,30.716,7.25l-4.947,15.597c-4.536-2.637-13.813-7.029-26.387-7.029
						c-18.966,0-26.18,12.082-26.18,22.187c0,13.839,8.451,20.649,27.623,28.558c23.5,9.663,35.457,21.742,35.457,43.49
						c0,22.846-15.874,42.617-48.65,42.617c-13.399,0-28.036-4.174-35.457-9.445L92.482,214.021z"/>
				</g>
			</g>
			<g>
				<g>
					<path fill="#014F77" d="M91.431,212.97c8.04,5.272,19.79,9.666,32.158,9.666c18.347,0,29.067-10.325,29.067-25.263
						c0-13.839-7.421-21.748-26.181-29.436c-22.676-8.564-36.693-21.084-36.693-41.954c0-23.065,17.934-40.2,44.938-40.2
						c14.224,0,24.531,3.515,30.716,7.25l-4.948,15.597c-4.535-2.637-13.812-7.03-26.386-7.03c-18.966,0-26.18,12.082-26.18,22.187
						c0,13.84,8.451,20.65,27.623,28.558c23.5,9.664,35.457,21.744,35.457,43.491c0,22.846-15.874,42.616-48.65,42.616
						c-13.399,0-28.036-4.174-35.457-9.445L91.431,212.97z"/>
				</g>
			</g>
			<g>
				<g>
					<path fill="#014F77" d="M90.38,211.919c8.04,5.272,19.79,9.666,32.158,9.666c18.347,0,29.066-10.325,29.066-25.263
						c0-13.839-7.421-21.748-26.181-29.436c-22.675-8.564-36.692-21.085-36.692-41.955c0-23.065,17.934-40.2,44.938-40.2
						c14.224,0,24.53,3.515,30.716,7.25l-4.948,15.596c-4.535-2.636-13.812-7.029-26.387-7.029c-18.965,0-26.18,12.082-26.18,22.187
						c0,13.84,8.452,20.65,27.623,28.559c23.5,9.663,35.457,21.744,35.457,43.491c0,22.845-15.874,42.615-48.65,42.615
						c-13.399,0-28.036-4.174-35.457-9.445L90.38,211.919z"/>
				</g>
			</g>
			<g>
				<g>
					<path fill="#014F77" d="M89.329,210.869c8.04,5.272,19.79,9.666,32.158,9.666c18.347,0,29.066-10.324,29.066-25.263
						c0-13.839-7.421-21.747-26.181-29.436c-22.675-8.564-36.692-21.085-36.692-41.954c0-23.065,17.934-40.2,44.938-40.2
						c14.224,0,24.53,3.516,30.716,7.25l-4.948,15.596c-4.534-2.636-13.811-7.029-26.386-7.029c-18.965,0-26.18,12.082-26.18,22.187
						c0,13.84,8.452,20.65,27.623,28.559c23.5,9.664,35.457,21.745,35.457,43.492c0,22.845-15.874,42.615-48.65,42.615
						c-13.399,0-28.036-4.174-35.457-9.445L89.329,210.869z"/>
				</g>
			</g>
			<g>
				<g>
					<path fill="#014F77" d="M88.278,209.818c8.04,5.272,19.79,9.666,32.158,9.666c18.347,0,29.067-10.324,29.067-25.262
						c0-13.839-7.421-21.748-26.181-29.436c-22.676-8.564-36.693-21.085-36.693-41.955c0-23.065,17.934-40.2,44.938-40.2
						c14.224,0,24.531,3.515,30.716,7.25l-4.948,15.596c-4.535-2.636-13.812-7.029-26.386-7.029
						c-18.966,0-26.18,12.082-26.18,22.187c0,13.839,8.451,20.649,27.623,28.558c23.5,9.664,35.457,21.744,35.457,43.491
						c0,22.846-15.874,42.617-48.65,42.617c-13.399,0-28.036-4.174-35.457-9.445L88.278,209.818z"/>
				</g>
			</g>
			<g>
				<g>
					<path fill="#014F77" d="M87.227,208.768c8.04,5.272,19.79,9.666,32.158,9.666c18.347,0,29.067-10.325,29.067-25.263
						c0-13.839-7.421-21.747-26.181-29.436c-22.676-8.564-36.693-21.086-36.693-41.955c0-23.065,17.934-40.2,44.938-40.2
						c14.224,0,24.531,3.515,30.716,7.25l-4.948,15.596c-4.535-2.636-13.812-7.029-26.386-7.029
						c-18.966,0-26.18,12.082-26.18,22.187c0,13.84,8.452,20.65,27.623,28.558c23.5,9.665,35.457,21.745,35.457,43.492
						c0,22.846-15.874,42.617-48.65,42.617c-13.4,0-28.036-4.174-35.457-9.445L87.227,208.768z"/>
				</g>
			</g>
			<g>
				<g>
					<path fill="#014F77" d="M86.177,207.717c8.04,5.272,19.79,9.666,32.158,9.666c18.347,0,29.066-10.325,29.066-25.263
						c0-13.839-7.421-21.748-26.181-29.436c-22.676-8.565-36.692-21.086-36.692-41.956c0-23.065,17.934-40.2,44.938-40.2
						c14.224,0,24.53,3.515,30.716,7.25l-4.948,15.596c-4.534-2.636-13.811-7.029-26.386-7.029c-18.965,0-26.18,12.082-26.18,22.187
						c0,13.84,8.452,20.65,27.623,28.558c23.5,9.665,35.457,21.745,35.457,43.492c0,22.846-15.874,42.616-48.65,42.616
						c-13.399,0-28.036-4.174-35.457-9.445L86.177,207.717z"/>
				</g>
			</g>
			<g>
				<g>
					<path fill="#014F77" d="M85.125,206.667c8.04,5.272,19.789,9.666,32.158,9.666c18.347,0,29.066-10.325,29.066-25.263
						c0-13.839-7.421-21.747-26.181-29.436c-22.676-8.565-36.693-21.087-36.693-41.956c0-23.065,17.934-40.2,44.939-40.2
						c14.224,0,24.53,3.515,30.716,7.25l-4.948,15.596c-4.534-2.636-13.811-7.029-26.386-7.029c-18.966,0-26.18,12.082-26.18,22.187
						c0,13.84,8.452,20.65,27.623,28.559c23.5,9.665,35.457,21.745,35.457,43.493c0,22.846-15.874,42.616-48.65,42.616
						c-13.399,0-28.036-4.174-35.457-9.445L85.125,206.667z"/>
				</g>
			</g>
			<g>
				<g>
					<path fill="#014F77" d="M84.075,205.616c8.04,5.272,19.789,9.666,32.158,9.666c18.347,0,29.066-10.324,29.066-25.262
						c0-13.839-7.421-21.748-26.18-29.436c-22.676-8.566-36.694-21.087-36.694-41.956c0-23.066,17.935-40.2,44.939-40.2
						c14.224,0,24.531,3.515,30.716,7.249l-4.948,15.597c-4.535-2.636-13.812-7.028-26.386-7.028
						c-18.966,0-26.18,12.082-26.18,22.187c0,13.84,8.452,20.649,27.623,28.558c23.5,9.666,35.457,21.746,35.457,43.494
						c0,22.846-15.874,42.617-48.65,42.617c-13.4,0-28.036-4.174-35.457-9.445L84.075,205.616z"/>
				</g>
			</g>
			<g>
				<g>
					<path fill="#014F77" d="M83.023,204.565c8.04,5.272,19.789,9.666,32.158,9.666c18.347,0,29.066-10.325,29.066-25.263
						c0-13.839-7.421-21.748-26.18-29.436c-22.676-8.566-36.694-21.087-36.694-41.957c0-23.066,17.935-40.2,44.939-40.2
						c14.224,0,24.531,3.515,30.715,7.249l-4.947,15.597c-4.535-2.636-13.812-7.029-26.386-7.029
						c-18.966,0-26.18,12.082-26.18,22.187c0,13.839,8.452,20.649,27.623,28.558c23.5,9.666,35.457,21.747,35.457,43.494
						c0,22.846-15.873,42.617-48.649,42.617c-13.4,0-28.036-4.174-35.457-9.445L83.023,204.565z"/>
				</g>
			</g>
			<g>
				<g>
					<path fill="#014F77" d="M81.973,203.515c8.04,5.272,19.789,9.666,32.158,9.666c18.347,0,29.066-10.325,29.066-25.263
						c0-13.839-7.421-21.748-26.181-29.436c-22.676-8.566-36.693-21.088-36.693-41.957c0-23.066,17.935-40.2,44.939-40.2
						c14.224,0,24.53,3.515,30.715,7.249l-4.947,15.597c-4.534-2.636-13.812-7.029-26.386-7.029
						c-18.966,0-26.18,12.082-26.18,22.187c0,13.84,8.452,20.649,27.623,28.558c23.5,9.666,35.457,21.747,35.457,43.494
						c0,22.846-15.874,42.616-48.65,42.616c-13.399,0-28.036-4.174-35.457-9.445L81.973,203.515z"/>
				</g>
			</g>
			<g>
				<g>
					<path fill="#014F77" d="M80.922,202.464c8.04,5.272,19.789,9.666,32.158,9.666c18.347,0,29.066-10.325,29.066-25.263
						c0-13.839-7.422-21.747-26.181-29.436c-22.676-8.567-36.693-21.088-36.693-41.957c0-23.066,17.935-40.2,44.939-40.2
						c14.224,0,24.53,3.515,30.715,7.249l-4.947,15.597c-4.535-2.636-13.812-7.028-26.386-7.028
						c-18.966,0-26.18,12.082-26.18,22.187c0,13.84,8.452,20.649,27.623,28.558c23.5,9.666,35.457,21.748,35.457,43.495
						c0,22.846-15.874,42.616-48.65,42.616c-13.399,0-28.036-4.174-35.457-9.445L80.922,202.464z"/>
				</g>
			</g>
			<g>
				<g>
					<path fill="#014F77" d="M79.871,201.414c8.04,5.272,19.789,9.666,32.158,9.666c18.347,0,29.066-10.324,29.066-25.262
						c0-13.839-7.422-21.748-26.181-29.437c-22.675-8.567-36.693-21.088-36.693-41.957c0-23.066,17.935-40.2,44.939-40.2
						c14.224,0,24.531,3.515,30.715,7.249l-4.947,15.597c-4.536-2.636-13.812-7.029-26.386-7.029
						c-18.966,0-26.18,12.082-26.18,22.187c0,13.84,8.452,20.649,27.623,28.558c23.5,9.666,35.457,21.748,35.457,43.495
						c0,22.846-15.873,42.617-48.65,42.617c-13.399,0-28.035-4.174-35.457-9.445L79.871,201.414z"/>
				</g>
			</g>
		</g>
	</g>
</g>
<path fill="#4EBFEE" d="M79.871,201.414c8.04,5.272,19.789,9.666,32.158,9.666c18.347,0,29.066-10.324,29.066-25.262
	c0-13.839-7.422-21.748-26.181-29.437c-22.675-8.567-36.693-21.088-36.693-41.957c0-23.066,17.935-40.2,44.939-40.2
	c14.224,0,24.531,3.515,30.715,7.249l-4.947,15.597c-4.536-2.636-13.812-7.029-26.386-7.029c-18.966,0-26.18,12.082-26.18,22.187
	c0,13.84,8.452,20.649,27.623,28.558c23.5,9.666,35.457,21.748,35.457,43.495c0,22.846-15.873,42.617-48.65,42.617
	c-13.399,0-28.035-4.174-35.457-9.445L79.871,201.414z"/>
<path fill="none" stroke="#48A2DA" stroke-width="9" stroke-miterlimit="10" d="M77.604,43.617C81.15,21.443,100.366,4.5,123.54,4.5
	c24.615,0,44.765,19.116,46.414,43.313"/>
<g>
	<path fill="#FFFFFF" d="M251.464,170.418c5.145,3.167,12.665,5.805,20.581,5.805c11.742,0,18.602-6.2,18.602-15.171
		c0-8.312-4.75-13.061-16.755-17.678c-14.512-5.146-23.483-12.665-23.483-25.198c0-13.853,11.478-24.143,28.76-24.143
		c9.103,0,15.7,2.111,19.657,4.354l-3.166,9.367c-2.902-1.583-8.839-4.222-16.887-4.222c-12.137,0-16.755,7.256-16.755,13.325
		c0,8.312,5.409,12.401,17.678,17.15c15.04,5.805,22.692,13.061,22.692,26.122c0,13.72-10.159,25.594-31.135,25.594
		c-8.575,0-17.942-2.507-22.691-5.673L251.464,170.418z"/>
	<path fill="#FFFFFF" d="M393.019,145.352c-0.659-12.401-1.451-27.309-1.319-38.391h-0.396
		c-3.034,10.422-6.729,21.504-11.214,33.773l-15.699,43.141h-8.707l-14.38-42.349c-4.222-12.533-7.784-24.011-10.291-34.565h-0.264
		c-0.264,11.082-0.924,25.99-1.715,39.314l-2.375,38.127h-10.95l6.201-88.919h14.644l15.172,43.008
		c3.694,10.95,6.729,20.712,8.971,29.947h0.396c2.242-8.971,5.409-18.733,9.366-29.947l15.832-43.008h14.644l5.541,88.919h-11.214
		L393.019,145.352z"/>
	<path fill="#FFFFFF" d="M437.208,156.434l-9.234,27.969H416.1l30.212-88.919h13.853l30.343,88.919h-12.269l-9.499-27.969H437.208z
		 M466.364,147.463l-8.707-25.594c-1.979-5.805-3.298-11.082-4.617-16.227h-0.265c-1.319,5.277-2.771,10.686-4.485,16.095
		l-8.707,25.726H466.364z"/>
	<path fill="#FFFFFF" d="M503.563,96.671c5.805-1.187,14.116-1.847,22.032-1.847c12.27,0,20.185,2.243,25.726,7.256
		c4.485,3.958,6.992,10.026,6.992,16.887c0,11.742-7.388,19.525-16.755,22.691v0.396c6.86,2.375,10.95,8.707,13.061,17.942
		c2.902,12.401,5.014,20.977,6.86,24.407h-11.873c-1.451-2.507-3.431-10.158-5.937-21.24c-2.639-12.27-7.389-16.887-17.811-17.283
		h-10.818v38.523h-11.478V96.671z M515.041,137.173h11.742c12.269,0,20.053-6.729,20.053-16.887
		c0-11.478-8.312-16.491-20.449-16.623c-5.541,0-9.498,0.528-11.346,1.056V137.173z"/>
	<path fill="#FFFFFF" d="M592.608,105.247h-27.045v-9.763h65.832v9.763h-27.178v79.156h-11.609V105.247z"/>
	<path fill="#FFFFFF" d="M638.911,170.418c5.146,3.167,12.665,5.805,20.581,5.805c11.741,0,18.602-6.2,18.602-15.171
		c0-8.312-4.75-13.061-16.755-17.678c-14.512-5.146-23.483-12.665-23.483-25.198c0-13.853,11.478-24.143,28.761-24.143
		c9.103,0,15.699,2.111,19.657,4.354l-3.167,9.367c-2.902-1.583-8.839-4.222-16.887-4.222c-12.137,0-16.755,7.256-16.755,13.325
		c0,8.312,5.409,12.401,17.679,17.15c15.04,5.805,22.691,13.061,22.691,26.122c0,13.72-10.158,25.594-31.135,25.594
		c-8.575,0-17.942-2.507-22.691-5.673L638.911,170.418z"/>
	<path fill="#FFFFFF" d="M717.008,95.484v37.203h43.009V95.484h11.609v88.919h-11.609v-41.689h-43.009v41.689H705.53V95.484H717.008
		z"/>
	<path fill="#FFFFFF" d="M867.532,139.02c0,30.607-18.602,46.834-41.293,46.834c-23.483,0-39.975-18.206-39.975-45.119
		c0-28.232,17.547-46.702,41.294-46.702C851.833,94.033,867.532,112.634,867.532,139.02z M798.534,140.471
		c0,18.998,10.29,36.016,28.364,36.016c18.206,0,28.496-16.754,28.496-36.939c0-17.678-9.234-36.148-28.364-36.148
		C808.033,103.399,798.534,120.946,798.534,140.471z"/>
	<path fill="#FFFFFF" d="M882.435,96.539c5.541-0.923,12.797-1.715,22.032-1.715c11.346,0,19.657,2.638,24.934,7.388
		c4.882,4.222,7.784,10.686,7.784,18.602c0,8.047-2.375,14.38-6.86,18.998c-6.068,6.464-15.963,9.762-27.177,9.762
		c-3.431,0-6.597-0.132-9.235-0.792v35.621h-11.478V96.539z M893.912,139.416c2.507,0.66,5.673,0.923,9.499,0.923
		c13.853,0,22.296-6.728,22.296-18.998c0-11.741-8.312-17.414-20.977-17.414c-5.014,0-8.839,0.396-10.818,0.923V139.416z"/>
</g>
</svg>
