<?xml version="1.0" encoding="utf-8"?>
<!-- Generator: Adobe Illustrator 16.0.3, SVG Export Plug-In . SVG Version: 6.00 Build 0)  -->
<!DOCTYPE svg PUBLIC "-//W3C//DTD SVG 1.1//EN" "http://www.w3.org/Graphics/SVG/1.1/DTD/svg11.dtd">
<svg version="1.1" id="Layer_1" xmlns="http://www.w3.org/2000/svg" xmlns:xlink="http://www.w3.org/1999/xlink" x="0px" y="0px"
	 width="315.892px" height="376.229px" viewBox="0 0 315.892 376.229" enable-background="new 0 0 315.892 376.229"
	 xml:space="preserve">
<polygon fill="#47A2DA" points="277.31,41.2 38.582,41.2 0,301.504 0,376.229 315.892,376.229 315.892,301.504 "/>
<g>
	<defs>
		<polygon id="SVGID_1_" points="277.31,41.2 38.582,41.2 0,301.504 0,376.229 315.892,376.229 315.892,301.504 		"/>
	</defs>
	<clipPath id="SVGID_2_">
		<use xlink:href="#SVGID_1_"  overflow="visible"/>
	</clipPath>
	<g opacity="0.1" clip-path="url(#SVGID_2_)">
		<path fill="#0C141F" d="M37.89,41.695L316.274,300.85l28.281,89.795l-71.334,20.666H7.889l-60.667-30.666v-240
			c0,0,67.333-104.666,69.333-103.333S37.89,41.695,37.89,41.695z"/>
	</g>
</g>
<g opacity="0.2">
	<defs>
		<polygon id="SVGID_3_" opacity="0.2" points="277.31,41.2 38.582,41.2 0,301.504 0,376.229 315.892,376.229 315.892,301.504 		"/>
	</defs>
	<clipPath id="SVGID_4_">
		<use xlink:href="#SVGID_3_"  overflow="visible"/>
	</clipPath>
	<g opacity="0.9" clip-path="url(#SVGID_4_)">
		<polyline fill="#0C141F" points="277.31,41.2 -34.03,339.977 8.537,406.645 294.966,406.645 368.556,360.645 341.14,148.645 		"/>
	</g>
</g>
<g>
	<defs>
		<polygon id="SVGID_5_" points="277.31,41.2 38.582,41.2 0,301.504 0,376.229 315.892,376.229 315.892,301.504 		"/>
	</defs>
	<clipPath id="SVGID_6_">
		<use xlink:href="#SVGID_5_"  overflow="visible"/>
	</clipPath>
	<polyline clip-path="url(#SVGID_6_)" fill="#016B96" points="0.405,306.932 316.274,300.85 325.89,427.311 22.556,427.311 
		-82.111,349.311 	"/>
</g>
<g>
	<defs>
		<polygon id="SVGID_7_" points="277.31,41.2 38.582,41.2 0,301.504 0,376.229 315.892,376.229 315.892,301.504 		"/>
	</defs>
	<clipPath id="SVGID_8_">
		<use xlink:href="#SVGID_7_"  overflow="visible"/>
	</clipPath>
	<g opacity="0.5" clip-path="url(#SVGID_8_)">
		<g>
			<g>
				<path fill="#004E76" d="M320.352,482.647c10.844,7.111,26.692,13.037,43.375,13.037c24.746,0,39.205-13.926,39.205-34.074
					c0-18.666-10.01-29.333-35.312-39.703c-30.585-11.552-49.492-28.435-49.492-56.573c0-31.1,24.19-54.203,60.614-54.203
					c19.185,0,33.087,4.739,41.429,9.774l-6.673,21.03c-6.117-3.555-18.629-9.479-35.59-9.479
					c-25.581,0-35.312,16.291-35.312,29.915c0,18.66,11.4,27.843,37.258,38.506c31.697,13.032,47.824,29.325,47.824,58.658
					c0,30.814-21.41,57.481-65.619,57.481c-18.073,0-37.814-5.63-47.824-12.74L320.352,482.647z"/>
			</g>
		</g>
		<g>
			<g>
				<path fill="#004E76" d="M318.935,481.23c10.844,7.111,26.692,13.037,43.375,13.037c24.746,0,39.205-13.926,39.205-34.074
					c0-18.666-10.01-29.333-35.312-39.703c-30.585-11.552-49.492-28.435-49.492-56.573c0-31.1,24.19-54.203,60.614-54.203
					c19.185,0,33.087,4.739,41.429,9.774l-6.673,21.03c-6.117-3.555-18.629-9.479-35.59-9.479
					c-25.581,0-35.312,16.291-35.312,29.915c0,18.66,11.4,27.843,37.258,38.506c31.697,13.032,47.824,29.325,47.824,58.658
					c0,30.814-21.41,57.481-65.619,57.481c-18.073,0-37.814-5.63-47.824-12.74L318.935,481.23z"/>
			</g>
		</g>
		<g>
			<g>
				<path fill="#004E76" d="M317.517,479.813c10.844,7.111,26.692,13.037,43.375,13.037c24.746,0,39.205-13.926,39.205-34.074
					c0-18.666-10.01-29.333-35.312-39.703c-30.585-11.552-49.492-28.435-49.492-56.573c0-31.1,24.19-54.203,60.614-54.203
					c19.185,0,33.087,4.739,41.429,9.774l-6.673,21.03c-6.117-3.555-18.629-9.479-35.59-9.479
					c-25.581,0-35.312,16.291-35.312,29.915c0,18.66,11.4,27.843,37.258,38.506c31.697,13.032,47.824,29.325,47.824,58.658
					c0,30.814-21.41,57.481-65.619,57.481c-18.073,0-37.814-5.63-47.824-12.74L317.517,479.813z"/>
			</g>
		</g>
		<g>
			<g>
				<path fill="#004E76" d="M316.1,478.396c10.844,7.111,26.692,13.037,43.375,13.037c24.746,0,39.205-13.926,39.205-34.074
					c0-18.666-10.01-29.333-35.312-39.703c-30.585-11.552-49.492-28.435-49.492-56.573c0-31.1,24.19-54.203,60.614-54.203
					c19.185,0,33.087,4.739,41.429,9.774l-6.673,21.03c-6.117-3.555-18.629-9.479-35.59-9.479
					c-25.581,0-35.312,16.291-35.312,29.915c0,18.66,11.4,27.843,37.258,38.506c31.697,13.032,47.824,29.325,47.824,58.658
					c0,30.814-21.41,57.481-65.619,57.481c-18.073,0-37.814-5.63-47.824-12.74L316.1,478.396z"/>
			</g>
		</g>
		<g>
			<g>
				<path fill="#004E76" d="M314.682,476.979c10.844,7.111,26.692,13.037,43.375,13.037c24.746,0,39.205-13.926,39.205-34.074
					c0-18.666-10.01-29.333-35.312-39.703c-30.585-11.552-49.492-28.435-49.492-56.573c0-31.1,24.19-54.203,60.614-54.203
					c19.185,0,33.087,4.739,41.429,9.774l-6.673,21.03c-6.117-3.555-18.629-9.479-35.59-9.479
					c-25.581,0-35.312,16.291-35.312,29.915c0,18.66,11.4,27.843,37.258,38.506c31.697,13.032,47.824,29.325,47.824,58.658
					c0,30.814-21.41,57.481-65.619,57.481c-18.073,0-37.814-5.63-47.824-12.74L314.682,476.979z"/>
			</g>
		</g>
		<g>
			<g>
				<path fill="#004E76" d="M313.265,475.562c10.844,7.111,26.692,13.037,43.375,13.037c24.746,0,39.205-13.926,39.205-34.074
					c0-18.666-10.01-29.333-35.312-39.703c-30.585-11.552-49.492-28.435-49.492-56.573c0-31.1,24.19-54.203,60.614-54.203
					c19.185,0,33.087,4.739,41.429,9.774l-6.673,21.03c-6.117-3.555-18.629-9.479-35.59-9.479
					c-25.581,0-35.312,16.291-35.312,29.915c0,18.66,11.4,27.843,37.258,38.506c31.697,13.032,47.824,29.325,47.824,58.658
					c0,30.814-21.41,57.481-65.619,57.481c-18.073,0-37.814-5.63-47.824-12.74L313.265,475.562z"/>
			</g>
		</g>
		<g>
			<g>
				<path fill="#004E76" d="M311.847,474.145c10.844,7.111,26.692,13.037,43.375,13.037c24.746,0,39.205-13.926,39.205-34.074
					c0-18.666-10.01-29.333-35.312-39.703c-30.585-11.552-49.492-28.435-49.492-56.573c0-31.1,24.19-54.203,60.614-54.203
					c19.185,0,33.087,4.739,41.429,9.774l-6.673,21.03c-6.117-3.555-18.629-9.479-35.59-9.479
					c-25.581,0-35.312,16.291-35.312,29.915c0,18.66,11.4,27.843,37.258,38.506c31.697,13.032,47.824,29.325,47.824,58.658
					c0,30.814-21.41,57.481-65.619,57.481c-18.073,0-37.814-5.63-47.824-12.74L311.847,474.145z"/>
			</g>
		</g>
		<g>
			<g>
				<path fill="#004E76" d="M310.43,472.728c10.844,7.111,26.692,13.037,43.375,13.037c24.746,0,39.205-13.926,39.205-34.074
					c0-18.666-10.01-29.333-35.312-39.703c-30.585-11.552-49.492-28.435-49.492-56.573c0-31.1,24.19-54.203,60.614-54.203
					c19.185,0,33.087,4.739,41.429,9.774l-6.673,21.03c-6.117-3.555-18.629-9.479-35.59-9.479
					c-25.581,0-35.312,16.291-35.312,29.915c0,18.66,11.4,27.843,37.258,38.506c31.697,13.032,47.824,29.325,47.824,58.658
					c0,30.814-21.41,57.481-65.619,57.481c-18.073,0-37.814-5.63-47.824-12.74L310.43,472.728z"/>
			</g>
		</g>
		<g>
			<g>
				<path fill="#004E76" d="M309.012,471.311c10.844,7.111,26.692,13.037,43.375,13.037c24.746,0,39.205-13.926,39.205-34.074
					c0-18.666-10.01-29.333-35.312-39.703c-30.585-11.552-49.492-28.435-49.492-56.573c0-31.1,24.19-54.203,60.614-54.203
					c19.185,0,33.087,4.739,41.429,9.774l-6.673,21.03c-6.117-3.555-18.629-9.479-35.59-9.479
					c-25.581,0-35.312,16.291-35.312,29.915c0,18.66,11.4,27.843,37.258,38.506c31.697,13.032,47.824,29.325,47.824,58.658
					c0,30.814-21.41,57.481-65.619,57.481c-18.073,0-37.814-5.63-47.824-12.74L309.012,471.311z"/>
			</g>
		</g>
		<g>
			<g>
				<path fill="#004E76" d="M307.595,469.894c10.844,7.111,26.692,13.037,43.375,13.037c24.746,0,39.205-13.926,39.205-34.074
					c0-18.666-10.01-29.333-35.312-39.703c-30.585-11.552-49.492-28.435-49.492-56.573c0-31.1,24.19-54.203,60.614-54.203
					c19.185,0,33.087,4.739,41.429,9.774l-6.673,21.03c-6.117-3.555-18.629-9.479-35.59-9.479
					c-25.581,0-35.312,16.291-35.312,29.915c0,18.66,11.4,27.843,37.258,38.506c31.697,13.032,47.824,29.325,47.824,58.658
					c0,30.814-21.41,57.481-65.619,57.481c-18.073,0-37.814-5.63-47.824-12.74L307.595,469.894z"/>
			</g>
		</g>
		<g>
			<g>
				<path fill="#004E76" d="M306.177,468.477c10.844,7.111,26.692,13.037,43.375,13.037c24.746,0,39.205-13.926,39.205-34.074
					c0-18.666-10.01-29.333-35.312-39.703c-30.585-11.552-49.492-28.435-49.492-56.573c0-31.1,24.19-54.203,60.614-54.203
					c19.185,0,33.087,4.739,41.429,9.774l-6.673,21.03c-6.117-3.555-18.629-9.479-35.59-9.479
					c-25.581,0-35.312,16.291-35.312,29.915c0,18.66,11.4,27.843,37.258,38.506c31.697,13.032,47.824,29.325,47.824,58.658
					c0,30.814-21.41,57.481-65.619,57.481c-18.073,0-37.814-5.63-47.824-12.74L306.177,468.477z"/>
			</g>
		</g>
		<g>
			<g>
				<path fill="#004E76" d="M304.76,467.06c10.844,7.111,26.692,13.037,43.375,13.037c24.746,0,39.205-13.926,39.205-34.074
					c0-18.666-10.01-29.333-35.312-39.703c-30.585-11.552-49.492-28.435-49.492-56.573c0-31.1,24.19-54.203,60.614-54.203
					c19.185,0,33.087,4.739,41.429,9.774l-6.673,21.03c-6.117-3.555-18.629-9.479-35.59-9.479
					c-25.581,0-35.312,16.291-35.312,29.915c0,18.66,11.4,27.843,37.258,38.506c31.697,13.032,47.824,29.325,47.824,58.658
					c0,30.814-21.41,57.481-65.619,57.481c-18.073,0-37.814-5.63-47.824-12.74L304.76,467.06z"/>
			</g>
		</g>
		<g>
			<g>
				<path fill="#004E76" d="M303.342,465.643c10.844,7.111,26.692,13.037,43.375,13.037c24.746,0,39.205-13.926,39.205-34.074
					c0-18.666-10.01-29.333-35.312-39.703c-30.585-11.552-49.492-28.435-49.492-56.573c0-31.1,24.19-54.203,60.614-54.203
					c19.185,0,33.087,4.739,41.429,9.774l-6.673,21.03c-6.117-3.555-18.629-9.479-35.59-9.479
					c-25.581,0-35.312,16.291-35.312,29.915c0,18.66,11.4,27.843,37.258,38.506c31.697,13.032,47.824,29.325,47.824,58.658
					c0,30.814-21.41,57.481-65.619,57.481c-18.073,0-37.814-5.63-47.824-12.74L303.342,465.643z"/>
			</g>
		</g>
		<g>
			<g>
				<path fill="#004E76" d="M301.925,464.226c10.844,7.111,26.692,13.037,43.375,13.037c24.746,0,39.205-13.926,39.205-34.074
					c0-18.666-10.01-29.333-35.312-39.703c-30.585-11.552-49.492-28.435-49.492-56.573c0-31.1,24.19-54.203,60.614-54.203
					c19.185,0,33.087,4.739,41.429,9.774l-6.673,21.03c-6.117-3.555-18.629-9.479-35.59-9.479
					c-25.581,0-35.312,16.291-35.312,29.915c0,18.66,11.4,27.843,37.258,38.506c31.697,13.032,47.824,29.325,47.824,58.658
					c0,30.814-21.41,57.481-65.619,57.481c-18.073,0-37.814-5.63-47.824-12.74L301.925,464.226z"/>
			</g>
		</g>
		<g>
			<g>
				<path fill="#004E76" d="M300.507,462.809c10.844,7.111,26.692,13.037,43.375,13.037c24.746,0,39.205-13.926,39.205-34.074
					c0-18.666-10.01-29.333-35.312-39.703c-30.585-11.552-49.492-28.435-49.492-56.573c0-31.1,24.19-54.203,60.614-54.203
					c19.185,0,33.087,4.739,41.429,9.774l-6.673,21.03c-6.117-3.555-18.629-9.479-35.59-9.479
					c-25.581,0-35.312,16.291-35.312,29.915c0,18.66,11.4,27.843,37.258,38.506c31.697,13.032,47.824,29.325,47.824,58.658
					c0,30.814-21.41,57.481-65.619,57.481c-18.073,0-37.814-5.63-47.824-12.74L300.507,462.809z"/>
			</g>
		</g>
		<g>
			<g>
				<path fill="#004E76" d="M299.09,461.392c10.844,7.111,26.692,13.037,43.375,13.037c24.746,0,39.205-13.926,39.205-34.074
					c0-18.666-10.01-29.333-35.312-39.703c-30.585-11.552-49.492-28.435-49.492-56.573c0-31.1,24.19-54.203,60.614-54.203
					c19.185,0,33.087,4.739,41.429,9.774l-6.673,21.03c-6.117-3.555-18.629-9.479-35.59-9.479
					c-25.581,0-35.312,16.291-35.312,29.915c0,18.66,11.4,27.843,37.258,38.506c31.697,13.032,47.824,29.325,47.824,58.658
					c0,30.814-21.41,57.481-65.619,57.481c-18.073,0-37.814-5.63-47.824-12.74L299.09,461.392z"/>
			</g>
		</g>
		<g>
			<g>
				<path fill="#004E76" d="M297.672,459.975c10.844,7.111,26.692,13.037,43.375,13.037c24.746,0,39.205-13.926,39.205-34.074
					c0-18.666-10.01-29.333-35.312-39.703c-30.585-11.552-49.492-28.435-49.492-56.573c0-31.1,24.19-54.203,60.614-54.203
					c19.185,0,33.087,4.739,41.429,9.774l-6.673,21.03c-6.117-3.555-18.629-9.479-35.59-9.479
					c-25.581,0-35.312,16.291-35.312,29.915c0,18.66,11.4,27.843,37.258,38.506c31.697,13.032,47.824,29.325,47.824,58.658
					c0,30.814-21.41,57.481-65.619,57.481c-18.073,0-37.814-5.63-47.824-12.74L297.672,459.975z"/>
			</g>
		</g>
		<g>
			<g>
				<path fill="#004E76" d="M296.255,458.558c10.844,7.111,26.692,13.037,43.375,13.037c24.746,0,39.205-13.926,39.205-34.074
					c0-18.666-10.01-29.333-35.312-39.703c-30.585-11.552-49.492-28.435-49.492-56.573c0-31.1,24.19-54.203,60.614-54.203
					c19.185,0,33.087,4.739,41.429,9.774l-6.673,21.03c-6.117-3.555-18.629-9.479-35.59-9.479
					c-25.581,0-35.312,16.291-35.312,29.915c0,18.66,11.4,27.843,37.258,38.506c31.697,13.032,47.824,29.325,47.824,58.658
					c0,30.814-21.41,57.481-65.619,57.481c-18.073,0-37.814-5.63-47.824-12.74L296.255,458.558z"/>
			</g>
		</g>
		<g>
			<g>
				<path fill="#004E76" d="M294.837,457.141c10.844,7.111,26.692,13.037,43.375,13.037c24.746,0,39.205-13.926,39.205-34.074
					c0-18.666-10.01-29.333-35.312-39.703c-30.585-11.552-49.492-28.435-49.492-56.573c0-31.1,24.19-54.203,60.614-54.203
					c19.185,0,33.087,4.739,41.429,9.774l-6.673,21.03c-6.117-3.555-18.629-9.479-35.59-9.479
					c-25.581,0-35.312,16.291-35.312,29.915c0,18.66,11.4,27.843,37.258,38.506c31.697,13.032,47.824,29.325,47.824,58.658
					c0,30.814-21.41,57.481-65.619,57.481c-18.073,0-37.814-5.63-47.824-12.74L294.837,457.141z"/>
			</g>
		</g>
		<g>
			<g>
				<path fill="#004E76" d="M293.42,455.724c10.844,7.111,26.692,13.037,43.375,13.037c24.746,0,39.205-13.926,39.205-34.074
					c0-18.666-10.01-29.333-35.312-39.703c-30.585-11.552-49.492-28.435-49.492-56.573c0-31.1,24.19-54.203,60.614-54.203
					c19.185,0,33.087,4.739,41.429,9.774l-6.673,21.03c-6.117-3.555-18.629-9.479-35.59-9.479
					c-25.581,0-35.312,16.291-35.312,29.915c0,18.66,11.4,27.843,37.258,38.506c31.697,13.032,47.824,29.325,47.824,58.658
					c0,30.814-21.41,57.481-65.619,57.481c-18.073,0-37.814-5.63-47.824-12.74L293.42,455.724z"/>
			</g>
		</g>
		<g>
			<g>
				<path fill="#004E76" d="M292.002,454.307c10.844,7.111,26.692,13.037,43.375,13.037c24.746,0,39.205-13.926,39.205-34.074
					c0-18.666-10.01-29.333-35.312-39.703c-30.585-11.552-49.492-28.435-49.492-56.573c0-31.1,24.19-54.203,60.614-54.203
					c19.185,0,33.087,4.739,41.429,9.774l-6.673,21.03c-6.117-3.555-18.629-9.479-35.59-9.479
					c-25.581,0-35.312,16.291-35.312,29.915c0,18.66,11.4,27.843,37.258,38.506c31.697,13.032,47.824,29.325,47.824,58.658
					c0,30.814-21.41,57.481-65.619,57.481c-18.073,0-37.814-5.63-47.824-12.74L292.002,454.307z"/>
			</g>
		</g>
		<g>
			<g>
				<path fill="#004E76" d="M290.585,452.89c10.844,7.111,26.692,13.037,43.375,13.037c24.746,0,39.205-13.926,39.205-34.074
					c0-18.666-10.01-29.333-35.312-39.703c-30.585-11.552-49.492-28.435-49.492-56.573c0-31.1,24.19-54.203,60.614-54.203
					c19.185,0,33.087,4.739,41.429,9.774l-6.673,21.03c-6.117-3.555-18.629-9.479-35.59-9.479
					c-25.581,0-35.312,16.291-35.312,29.915c0,18.66,11.4,27.843,37.258,38.506c31.697,13.032,47.824,29.325,47.824,58.658
					c0,30.814-21.41,57.481-65.619,57.481c-18.073,0-37.814-5.63-47.824-12.74L290.585,452.89z"/>
			</g>
		</g>
		<g>
			<g>
				<path fill="#004E76" d="M289.167,451.473c10.844,7.111,26.692,13.037,43.375,13.037c24.746,0,39.205-13.926,39.205-34.074
					c0-18.666-10.01-29.333-35.312-39.703c-30.585-11.552-49.492-28.435-49.492-56.573c0-31.1,24.19-54.203,60.614-54.203
					c19.185,0,33.087,4.739,41.429,9.774l-6.673,21.03c-6.117-3.555-18.629-9.479-35.59-9.479
					c-25.581,0-35.312,16.291-35.312,29.915c0,18.66,11.4,27.843,37.258,38.506c31.697,13.032,47.824,29.325,47.824,58.658
					c0,30.814-21.41,57.481-65.619,57.481c-18.073,0-37.814-5.63-47.824-12.74L289.167,451.473z"/>
			</g>
		</g>
		<g>
			<g>
				<path fill="#004E76" d="M287.75,450.056c10.844,7.111,26.692,13.037,43.375,13.037c24.746,0,39.205-13.926,39.205-34.074
					c0-18.666-10.01-29.333-35.312-39.703c-30.585-11.552-49.492-28.435-49.492-56.573c0-31.1,24.19-54.203,60.614-54.203
					c19.185,0,33.087,4.739,41.429,9.774l-6.673,21.03c-6.117-3.555-18.629-9.479-35.59-9.479
					c-25.581,0-35.312,16.291-35.312,29.915c0,18.66,11.4,27.843,37.258,38.506c31.697,13.032,47.824,29.325,47.824,58.658
					c0,30.814-21.41,57.481-65.619,57.481c-18.073,0-37.814-5.63-47.824-12.74L287.75,450.056z"/>
			</g>
		</g>
		<g>
			<g>
				<path fill="#004E76" d="M286.333,448.639c10.844,7.111,26.692,13.037,43.375,13.037c24.746,0,39.205-13.926,39.205-34.074
					c0-18.666-10.01-29.333-35.312-39.703c-30.585-11.552-49.492-28.435-49.492-56.573c0-31.1,24.19-54.203,60.614-54.203
					c19.185,0,33.087,4.739,41.429,9.774l-6.673,21.03c-6.117-3.555-18.629-9.479-35.59-9.479
					c-25.581,0-35.312,16.291-35.312,29.915c0,18.66,11.4,27.843,37.258,38.506c31.697,13.032,47.824,29.325,47.824,58.658
					c0,30.814-21.41,57.481-65.619,57.481c-18.073,0-37.814-5.63-47.824-12.74L286.333,448.639z"/>
			</g>
		</g>
		<g>
			<g>
				<path fill="#004E76" d="M284.915,447.222c10.844,7.111,26.692,13.037,43.375,13.037c24.746,0,39.205-13.926,39.205-34.074
					c0-18.666-10.01-29.333-35.312-39.703c-30.585-11.552-49.492-28.435-49.492-56.573c0-31.1,24.19-54.203,60.614-54.203
					c19.185,0,33.087,4.739,41.429,9.774l-6.673,21.03c-6.117-3.555-18.629-9.479-35.59-9.479
					c-25.581,0-35.312,16.291-35.312,29.915c0,18.66,11.4,27.843,37.258,38.506c31.697,13.032,47.824,29.325,47.824,58.658
					c0,30.814-21.41,57.481-65.619,57.481c-18.073,0-37.814-5.63-47.824-12.74L284.915,447.222z"/>
			</g>
		</g>
		<g>
			<g>
				<path fill="#004E76" d="M283.498,445.805c10.844,7.111,26.692,13.037,43.375,13.037c24.746,0,39.205-13.926,39.205-34.074
					c0-18.666-10.01-29.333-35.312-39.703c-30.585-11.552-49.492-28.435-49.492-56.573c0-31.1,24.19-54.203,60.614-54.203
					c19.185,0,33.087,4.739,41.429,9.774l-6.673,21.03c-6.117-3.555-18.629-9.479-35.59-9.479
					c-25.581,0-35.312,16.291-35.312,29.915c0,18.66,11.4,27.843,37.258,38.506c31.697,13.032,47.824,29.325,47.824,58.658
					c0,30.814-21.41,57.481-65.619,57.481c-18.073,0-37.814-5.63-47.824-12.74L283.498,445.805z"/>
			</g>
		</g>
		<g>
			<g>
				<path fill="#004E76" d="M282.08,444.388c10.844,7.111,26.692,13.037,43.375,13.037c24.746,0,39.205-13.926,39.205-34.074
					c0-18.666-10.01-29.333-35.312-39.703c-30.585-11.552-49.492-28.435-49.492-56.573c0-31.1,24.19-54.203,60.614-54.203
					c19.185,0,33.087,4.739,41.429,9.774l-6.673,21.03c-6.117-3.555-18.629-9.479-35.59-9.479
					c-25.581,0-35.312,16.291-35.312,29.915c0,18.66,11.4,27.843,37.258,38.506c31.697,13.032,47.824,29.325,47.824,58.658
					c0,30.814-21.41,57.481-65.619,57.481c-18.073,0-37.814-5.63-47.824-12.74L282.08,444.388z"/>
			</g>
		</g>
		<g>
			<g>
				<path fill="#004E76" d="M280.663,442.971c10.844,7.111,26.692,13.037,43.375,13.037c24.746,0,39.205-13.926,39.205-34.074
					c0-18.666-10.01-29.333-35.312-39.703c-30.585-11.552-49.492-28.435-49.492-56.573c0-31.1,24.19-54.203,60.614-54.203
					c19.185,0,33.087,4.739,41.429,9.774l-6.673,21.03c-6.117-3.555-18.629-9.479-35.59-9.479
					c-25.581,0-35.312,16.291-35.312,29.915c0,18.66,11.4,27.843,37.258,38.506c31.697,13.032,47.824,29.325,47.824,58.658
					c0,30.814-21.41,57.481-65.619,57.481c-18.073,0-37.814-5.63-47.824-12.74L280.663,442.971z"/>
			</g>
		</g>
		<g>
			<g>
				<path fill="#004E76" d="M279.245,441.554c10.844,7.111,26.692,13.037,43.375,13.037c24.746,0,39.205-13.926,39.205-34.074
					c0-18.666-10.01-29.333-35.312-39.703c-30.585-11.552-49.492-28.435-49.492-56.573c0-31.1,24.19-54.203,60.614-54.203
					c19.185,0,33.087,4.739,41.429,9.774l-6.673,21.03c-6.117-3.555-18.629-9.479-35.59-9.479
					c-25.581,0-35.312,16.291-35.312,29.915c0,18.66,11.4,27.843,37.258,38.506c31.697,13.032,47.824,29.325,47.824,58.658
					c0,30.814-21.41,57.481-65.619,57.481c-18.073,0-37.814-5.63-47.824-12.74L279.245,441.554z"/>
			</g>
		</g>
		<g>
			<g>
				<path fill="#004E76" d="M277.828,440.137c10.844,7.111,26.692,13.037,43.375,13.037c24.746,0,39.205-13.926,39.205-34.074
					c0-18.666-10.01-29.333-35.312-39.703c-30.585-11.552-49.492-28.435-49.492-56.573c0-31.1,24.19-54.203,60.614-54.203
					c19.185,0,33.087,4.739,41.429,9.774l-6.673,21.03c-6.117-3.555-18.629-9.479-35.59-9.479
					c-25.581,0-35.312,16.291-35.312,29.915c0,18.66,11.4,27.843,37.258,38.506c31.697,13.032,47.824,29.325,47.824,58.658
					c0,30.814-21.41,57.481-65.619,57.481c-18.073,0-37.814-5.63-47.824-12.74L277.828,440.137z"/>
			</g>
		</g>
		<g>
			<g>
				<path fill="#004E76" d="M276.41,438.72c10.844,7.111,26.692,13.037,43.375,13.037c24.746,0,39.205-13.926,39.205-34.074
					c0-18.666-10.01-29.333-35.312-39.703c-30.585-11.552-49.492-28.435-49.492-56.573c0-31.1,24.19-54.203,60.614-54.203
					c19.185,0,33.087,4.739,41.429,9.774l-6.673,21.03c-6.117-3.555-18.629-9.479-35.59-9.479
					c-25.581,0-35.312,16.291-35.312,29.915c0,18.66,11.4,27.843,37.258,38.506c31.697,13.032,47.824,29.325,47.824,58.658
					c0,30.814-21.41,57.481-65.619,57.481c-18.073,0-37.814-5.63-47.824-12.74L276.41,438.72z"/>
			</g>
		</g>
		<g>
			<g>
				<path fill="#004E76" d="M274.993,437.303c10.844,7.111,26.692,13.037,43.375,13.037c24.746,0,39.205-13.926,39.205-34.074
					c0-18.666-10.01-29.333-35.312-39.703c-30.585-11.552-49.492-28.435-49.492-56.573c0-31.1,24.19-54.203,60.614-54.203
					c19.185,0,33.087,4.739,41.429,9.774l-6.673,21.03c-6.117-3.555-18.629-9.479-35.59-9.479
					c-25.581,0-35.312,16.291-35.312,29.915c0,18.66,11.4,27.843,37.258,38.506c31.697,13.032,47.824,29.325,47.824,58.658
					c0,30.814-21.41,57.481-65.619,57.481c-18.073,0-37.814-5.63-47.824-12.74L274.993,437.303z"/>
			</g>
		</g>
		<g>
			<g>
				<path fill="#004E76" d="M273.575,435.886c10.844,7.111,26.692,13.037,43.375,13.037c24.746,0,39.205-13.926,39.205-34.074
					c0-18.666-10.01-29.333-35.312-39.703c-30.585-11.552-49.492-28.435-49.492-56.573c0-31.1,24.19-54.203,60.614-54.203
					c19.185,0,33.087,4.739,41.429,9.774l-6.673,21.03c-6.117-3.555-18.629-9.479-35.59-9.479
					c-25.581,0-35.312,16.291-35.312,29.915c0,18.66,11.4,27.843,37.258,38.506c31.697,13.032,47.824,29.325,47.824,58.658
					c0,30.814-21.41,57.481-65.619,57.481c-18.073,0-37.814-5.63-47.824-12.74L273.575,435.886z"/>
			</g>
		</g>
		<g>
			<g>
				<path fill="#004E76" d="M272.158,434.469c10.844,7.111,26.692,13.037,43.375,13.037c24.746,0,39.205-13.926,39.205-34.074
					c0-18.666-10.01-29.333-35.312-39.703c-30.585-11.552-49.492-28.435-49.492-56.573c0-31.1,24.19-54.203,60.614-54.203
					c19.185,0,33.087,4.739,41.429,9.774l-6.673,21.03c-6.117-3.555-18.629-9.479-35.59-9.479
					c-25.581,0-35.312,16.291-35.312,29.915c0,18.66,11.4,27.843,37.258,38.506c31.697,13.032,47.824,29.325,47.824,58.658
					c0,30.814-21.41,57.481-65.619,57.481c-18.073,0-37.814-5.63-47.824-12.74L272.158,434.469z"/>
			</g>
		</g>
		<g>
			<g>
				<path fill="#004E76" d="M270.74,433.052c10.844,7.111,26.692,13.037,43.375,13.037c24.746,0,39.205-13.926,39.205-34.074
					c0-18.666-10.01-29.333-35.312-39.703c-30.585-11.552-49.492-28.435-49.492-56.573c0-31.1,24.19-54.203,60.614-54.203
					c19.185,0,33.087,4.739,41.429,9.774l-6.673,21.03c-6.117-3.555-18.629-9.479-35.59-9.479
					c-25.581,0-35.312,16.291-35.312,29.915c0,18.66,11.4,27.843,37.258,38.506c31.697,13.032,47.824,29.325,47.824,58.658
					c0,30.814-21.41,57.481-65.619,57.481c-18.073,0-37.814-5.63-47.824-12.74L270.74,433.052z"/>
			</g>
		</g>
		<g>
			<g>
				<path fill="#004E76" d="M269.323,431.635c10.844,7.111,26.692,13.037,43.375,13.037c24.746,0,39.205-13.926,39.205-34.074
					c0-18.666-10.01-29.333-35.312-39.703c-30.585-11.552-49.492-28.435-49.492-56.573c0-31.1,24.19-54.203,60.614-54.203
					c19.185,0,33.087,4.739,41.429,9.774l-6.673,21.03c-6.117-3.555-18.629-9.479-35.59-9.479
					c-25.581,0-35.312,16.291-35.312,29.915c0,18.66,11.4,27.843,37.258,38.506c31.697,13.032,47.824,29.325,47.824,58.658
					c0,30.814-21.41,57.481-65.619,57.481c-18.073,0-37.814-5.63-47.824-12.74L269.323,431.635z"/>
			</g>
		</g>
		<g>
			<g>
				<path fill="#004E76" d="M267.905,430.218c10.844,7.111,26.692,13.037,43.375,13.037c24.746,0,39.205-13.926,39.205-34.074
					c0-18.666-10.01-29.333-35.312-39.703c-30.585-11.552-49.492-28.435-49.492-56.573c0-31.1,24.19-54.203,60.614-54.203
					c19.185,0,33.087,4.739,41.429,9.774l-6.673,21.03c-6.117-3.555-18.629-9.479-35.59-9.479
					c-25.581,0-35.312,16.291-35.312,29.915c0,18.66,11.4,27.843,37.258,38.506c31.697,13.032,47.824,29.325,47.824,58.658
					c0,30.814-21.41,57.481-65.619,57.481c-18.073,0-37.814-5.63-47.824-12.74L267.905,430.218z"/>
			</g>
		</g>
		<g>
			<g>
				<path fill="#004E76" d="M266.488,428.801c10.844,7.111,26.692,13.037,43.375,13.037c24.746,0,39.205-13.926,39.205-34.074
					c0-18.666-10.01-29.333-35.312-39.703c-30.585-11.552-49.492-28.435-49.492-56.573c0-31.1,24.19-54.203,60.614-54.203
					c19.185,0,33.087,4.739,41.429,9.774l-6.673,21.03c-6.117-3.555-18.629-9.479-35.59-9.479
					c-25.581,0-35.312,16.291-35.312,29.915c0,18.66,11.4,27.843,37.258,38.506c31.697,13.032,47.824,29.325,47.824,58.658
					c0,30.814-21.41,57.481-65.619,57.481c-18.073,0-37.814-5.63-47.824-12.74L266.488,428.801z"/>
			</g>
		</g>
		<g>
			<g>
				<path fill="#004E76" d="M265.07,427.384c10.844,7.111,26.692,13.037,43.375,13.037c24.746,0,39.205-13.926,39.205-34.074
					c0-18.666-10.01-29.333-35.312-39.703c-30.585-11.552-49.492-28.435-49.492-56.573c0-31.1,24.19-54.203,60.614-54.203
					c19.185,0,33.087,4.739,41.429,9.774l-6.673,21.03c-6.117-3.555-18.629-9.479-35.59-9.479
					c-25.581,0-35.312,16.291-35.312,29.915c0,18.66,11.4,27.843,37.258,38.506c31.697,13.032,47.824,29.325,47.824,58.658
					c0,30.814-21.41,57.481-65.619,57.481c-18.073,0-37.814-5.63-47.824-12.74L265.07,427.384z"/>
			</g>
		</g>
		<g>
			<g>
				<path fill="#004E76" d="M263.653,425.967c10.844,7.111,26.692,13.037,43.375,13.037c24.746,0,39.205-13.926,39.205-34.074
					c0-18.666-10.01-29.333-35.312-39.703c-30.585-11.552-49.492-28.435-49.492-56.573c0-31.1,24.19-54.203,60.614-54.203
					c19.185,0,33.087,4.739,41.429,9.774l-6.673,21.03c-6.117-3.555-18.629-9.479-35.59-9.479
					c-25.581,0-35.312,16.291-35.312,29.915c0,18.66,11.4,27.843,37.258,38.506c31.697,13.032,47.824,29.325,47.824,58.658
					c0,30.814-21.41,57.481-65.619,57.481c-18.073,0-37.814-5.63-47.824-12.74L263.653,425.967z"/>
			</g>
		</g>
		<g>
			<g>
				<path fill="#004E76" d="M262.235,424.55c10.844,7.111,26.692,13.037,43.375,13.037c24.746,0,39.205-13.926,39.205-34.074
					c0-18.666-10.01-29.333-35.312-39.703c-30.585-11.552-49.492-28.435-49.492-56.573c0-31.1,24.19-54.203,60.614-54.203
					c19.185,0,33.087,4.739,41.429,9.774l-6.673,21.03c-6.117-3.555-18.629-9.479-35.59-9.479
					c-25.581,0-35.312,16.291-35.312,29.915c0,18.66,11.4,27.843,37.258,38.506c31.697,13.032,47.824,29.325,47.824,58.658
					c0,30.814-21.41,57.481-65.619,57.481c-18.073,0-37.814-5.63-47.824-12.74L262.235,424.55z"/>
			</g>
		</g>
		<g>
			<g>
				<path fill="#004E76" d="M260.818,423.133c10.844,7.111,26.692,13.037,43.375,13.037c24.746,0,39.205-13.926,39.205-34.074
					c0-18.666-10.01-29.333-35.312-39.703c-30.585-11.552-49.492-28.435-49.492-56.573c0-31.1,24.19-54.203,60.614-54.203
					c19.185,0,33.087,4.739,41.429,9.774l-6.673,21.03c-6.117-3.555-18.629-9.479-35.59-9.479
					c-25.581,0-35.312,16.291-35.312,29.915c0,18.66,11.4,27.843,37.258,38.506c31.697,13.032,47.824,29.325,47.824,58.658
					c0,30.814-21.41,57.481-65.619,57.481c-18.073,0-37.814-5.63-47.824-12.74L260.818,423.133z"/>
			</g>
		</g>
		<g>
			<g>
				<path fill="#004E76" d="M259.4,421.716c10.844,7.111,26.692,13.037,43.375,13.037c24.746,0,39.205-13.926,39.205-34.074
					c0-18.666-10.01-29.333-35.312-39.703c-30.585-11.552-49.492-28.435-49.492-56.573c0-31.1,24.19-54.203,60.614-54.203
					c19.185,0,33.087,4.739,41.429,9.774l-6.673,21.03c-6.117-3.555-18.629-9.479-35.59-9.479
					c-25.581,0-35.312,16.291-35.312,29.915c0,18.66,11.4,27.843,37.258,38.506c31.697,13.032,47.824,29.325,47.824,58.658
					c0,30.814-21.41,57.481-65.619,57.481c-18.073,0-37.814-5.63-47.824-12.74L259.4,421.716z"/>
			</g>
		</g>
		<g>
			<g>
				<path fill="#004E76" d="M257.983,420.299c10.844,7.111,26.692,13.037,43.375,13.037c24.746,0,39.205-13.926,39.205-34.074
					c0-18.666-10.01-29.333-35.312-39.703c-30.585-11.552-49.492-28.435-49.492-56.573c0-31.1,24.19-54.203,60.614-54.203
					c19.185,0,33.087,4.739,41.429,9.774l-6.673,21.03c-6.117-3.555-18.629-9.479-35.59-9.479
					c-25.581,0-35.312,16.291-35.312,29.915c0,18.66,11.4,27.843,37.258,38.506c31.697,13.032,47.824,29.325,47.824,58.658
					c0,30.814-21.41,57.481-65.619,57.481c-18.073,0-37.814-5.63-47.824-12.74L257.983,420.299z"/>
			</g>
		</g>
		<g>
			<g>
				<path fill="#004E76" d="M256.565,418.882c10.844,7.111,26.692,13.037,43.375,13.037c24.746,0,39.205-13.926,39.205-34.074
					c0-18.666-10.01-29.333-35.312-39.703c-30.585-11.552-49.492-28.435-49.492-56.573c0-31.1,24.19-54.203,60.614-54.203
					c19.185,0,33.087,4.739,41.429,9.774l-6.673,21.03c-6.117-3.555-18.629-9.479-35.59-9.479
					c-25.581,0-35.312,16.291-35.312,29.915c0,18.66,11.4,27.843,37.258,38.506c31.697,13.032,47.824,29.325,47.824,58.658
					c0,30.814-21.41,57.481-65.619,57.481c-18.073,0-37.814-5.63-47.824-12.74L256.565,418.882z"/>
			</g>
		</g>
		<g>
			<g>
				<path fill="#004E76" d="M255.148,417.465c10.844,7.111,26.692,13.037,43.375,13.037c24.746,0,39.205-13.926,39.205-34.074
					c0-18.666-10.01-29.333-35.312-39.703c-30.585-11.552-49.492-28.435-49.492-56.573c0-31.1,24.19-54.203,60.614-54.203
					c19.185,0,33.087,4.739,41.429,9.774l-6.673,21.03c-6.117-3.555-18.629-9.479-35.59-9.479
					c-25.581,0-35.312,16.291-35.312,29.915c0,18.66,11.4,27.843,37.258,38.506c31.697,13.032,47.824,29.325,47.824,58.658
					c0,30.814-21.41,57.481-65.619,57.481c-18.073,0-37.814-5.63-47.824-12.74L255.148,417.465z"/>
			</g>
		</g>
		<g>
			<g>
				<path fill="#004E76" d="M253.73,416.048c10.844,7.111,26.692,13.037,43.375,13.037c24.746,0,39.205-13.926,39.205-34.074
					c0-18.666-10.01-29.333-35.312-39.703c-30.585-11.552-49.492-28.435-49.492-56.573c0-31.1,24.19-54.203,60.614-54.203
					c19.185,0,33.087,4.739,41.429,9.774l-6.673,21.03c-6.117-3.555-18.629-9.479-35.59-9.479
					c-25.581,0-35.312,16.291-35.312,29.915c0,18.66,11.4,27.843,37.258,38.506c31.697,13.032,47.824,29.325,47.824,58.658
					c0,30.814-21.41,57.481-65.619,57.481c-18.073,0-37.814-5.63-47.824-12.74L253.73,416.048z"/>
			</g>
		</g>
		<g>
			<g>
				<path fill="#004E76" d="M252.313,414.631c10.844,7.111,26.692,13.037,43.375,13.037c24.746,0,39.205-13.926,39.205-34.074
					c0-18.666-10.01-29.333-35.312-39.703c-30.585-11.552-49.492-28.435-49.492-56.573c0-31.1,24.19-54.203,60.614-54.203
					c19.185,0,33.087,4.739,41.429,9.774l-6.673,21.03c-6.117-3.555-18.629-9.479-35.59-9.479
					c-25.581,0-35.312,16.291-35.312,29.915c0,18.66,11.4,27.843,37.258,38.506c31.697,13.032,47.824,29.325,47.824,58.658
					c0,30.814-21.41,57.481-65.619,57.481c-18.073,0-37.814-5.63-47.824-12.74L252.313,414.631z"/>
			</g>
		</g>
		<g>
			<g>
				<path fill="#004E76" d="M250.896,413.214c10.844,7.111,26.692,13.037,43.375,13.037c24.746,0,39.205-13.926,39.205-34.074
					c0-18.666-10.01-29.333-35.312-39.703c-30.585-11.552-49.492-28.435-49.492-56.573c0-31.1,24.19-54.203,60.614-54.203
					c19.185,0,33.087,4.739,41.429,9.774l-6.673,21.03c-6.117-3.555-18.629-9.479-35.59-9.479
					c-25.581,0-35.312,16.291-35.312,29.915c0,18.66,11.4,27.843,37.258,38.506c31.697,13.032,47.824,29.325,47.824,58.658
					c0,30.814-21.41,57.481-65.619,57.481c-18.073,0-37.814-5.63-47.824-12.74L250.896,413.214z"/>
			</g>
		</g>
		<g>
			<g>
				<path fill="#004E76" d="M249.478,411.797c10.844,7.111,26.692,13.037,43.375,13.037c24.746,0,39.205-13.926,39.205-34.074
					c0-18.666-10.01-29.333-35.312-39.703c-30.585-11.552-49.492-28.435-49.492-56.573c0-31.1,24.19-54.203,60.614-54.203
					c19.185,0,33.087,4.739,41.429,9.774l-6.673,21.03c-6.117-3.555-18.629-9.479-35.59-9.479
					c-25.581,0-35.312,16.291-35.312,29.915c0,18.66,11.4,27.843,37.258,38.506c31.697,13.032,47.824,29.325,47.824,58.658
					c0,30.814-21.41,57.481-65.619,57.481c-18.073,0-37.814-5.63-47.824-12.74L249.478,411.797z"/>
			</g>
		</g>
		<g>
			<g>
				<path fill="#004E76" d="M248.061,410.38c10.844,7.111,26.692,13.037,43.375,13.037c24.746,0,39.205-13.926,39.205-34.074
					c0-18.666-10.01-29.333-35.312-39.703c-30.585-11.552-49.492-28.435-49.492-56.573c0-31.1,24.19-54.203,60.614-54.203
					c19.185,0,33.087,4.739,41.429,9.774l-6.673,21.03c-6.117-3.555-18.629-9.479-35.59-9.479
					c-25.581,0-35.312,16.291-35.312,29.915c0,18.66,11.4,27.843,37.258,38.506c31.697,13.032,47.824,29.325,47.824,58.658
					c0,30.814-21.41,57.481-65.619,57.481c-18.073,0-37.814-5.63-47.824-12.74L248.061,410.38z"/>
			</g>
		</g>
		<g>
			<g>
				<path fill="#004E76" d="M246.643,408.963C257.487,416.075,273.335,422,290.018,422c24.746,0,39.205-13.926,39.205-34.074
					c0-18.666-10.01-29.333-35.312-39.703c-30.585-11.552-49.492-28.435-49.492-56.573c0-31.1,24.19-54.203,60.614-54.203
					c19.185,0,33.087,4.739,41.429,9.774l-6.673,21.03c-6.117-3.555-18.629-9.479-35.59-9.479
					c-25.581,0-35.312,16.291-35.312,29.915c0,18.66,11.4,27.843,37.258,38.506c31.697,13.032,47.824,29.325,47.824,58.658
					c0,30.814-21.41,57.481-65.619,57.481c-18.073,0-37.814-5.63-47.824-12.74L246.643,408.963z"/>
			</g>
		</g>
		<g>
			<g>
				<path fill="#004E76" d="M245.226,407.546c10.844,7.111,26.692,13.037,43.375,13.037c24.746,0,39.205-13.926,39.205-34.074
					c0-18.666-10.01-29.333-35.312-39.703c-30.585-11.552-49.492-28.435-49.492-56.573c0-31.1,24.19-54.203,60.614-54.203
					c19.185,0,33.087,4.739,41.429,9.774l-6.673,21.03c-6.117-3.555-18.629-9.479-35.59-9.479
					c-25.581,0-35.312,16.291-35.312,29.915c0,18.66,11.4,27.843,37.258,38.506c31.697,13.032,47.824,29.325,47.824,58.658
					c0,30.814-21.41,57.481-65.619,57.481c-18.073,0-37.814-5.63-47.824-12.74L245.226,407.546z"/>
			</g>
		</g>
		<g>
			<g>
				<path fill="#004E76" d="M243.808,406.129c10.844,7.111,26.692,13.037,43.375,13.037c24.746,0,39.205-13.926,39.205-34.074
					c0-18.666-10.01-29.333-35.312-39.703c-30.585-11.552-49.492-28.435-49.492-56.573c0-31.1,24.19-54.203,60.614-54.203
					c19.185,0,33.087,4.739,41.429,9.774l-6.673,21.03c-6.117-3.555-18.629-9.479-35.59-9.479
					c-25.581,0-35.312,16.291-35.312,29.915c0,18.66,11.4,27.843,37.258,38.506c31.697,13.032,47.824,29.325,47.824,58.658
					c0,30.814-21.41,57.481-65.619,57.481c-18.073,0-37.814-5.63-47.824-12.74L243.808,406.129z"/>
			</g>
		</g>
		<g>
			<g>
				<path fill="#004E76" d="M242.391,404.712c10.844,7.111,26.692,13.037,43.375,13.037c24.746,0,39.205-13.926,39.205-34.074
					c0-18.666-10.01-29.333-35.312-39.703c-30.585-11.552-49.492-28.435-49.492-56.573c0-31.1,24.19-54.203,60.614-54.203
					c19.185,0,33.087,4.739,41.429,9.774L335.536,264c-6.117-3.555-18.629-9.479-35.59-9.479c-25.581,0-35.312,16.291-35.312,29.915
					c0,18.66,11.4,27.843,37.258,38.506c31.697,13.032,47.824,29.325,47.824,58.658c0,30.814-21.41,57.481-65.619,57.481
					c-18.073,0-37.814-5.63-47.824-12.74L242.391,404.712z"/>
			</g>
		</g>
		<g>
			<g>
				<path fill="#004E76" d="M240.973,403.295c10.844,7.111,26.692,13.037,43.375,13.037c24.746,0,39.205-13.926,39.205-34.074
					c0-18.666-10.01-29.333-35.312-39.703c-30.585-11.552-49.492-28.435-49.492-56.573c0-31.1,24.19-54.203,60.614-54.203
					c19.185,0,33.087,4.739,41.429,9.774l-6.673,21.03c-6.117-3.555-18.629-9.479-35.59-9.479
					c-25.581,0-35.312,16.291-35.312,29.915c0,18.66,11.4,27.843,37.258,38.506c31.697,13.032,47.824,29.325,47.824,58.658
					c0,30.814-21.41,57.481-65.619,57.481c-18.073,0-37.814-5.63-47.824-12.74L240.973,403.295z"/>
			</g>
		</g>
		<g>
			<g>
				<path fill="#004E76" d="M239.556,401.878c10.844,7.111,26.692,13.037,43.375,13.037c24.746,0,39.205-13.926,39.205-34.074
					c0-18.666-10.01-29.333-35.312-39.703c-30.585-11.552-49.492-28.435-49.492-56.573c0-31.1,24.19-54.203,60.614-54.203
					c19.185,0,33.087,4.739,41.429,9.774l-6.673,21.03c-6.117-3.555-18.629-9.479-35.59-9.479
					c-25.581,0-35.312,16.291-35.312,29.915c0,18.66,11.4,27.843,37.258,38.506c31.697,13.032,47.824,29.325,47.824,58.658
					c0,30.814-21.41,57.481-65.619,57.481c-18.073,0-37.814-5.63-47.824-12.74L239.556,401.878z"/>
			</g>
		</g>
		<g>
			<g>
				<path fill="#004E76" d="M238.138,400.461c10.844,7.111,26.692,13.037,43.375,13.037c24.746,0,39.205-13.926,39.205-34.074
					c0-18.666-10.01-29.333-35.312-39.703c-30.585-11.552-49.492-28.435-49.492-56.573c0-31.1,24.19-54.203,60.614-54.203
					c19.185,0,33.087,4.739,41.429,9.774l-6.673,21.03c-6.117-3.555-18.629-9.479-35.59-9.479
					c-25.581,0-35.312,16.291-35.312,29.915c0,18.66,11.4,27.843,37.258,38.506c31.697,13.032,47.824,29.325,47.824,58.658
					c0,30.814-21.41,57.481-65.619,57.481c-18.073,0-37.814-5.63-47.824-12.74L238.138,400.461z"/>
			</g>
		</g>
		<g>
			<g>
				<path fill="#004E76" d="M236.721,399.044c10.844,7.111,26.692,13.037,43.375,13.037c24.746,0,39.205-13.926,39.205-34.074
					c0-18.666-10.01-29.333-35.312-39.703c-30.585-11.552-49.492-28.435-49.492-56.573c0-31.1,24.19-54.203,60.614-54.203
					c19.185,0,33.087,4.739,41.429,9.774l-6.673,21.03c-6.117-3.555-18.629-9.479-35.59-9.479
					c-25.581,0-35.312,16.291-35.312,29.915c0,18.66,11.4,27.843,37.258,38.506c31.697,13.032,47.824,29.325,47.824,58.658
					c0,30.814-21.41,57.481-65.619,57.481c-18.073,0-37.814-5.63-47.824-12.74L236.721,399.044z"/>
			</g>
		</g>
		<g>
			<g>
				<path fill="#004E76" d="M235.303,397.627c10.844,7.111,26.692,13.037,43.375,13.037c24.746,0,39.205-13.926,39.205-34.074
					c0-18.666-10.01-29.333-35.312-39.703c-30.585-11.552-49.492-28.435-49.492-56.573c0-31.1,24.19-54.203,60.614-54.203
					c19.185,0,33.087,4.739,41.429,9.774l-6.673,21.03c-6.117-3.555-18.629-9.479-35.59-9.479
					c-25.581,0-35.312,16.291-35.312,29.915c0,18.66,11.4,27.843,37.258,38.506c31.697,13.032,47.824,29.325,47.824,58.658
					c0,30.814-21.41,57.481-65.619,57.481c-18.073,0-37.814-5.63-47.824-12.74L235.303,397.627z"/>
			</g>
		</g>
		<g>
			<g>
				<path fill="#004E76" d="M233.886,396.21c10.844,7.111,26.692,13.037,43.375,13.037c24.746,0,39.205-13.926,39.205-34.074
					c0-18.666-10.01-29.333-35.312-39.703c-30.585-11.552-49.492-28.435-49.492-56.573c0-31.1,24.19-54.203,60.614-54.203
					c19.185,0,33.087,4.739,41.429,9.774l-6.673,21.03c-6.117-3.555-18.629-9.479-35.59-9.479
					c-25.581,0-35.312,16.291-35.312,29.915c0,18.66,11.4,27.843,37.258,38.506c31.697,13.032,47.824,29.325,47.824,58.658
					c0,30.814-21.41,57.481-65.619,57.481c-18.073,0-37.814-5.63-47.824-12.74L233.886,396.21z"/>
			</g>
		</g>
		<g>
			<g>
				<path fill="#004E76" d="M232.468,394.793c10.844,7.111,26.692,13.037,43.375,13.037c24.746,0,39.205-13.926,39.205-34.074
					c0-18.666-10.01-29.333-35.312-39.703c-30.585-11.552-49.492-28.435-49.492-56.573c0-31.1,24.19-54.203,60.614-54.203
					c19.185,0,33.087,4.739,41.429,9.774l-6.673,21.03c-6.117-3.555-18.629-9.479-35.59-9.479
					c-25.581,0-35.312,16.291-35.312,29.915c0,18.66,11.4,27.843,37.258,38.506c31.697,13.032,47.824,29.325,47.824,58.658
					c0,30.814-21.41,57.481-65.619,57.481c-18.073,0-37.814-5.63-47.824-12.74L232.468,394.793z"/>
			</g>
		</g>
		<g>
			<g>
				<path fill="#004E76" d="M231.051,393.376c10.844,7.111,26.692,13.037,43.375,13.037c24.746,0,39.205-13.926,39.205-34.074
					c0-18.666-10.01-29.333-35.312-39.703c-30.585-11.552-49.492-28.435-49.492-56.573c0-31.1,24.19-54.203,60.614-54.203
					c19.185,0,33.087,4.739,41.429,9.774l-6.673,21.03c-6.117-3.555-18.629-9.479-35.59-9.479
					c-25.581,0-35.312,16.291-35.312,29.915c0,18.66,11.4,27.843,37.258,38.506c31.697,13.032,47.824,29.325,47.824,58.658
					c0,30.814-21.41,57.481-65.619,57.481c-18.073,0-37.814-5.63-47.824-12.74L231.051,393.376z"/>
			</g>
		</g>
		<g>
			<g>
				<path fill="#004E76" d="M229.633,391.959c10.844,7.111,26.692,13.037,43.375,13.037c24.746,0,39.205-13.926,39.205-34.074
					c0-18.666-10.01-29.333-35.312-39.703c-30.585-11.552-49.492-28.435-49.492-56.573c0-31.1,24.19-54.203,60.614-54.203
					c19.185,0,33.087,4.739,41.429,9.774l-6.673,21.03c-6.117-3.555-18.629-9.479-35.59-9.479
					c-25.581,0-35.312,16.291-35.312,29.915c0,18.66,11.4,27.843,37.258,38.506c31.697,13.032,47.824,29.325,47.824,58.658
					c0,30.814-21.41,57.481-65.619,57.481c-18.073,0-37.814-5.63-47.824-12.74L229.633,391.959z"/>
			</g>
		</g>
		<g>
			<g>
				<path fill="#004E76" d="M228.216,390.542c10.844,7.111,26.692,13.037,43.375,13.037c24.746,0,39.205-13.926,39.205-34.074
					c0-18.666-10.01-29.333-35.312-39.703c-30.585-11.552-49.492-28.435-49.492-56.573c0-31.1,24.19-54.203,60.614-54.203
					c19.185,0,33.087,4.739,41.429,9.774l-6.673,21.03c-6.117-3.555-18.629-9.479-35.59-9.479
					c-25.581,0-35.312,16.291-35.312,29.915c0,18.66,11.4,27.843,37.258,38.506c31.697,13.032,47.824,29.325,47.824,58.658
					c0,30.814-21.41,57.481-65.619,57.481c-18.073,0-37.814-5.63-47.824-12.74L228.216,390.542z"/>
			</g>
		</g>
		<g>
			<g>
				<path fill="#004E76" d="M226.798,389.125c10.844,7.111,26.692,13.037,43.375,13.037c24.746,0,39.205-13.926,39.205-34.074
					c0-18.666-10.01-29.333-35.312-39.703c-30.585-11.552-49.492-28.435-49.492-56.573c0-31.1,24.19-54.203,60.614-54.203
					c19.185,0,33.087,4.739,41.429,9.774l-6.673,21.03c-6.117-3.555-18.629-9.479-35.59-9.479
					c-25.581,0-35.312,16.291-35.312,29.915c0,18.66,11.4,27.843,37.258,38.506c31.697,13.032,47.824,29.325,47.824,58.658
					c0,30.814-21.41,57.481-65.619,57.481c-18.073,0-37.814-5.63-47.824-12.74L226.798,389.125z"/>
			</g>
		</g>
		<g>
			<g>
				<path fill="#004E76" d="M225.381,387.708c10.844,7.111,26.692,13.037,43.375,13.037c24.746,0,39.205-13.926,39.205-34.074
					c0-18.666-10.01-29.333-35.312-39.703c-30.585-11.552-49.492-28.435-49.492-56.573c0-31.1,24.19-54.203,60.614-54.203
					c19.185,0,33.087,4.739,41.429,9.774l-6.673,21.03c-6.117-3.555-18.629-9.479-35.59-9.479
					c-25.581,0-35.312,16.291-35.312,29.915c0,18.66,11.4,27.843,37.258,38.506c31.697,13.032,47.824,29.325,47.824,58.658
					c0,30.814-21.41,57.481-65.619,57.481c-18.073,0-37.814-5.63-47.824-12.74L225.381,387.708z"/>
			</g>
		</g>
		<g>
			<g>
				<path fill="#004E76" d="M223.963,386.292c10.844,7.111,26.692,13.037,43.375,13.037c24.746,0,39.205-13.926,39.205-34.074
					c0-18.666-10.01-29.333-35.312-39.703c-30.585-11.552-49.492-28.435-49.492-56.573c0-31.1,24.19-54.203,60.614-54.203
					c19.185,0,33.087,4.739,41.429,9.774l-6.673,21.03c-6.117-3.555-18.629-9.479-35.59-9.479
					c-25.581,0-35.312,16.291-35.312,29.915c0,18.66,11.4,27.843,37.258,38.506c31.697,13.032,47.824,29.325,47.824,58.658
					c0,30.814-21.41,57.481-65.619,57.481c-18.073,0-37.814-5.63-47.824-12.74L223.963,386.292z"/>
			</g>
		</g>
		<g>
			<g>
				<path fill="#004E76" d="M222.546,384.875c10.844,7.111,26.692,13.037,43.375,13.037c24.746,0,39.205-13.926,39.205-34.074
					c0-18.666-10.01-29.333-35.312-39.703c-30.585-11.552-49.492-28.435-49.492-56.573c0-31.1,24.19-54.203,60.614-54.203
					c19.185,0,33.087,4.739,41.429,9.774l-6.673,21.03c-6.117-3.555-18.629-9.479-35.59-9.479
					c-25.581,0-35.312,16.291-35.312,29.915c0,18.66,11.4,27.843,37.258,38.506c31.697,13.032,47.824,29.325,47.824,58.658
					c0,30.814-21.41,57.481-65.619,57.481c-18.073,0-37.814-5.63-47.824-12.74L222.546,384.875z"/>
			</g>
		</g>
		<g>
			<g>
				<path fill="#004E76" d="M221.128,383.458c10.844,7.111,26.692,13.037,43.375,13.037c24.746,0,39.205-13.926,39.205-34.074
					c0-18.666-10.01-29.333-35.312-39.703c-30.585-11.552-49.492-28.435-49.492-56.573c0-31.1,24.19-54.203,60.614-54.203
					c19.185,0,33.087,4.739,41.429,9.774l-6.673,21.03c-6.117-3.555-18.629-9.479-35.59-9.479
					c-25.581,0-35.312,16.291-35.312,29.915c0,18.66,11.4,27.843,37.258,38.506c31.697,13.032,47.824,29.325,47.824,58.658
					c0,30.814-21.41,57.481-65.619,57.481c-18.073,0-37.814-5.63-47.824-12.74L221.128,383.458z"/>
			</g>
		</g>
		<g>
			<g>
				<path fill="#004E76" d="M219.711,382.041c10.844,7.111,26.692,13.037,43.375,13.037c24.746,0,39.205-13.926,39.205-34.074
					c0-18.666-10.01-29.333-35.312-39.703c-30.585-11.552-49.492-28.435-49.492-56.573c0-31.1,24.19-54.203,60.614-54.203
					c19.185,0,33.087,4.739,41.429,9.774l-6.673,21.03c-6.117-3.555-18.629-9.479-35.59-9.479
					c-25.581,0-35.312,16.291-35.312,29.915c0,18.66,11.4,27.843,37.258,38.506c31.697,13.032,47.824,29.325,47.824,58.658
					c0,30.814-21.41,57.481-65.619,57.481c-18.073,0-37.814-5.63-47.824-12.74L219.711,382.041z"/>
			</g>
		</g>
		<g>
			<g>
				<path fill="#004E76" d="M218.293,380.624c10.844,7.111,26.692,13.037,43.375,13.037c24.746,0,39.205-13.926,39.205-34.074
					c0-18.666-10.01-29.333-35.312-39.703c-30.585-11.552-49.492-28.435-49.492-56.573c0-31.1,24.19-54.204,60.614-54.204
					c19.185,0,33.087,4.74,41.429,9.775l-6.673,21.03c-6.117-3.555-18.629-9.479-35.59-9.479c-25.581,0-35.312,16.291-35.312,29.915
					c0,18.66,11.4,27.843,37.258,38.506c31.697,13.032,47.824,29.325,47.824,58.658c0,30.814-21.41,57.481-65.619,57.481
					c-18.073,0-37.814-5.63-47.824-12.74L218.293,380.624z"/>
			</g>
		</g>
		<g>
			<g>
				<path fill="#004E76" d="M216.876,379.207c10.844,7.111,26.692,13.037,43.375,13.037c24.746,0,39.205-13.926,39.205-34.074
					c0-18.666-10.01-29.333-35.312-39.703c-30.585-11.552-49.492-28.435-49.492-56.573c0-31.1,24.19-54.204,60.614-54.204
					c19.185,0,33.087,4.74,41.429,9.775l-6.673,21.03c-6.117-3.555-18.629-9.479-35.59-9.479c-25.581,0-35.312,16.291-35.312,29.915
					c0,18.66,11.4,27.843,37.258,38.506c31.697,13.032,47.824,29.325,47.824,58.658c0,30.814-21.41,57.481-65.619,57.481
					c-18.073,0-37.814-5.63-47.824-12.74L216.876,379.207z"/>
			</g>
		</g>
		<g>
			<g>
				<path fill="#004E76" d="M215.458,377.79c10.844,7.111,26.692,13.037,43.375,13.037c24.746,0,39.205-13.926,39.205-34.074
					c0-18.666-10.01-29.333-35.312-39.703c-30.585-11.552-49.492-28.435-49.492-56.573c0-31.1,24.19-54.205,60.614-54.205
					c19.185,0,33.087,4.741,41.429,9.776l-6.673,21.03c-6.117-3.555-18.629-9.479-35.59-9.479
					c-25.581,0-35.312,16.291-35.312,29.915c0,18.66,11.4,27.843,37.258,38.506c31.697,13.032,47.824,29.325,47.824,58.658
					c0,30.814-21.41,57.481-65.619,57.481c-18.073,0-37.814-5.63-47.824-12.74L215.458,377.79z"/>
			</g>
		</g>
		<g>
			<g>
				<path fill="#004E76" d="M214.041,376.373c10.844,7.111,26.692,13.037,43.375,13.037c24.746,0,39.205-13.926,39.205-34.074
					c0-18.666-10.01-29.333-35.312-39.703c-30.585-11.552-49.492-28.435-49.492-56.573c0-31.1,24.19-54.205,60.614-54.205
					c19.185,0,33.087,4.741,41.429,9.776l-6.673,21.03c-6.117-3.555-18.629-9.479-35.59-9.479
					c-25.581,0-35.312,16.291-35.312,29.915c0,18.66,11.4,27.843,37.258,38.506c31.697,13.032,47.824,29.325,47.824,58.658
					c0,30.814-21.41,57.481-65.619,57.481c-18.073,0-37.814-5.63-47.824-12.74L214.041,376.373z"/>
			</g>
		</g>
		<g>
			<g>
				<path fill="#004E76" d="M212.624,374.956c10.844,7.111,26.692,13.037,43.375,13.037c24.746,0,39.205-13.926,39.205-34.074
					c0-18.666-10.01-29.333-35.312-39.703c-30.585-11.552-49.492-28.435-49.492-56.573c0-31.1,24.19-54.206,60.614-54.206
					c19.185,0,33.087,4.741,41.429,9.777l-6.673,21.03c-6.117-3.555-18.629-9.479-35.59-9.479
					c-25.581,0-35.312,16.291-35.312,29.915c0,18.66,11.4,27.843,37.258,38.506c31.697,13.032,47.824,29.325,47.824,58.658
					c0,30.814-21.41,57.481-65.619,57.481c-18.073,0-37.814-5.63-47.824-12.74L212.624,374.956z"/>
			</g>
		</g>
		<g>
			<g>
				<path fill="#004E76" d="M211.206,373.539c10.844,7.111,26.692,13.037,43.375,13.037c24.746,0,39.205-13.926,39.205-34.074
					c0-18.666-10.01-29.333-35.312-39.703c-30.585-11.552-49.492-28.435-49.492-56.573c0-31.1,24.19-54.206,60.614-54.206
					c19.185,0,33.087,4.741,41.429,9.777l-6.673,21.03c-6.117-3.555-18.629-9.479-35.59-9.479
					c-25.581,0-35.312,16.291-35.312,29.915c0,18.66,11.4,27.843,37.258,38.506c31.697,13.032,47.824,29.325,47.824,58.658
					c0,30.814-21.41,57.481-65.619,57.481c-18.073,0-37.814-5.63-47.824-12.74L211.206,373.539z"/>
			</g>
		</g>
		<g>
			<g>
				<path fill="#004E76" d="M209.789,372.122c10.844,7.111,26.692,13.037,43.375,13.037c24.746,0,39.205-13.926,39.205-34.074
					c0-18.666-10.01-29.333-35.312-39.703c-30.585-11.552-49.492-28.435-49.492-56.573c0-31.1,24.19-54.207,60.614-54.207
					c19.185,0,33.087,4.741,41.429,9.778l-6.673,21.03c-6.117-3.555-18.629-9.479-35.59-9.479
					c-25.581,0-35.312,16.291-35.312,29.915c0,18.66,11.4,27.843,37.258,38.506c31.697,13.032,47.824,29.325,47.824,58.658
					c0,30.814-21.41,57.481-65.619,57.481c-18.073,0-37.814-5.63-47.824-12.74L209.789,372.122z"/>
			</g>
		</g>
		<g>
			<g>
				<path fill="#004E76" d="M208.371,370.705c10.844,7.111,26.692,13.037,43.375,13.037c24.746,0,39.205-13.926,39.205-34.074
					c0-18.666-10.01-29.333-35.312-39.703c-30.585-11.552-49.492-28.435-49.492-56.573c0-31.1,24.19-54.207,60.614-54.207
					c19.185,0,33.087,4.741,41.429,9.778l-6.673,21.031c-6.117-3.555-18.629-9.479-35.59-9.479
					c-25.581,0-35.312,16.291-35.312,29.915c0,18.66,11.4,27.843,37.258,38.506c31.697,13.032,47.824,29.325,47.824,58.658
					c0,30.814-21.41,57.481-65.619,57.481c-18.073,0-37.814-5.63-47.824-12.74L208.371,370.705z"/>
			</g>
		</g>
		<g>
			<g>
				<path fill="#004E76" d="M206.954,369.288c10.844,7.111,26.692,13.037,43.375,13.037c24.746,0,39.205-13.926,39.205-34.074
					c0-18.666-10.01-29.333-35.312-39.703c-30.585-11.552-49.492-28.435-49.492-56.573c0-31.1,24.19-54.208,60.614-54.208
					c19.185,0,33.087,4.741,41.429,9.778l-6.673,21.031c-6.117-3.555-18.629-9.479-35.59-9.479
					c-25.581,0-35.312,16.291-35.312,29.915c0,18.66,11.4,27.843,37.258,38.506c31.697,13.032,47.824,29.325,47.824,58.658
					c0,30.814-21.41,57.481-65.619,57.481c-18.073,0-37.814-5.63-47.824-12.74L206.954,369.288z"/>
			</g>
		</g>
		<g>
			<g>
				<path fill="#004E76" d="M205.536,367.871c10.844,7.111,26.692,13.037,43.375,13.037c24.746,0,39.205-13.926,39.205-34.074
					c0-18.666-10.01-29.333-35.312-39.703c-30.585-11.552-49.492-28.435-49.492-56.573c0-31.1,24.19-54.208,60.614-54.208
					c19.185,0,33.087,4.741,41.429,9.778l-6.673,21.032c-6.117-3.555-18.629-9.479-35.59-9.479
					c-25.581,0-35.312,16.291-35.312,29.915c0,18.66,11.4,27.843,37.258,38.506c31.697,13.032,47.824,29.325,47.824,58.658
					c0,30.814-21.41,57.481-65.619,57.481c-18.073,0-37.814-5.63-47.824-12.74L205.536,367.871z"/>
			</g>
		</g>
		<g>
			<g>
				<path fill="#004E76" d="M204.119,366.454c10.844,7.111,26.692,13.037,43.375,13.037c24.746,0,39.205-13.926,39.205-34.074
					c0-18.666-10.01-29.333-35.312-39.703c-30.585-11.552-49.492-28.435-49.492-56.573c0-31.1,24.19-54.208,60.614-54.208
					c19.185,0,33.087,4.741,41.429,9.778l-6.673,21.032c-6.117-3.555-18.629-9.479-35.59-9.479
					c-25.581,0-35.312,16.291-35.312,29.915c0,18.66,11.4,27.843,37.258,38.506c31.697,13.032,47.824,29.325,47.824,58.658
					c0,30.814-21.41,57.481-65.619,57.481c-18.073,0-37.814-5.63-47.824-12.74L204.119,366.454z"/>
			</g>
		</g>
		<g>
			<g>
				<path fill="#004E76" d="M202.701,365.037c10.844,7.111,26.692,13.037,43.375,13.037c24.746,0,39.205-13.926,39.205-34.074
					c0-18.666-10.01-29.333-35.312-39.703c-30.585-11.552-49.492-28.435-49.492-56.573c0-31.1,24.19-54.209,60.614-54.209
					c19.185,0,33.087,4.741,41.429,9.778l-6.673,21.033c-6.117-3.555-18.629-9.479-35.59-9.479
					c-25.581,0-35.312,16.291-35.312,29.915c0,18.66,11.4,27.843,37.258,38.506c31.697,13.032,47.824,29.325,47.824,58.658
					c0,30.814-21.41,57.481-65.619,57.481c-18.073,0-37.814-5.63-47.824-12.74L202.701,365.037z"/>
			</g>
		</g>
		<g>
			<g>
				<path fill="#004E76" d="M201.284,363.62c10.844,7.111,26.692,13.037,43.375,13.037c24.746,0,39.205-13.926,39.205-34.074
					c0-18.666-10.01-29.333-35.312-39.703c-30.585-11.552-49.492-28.435-49.492-56.573c0-31.1,24.19-54.209,60.614-54.209
					c19.185,0,33.087,4.741,41.429,9.778l-6.673,21.033c-6.117-3.555-18.629-9.479-35.59-9.479
					c-25.581,0-35.312,16.291-35.312,29.915c0,18.66,11.4,27.843,37.258,38.506c31.697,13.032,47.824,29.325,47.824,58.658
					c0,30.814-21.41,57.481-65.619,57.481c-18.073,0-37.814-5.63-47.824-12.74L201.284,363.62z"/>
			</g>
		</g>
		<g>
			<g>
				<path fill="#004E76" d="M199.866,362.203c10.844,7.111,26.692,13.037,43.375,13.037c24.746,0,39.205-13.926,39.205-34.074
					c0-18.666-10.01-29.333-35.312-39.703c-30.585-11.552-49.492-28.435-49.492-56.573c0-31.1,24.19-54.21,60.614-54.21
					c19.185,0,33.087,4.741,41.429,9.778l-6.673,21.034c-6.117-3.555-18.629-9.479-35.59-9.479
					c-25.581,0-35.312,16.291-35.312,29.915c0,18.66,11.4,27.843,37.258,38.506c31.697,13.032,47.824,29.325,47.824,58.658
					c0,30.814-21.41,57.481-65.619,57.481c-18.073,0-37.814-5.63-47.824-12.74L199.866,362.203z"/>
			</g>
		</g>
		<g>
			<g>
				<path fill="#004E76" d="M198.449,360.786c10.844,7.111,26.692,13.037,43.375,13.037c24.746,0,39.205-13.926,39.205-34.074
					c0-18.666-10.01-29.333-35.312-39.703c-30.585-11.552-49.492-28.435-49.492-56.573c0-31.1,24.19-54.21,60.614-54.21
					c19.185,0,33.087,4.741,41.429,9.778l-6.673,21.034c-6.117-3.555-18.629-9.479-35.59-9.479
					c-25.581,0-35.312,16.291-35.312,29.915c0,18.66,11.4,27.843,37.258,38.506c31.697,13.032,47.824,29.325,47.824,58.658
					c0,30.814-21.41,57.481-65.619,57.481c-18.073,0-37.814-5.63-47.824-12.74L198.449,360.786z"/>
			</g>
		</g>
		<g>
			<g>
				<path fill="#004E76" d="M197.031,359.369c10.844,7.111,26.692,13.037,43.375,13.037c24.746,0,39.205-13.926,39.205-34.074
					c0-18.666-10.01-29.333-35.312-39.703c-30.585-11.552-49.492-28.435-49.492-56.573c0-31.1,24.19-54.211,60.614-54.211
					c19.185,0,33.087,4.741,41.429,9.778l-6.673,21.035c-6.117-3.555-18.629-9.479-35.59-9.479
					c-25.581,0-35.312,16.292-35.312,29.916c0,18.66,11.4,27.843,37.258,38.506c31.697,13.032,47.824,29.325,47.824,58.658
					c0,30.814-21.41,57.481-65.619,57.481c-18.073,0-37.814-5.63-47.824-12.74L197.031,359.369z"/>
			</g>
		</g>
		<g>
			<g>
				<path fill="#004E76" d="M195.614,357.952c10.844,7.111,26.692,13.037,43.375,13.037c24.746,0,39.205-13.926,39.205-34.074
					c0-18.666-10.01-29.333-35.312-39.703c-30.585-11.552-49.492-28.435-49.492-56.573c0-31.1,24.19-54.211,60.614-54.211
					c19.185,0,33.087,4.741,41.429,9.778l-6.673,21.035c-6.117-3.555-18.629-9.479-35.59-9.479
					c-25.581,0-35.312,16.292-35.312,29.916c0,18.66,11.4,27.843,37.258,38.506c31.697,13.032,47.824,29.325,47.824,58.658
					c0,30.814-21.41,57.481-65.619,57.481c-18.073,0-37.814-5.63-47.824-12.74L195.614,357.952z"/>
			</g>
		</g>
		<g>
			<g>
				<path fill="#004E76" d="M194.196,356.535c10.844,7.111,26.692,13.037,43.375,13.037c24.746,0,39.205-13.926,39.205-34.074
					c0-18.666-10.01-29.333-35.312-39.703c-30.585-11.552-49.492-28.435-49.492-56.573c0-31.101,24.19-54.212,60.614-54.212
					c19.185,0,33.087,4.741,41.429,9.778l-6.673,21.036c-6.117-3.555-18.629-9.48-35.59-9.48c-25.581,0-35.312,16.292-35.312,29.917
					c0,18.66,11.4,27.843,37.258,38.506c31.697,13.032,47.824,29.325,47.824,58.658c0,30.814-21.41,57.481-65.619,57.481
					c-18.073,0-37.814-5.63-47.824-12.74L194.196,356.535z"/>
			</g>
		</g>
		<g>
			<g>
				<path fill="#004E76" d="M192.779,355.118c10.844,7.111,26.692,13.037,43.375,13.037c24.746,0,39.205-13.926,39.205-34.074
					c0-18.666-10.01-29.333-35.312-39.703c-30.585-11.552-49.492-28.435-49.492-56.573c0-31.101,24.19-54.212,60.614-54.212
					c19.185,0,33.087,4.741,41.429,9.778l-6.673,21.036c-6.117-3.555-18.629-9.48-35.59-9.48c-25.581,0-35.312,16.293-35.312,29.917
					c0,18.66,11.4,27.843,37.258,38.506c31.697,13.032,47.824,29.325,47.824,58.658c0,30.814-21.41,57.481-65.619,57.481
					c-18.073,0-37.814-5.63-47.824-12.74L192.779,355.118z"/>
			</g>
		</g>
		<g>
			<g>
				<path fill="#004E76" d="M191.361,353.701c10.844,7.111,26.692,13.037,43.375,13.037c24.746,0,39.205-13.926,39.205-34.074
					c0-18.666-10.01-29.333-35.312-39.703c-30.585-11.552-49.492-28.435-49.492-56.573c0-31.102,24.19-54.213,60.614-54.213
					c19.185,0,33.087,4.741,41.429,9.778l-6.673,21.037c-6.117-3.555-18.629-9.481-35.59-9.481
					c-25.581,0-35.312,16.293-35.312,29.917c0,18.66,11.4,27.843,37.258,38.506c31.697,13.032,47.824,29.325,47.824,58.658
					c0,30.814-21.41,57.481-65.619,57.481c-18.073,0-37.814-5.63-47.824-12.74L191.361,353.701z"/>
			</g>
		</g>
		<g>
			<g>
				<path fill="#004E76" d="M189.944,352.284c10.844,7.111,26.692,13.037,43.375,13.037c24.746,0,39.205-13.926,39.205-34.074
					c0-18.666-10.01-29.333-35.312-39.703c-30.585-11.552-49.492-28.435-49.492-56.573c0-31.102,24.19-54.213,60.614-54.213
					c19.185,0,33.087,4.741,41.429,9.778l-6.673,21.037c-6.117-3.556-18.629-9.481-35.59-9.481
					c-25.581,0-35.312,16.294-35.312,29.918c0,18.66,11.4,27.843,37.258,38.506c31.697,13.032,47.824,29.325,47.824,58.658
					c0,30.814-21.41,57.481-65.619,57.481c-18.073,0-37.814-5.63-47.824-12.74L189.944,352.284z"/>
			</g>
		</g>
		<g>
			<g>
				<path fill="#004E76" d="M188.526,350.867c10.844,7.111,26.692,13.037,43.375,13.037c24.746,0,39.205-13.926,39.205-34.074
					c0-18.666-10.01-29.333-35.312-39.703c-30.585-11.552-49.492-28.435-49.492-56.573c0-31.103,24.19-54.214,60.614-54.214
					c19.185,0,33.087,4.741,41.429,9.778l-6.673,21.037c-6.117-3.556-18.629-9.481-35.59-9.481
					c-25.581,0-35.312,16.294-35.312,29.918c0,18.66,11.4,27.843,37.258,38.506c31.697,13.032,47.824,29.325,47.824,58.658
					c0,30.814-21.41,57.481-65.619,57.481c-18.073,0-37.814-5.63-47.824-12.74L188.526,350.867z"/>
			</g>
		</g>
		<g>
			<g>
				<path fill="#004E76" d="M187.109,349.45c10.844,7.111,26.692,13.037,43.375,13.037c24.746,0,39.205-13.926,39.205-34.074
					c0-18.666-10.01-29.333-35.312-39.703c-30.585-11.552-49.492-28.435-49.492-56.573c0-31.103,24.19-54.214,60.614-54.214
					c19.185,0,33.087,4.741,41.429,9.778l-6.673,21.037c-6.117-3.556-18.629-9.481-35.59-9.481
					c-25.581,0-35.312,16.295-35.312,29.919c0,18.66,11.4,27.843,37.258,38.506c31.697,13.032,47.824,29.325,47.824,58.658
					c0,30.814-21.41,57.481-65.619,57.481c-18.073,0-37.814-5.63-47.824-12.74L187.109,349.45z"/>
			</g>
		</g>
		<g>
			<g>
				<path fill="#004E76" d="M185.691,348.033c10.844,7.111,26.692,13.037,43.375,13.037c24.746,0,39.205-13.926,39.205-34.074
					c0-18.666-10.01-29.333-35.312-39.703c-30.585-11.552-49.492-28.435-49.492-56.573c0-31.104,24.19-54.215,60.614-54.215
					c19.185,0,33.087,4.741,41.429,9.778l-6.673,21.037c-6.117-3.556-18.629-9.481-35.59-9.481
					c-25.581,0-35.312,16.295-35.312,29.919c0,18.66,11.4,27.843,37.258,38.506c31.697,13.032,47.824,29.325,47.824,58.658
					c0,30.814-21.41,57.481-65.619,57.481c-18.073,0-37.814-5.63-47.824-12.74L185.691,348.033z"/>
			</g>
		</g>
		<g>
			<g>
				<path fill="#004E76" d="M184.274,346.616c10.844,7.111,26.692,13.037,43.375,13.037c24.746,0,39.205-13.926,39.205-34.074
					c0-18.666-10.01-29.333-35.312-39.703c-30.585-11.552-49.492-28.435-49.492-56.573c0-31.104,24.19-54.215,60.614-54.215
					c19.185,0,33.087,4.741,41.429,9.778l-6.673,21.037c-6.117-3.556-18.629-9.481-35.59-9.481
					c-25.581,0-35.312,16.296-35.312,29.92c0,18.66,11.4,27.843,37.258,38.506c31.697,13.032,47.824,29.325,47.824,58.658
					c0,30.814-21.41,57.481-65.619,57.481c-18.073,0-37.814-5.63-47.824-12.74L184.274,346.616z"/>
			</g>
		</g>
		<g>
			<g>
				<path fill="#004E76" d="M182.856,345.199c10.844,7.111,26.692,13.037,43.375,13.037c24.746,0,39.205-13.926,39.205-34.074
					c0-18.666-10.01-29.333-35.312-39.703c-30.585-11.552-49.492-28.435-49.492-56.573c0-31.104,24.19-54.216,60.614-54.216
					c19.185,0,33.087,4.741,41.429,9.778l-6.673,21.037c-6.117-3.556-18.629-9.481-35.59-9.481
					c-25.581,0-35.312,16.296-35.312,29.92c0,18.66,11.4,27.843,37.258,38.506c31.697,13.032,47.824,29.325,47.824,58.658
					c0,30.814-21.41,57.481-65.619,57.481c-18.073,0-37.814-5.63-47.824-12.74L182.856,345.199z"/>
			</g>
		</g>
		<g>
			<g>
				<path fill="#004E76" d="M181.439,343.782c10.844,7.111,26.692,13.037,43.375,13.037c24.746,0,39.205-13.926,39.205-34.074
					c0-18.666-10.01-29.333-35.312-39.703c-30.585-11.552-49.492-28.435-49.492-56.573c0-31.105,24.19-54.216,60.614-54.216
					c19.185,0,33.087,4.741,41.429,9.778l-6.673,21.037c-6.117-3.556-18.629-9.481-35.59-9.481
					c-25.581,0-35.312,16.296-35.312,29.921c0,18.66,11.4,27.843,37.258,38.506c31.697,13.032,47.824,29.325,47.824,58.658
					c0,30.814-21.41,57.481-65.619,57.481c-18.073,0-37.814-5.63-47.824-12.74L181.439,343.782z"/>
			</g>
		</g>
		<g>
			<g>
				<path fill="#004E76" d="M180.021,342.365c10.844,7.111,26.692,13.037,43.375,13.037c24.746,0,39.205-13.926,39.205-34.074
					c0-18.666-10.01-29.333-35.312-39.703c-30.585-11.552-49.492-28.435-49.492-56.573c0-31.105,24.19-54.217,60.614-54.217
					c19.185,0,33.087,4.741,41.429,9.778l-6.673,21.037c-6.117-3.556-18.629-9.481-35.59-9.481
					c-25.581,0-35.312,16.296-35.312,29.921c0,18.66,11.4,27.843,37.258,38.506c31.697,13.032,47.824,29.325,47.824,58.658
					c0,30.814-21.41,57.481-65.619,57.481c-18.073,0-37.814-5.63-47.824-12.74L180.021,342.365z"/>
			</g>
		</g>
		<g>
			<g>
				<path fill="#004E76" d="M178.604,340.948c10.844,7.111,26.692,13.037,43.375,13.037c24.746,0,39.205-13.926,39.205-34.074
					c0-18.666-10.01-29.333-35.312-39.703c-30.585-11.552-49.492-28.435-49.492-56.573c0-31.106,24.19-54.217,60.614-54.217
					c19.185,0,33.087,4.741,41.429,9.778l-6.673,21.037c-6.117-3.556-18.629-9.481-35.59-9.481
					c-25.581,0-35.312,16.296-35.312,29.922c0,18.66,11.4,27.843,37.258,38.506c31.697,13.032,47.824,29.325,47.824,58.658
					c0,30.814-21.41,57.481-65.619,57.481c-18.073,0-37.814-5.63-47.824-12.74L178.604,340.948z"/>
			</g>
		</g>
		<g>
			<g>
				<path fill="#004E76" d="M177.187,339.531c10.844,7.111,26.692,13.037,43.375,13.037c24.746,0,39.205-13.926,39.205-34.074
					c0-18.666-10.01-29.333-35.312-39.703c-30.585-11.552-49.492-28.435-49.492-56.573c0-31.106,24.19-54.218,60.614-54.218
					c19.185,0,33.087,4.741,41.429,9.778l-6.673,21.037c-6.117-3.556-18.629-9.481-35.59-9.481
					c-25.581,0-35.312,16.296-35.312,29.922c0,18.66,11.4,27.843,37.258,38.506c31.697,13.032,47.824,29.325,47.824,58.658
					c0,30.814-21.41,57.481-65.619,57.481c-18.073,0-37.814-5.63-47.824-12.74L177.187,339.531z"/>
			</g>
		</g>
		<g>
			<g>
				<path fill="#004E76" d="M175.769,338.114c10.844,7.111,26.692,13.037,43.375,13.037c24.746,0,39.205-13.926,39.205-34.074
					c0-18.666-10.01-29.333-35.312-39.703c-30.585-11.552-49.492-28.435-49.492-56.573c0-31.107,24.19-54.218,60.614-54.218
					c19.185,0,33.087,4.741,41.429,9.778l-6.673,21.037c-6.117-3.556-18.629-9.481-35.59-9.481
					c-25.581,0-35.312,16.296-35.312,29.923c0,18.66,11.4,27.843,37.258,38.506c31.697,13.032,47.824,29.325,47.824,58.658
					c0,30.814-21.41,57.481-65.619,57.481c-18.073,0-37.814-5.63-47.824-12.74L175.769,338.114z"/>
			</g>
		</g>
		<g>
			<g>
				<path fill="#004E76" d="M174.352,336.697c10.844,7.111,26.692,13.037,43.375,13.037c24.746,0,39.205-13.926,39.205-34.074
					c0-18.666-10.01-29.333-35.312-39.703c-30.585-11.552-49.492-28.435-49.492-56.573c0-31.107,24.19-54.219,60.614-54.219
					c19.185,0,33.087,4.741,41.429,9.778l-6.673,21.037c-6.117-3.556-18.629-9.481-35.59-9.481
					c-25.581,0-35.312,16.296-35.312,29.923c0,18.66,11.4,27.843,37.258,38.506c31.697,13.032,47.824,29.325,47.824,58.658
					c0,30.814-21.41,57.481-65.619,57.481c-18.073,0-37.814-5.63-47.824-12.74L174.352,336.697z"/>
			</g>
		</g>
		<g>
			<g>
				<path fill="#004E76" d="M172.934,335.28c10.844,7.111,26.692,13.037,43.375,13.037c24.746,0,39.205-13.926,39.205-34.074
					c0-18.666-10.01-29.333-35.312-39.703c-30.585-11.552-49.492-28.435-49.492-56.573c0-31.108,24.19-54.219,60.614-54.219
					c19.185,0,33.087,4.741,41.429,9.778l-6.673,21.037c-6.117-3.556-18.629-9.481-35.59-9.481
					c-25.581,0-35.312,16.296-35.312,29.924c0,18.66,11.4,27.843,37.258,38.506c31.697,13.032,47.824,29.325,47.824,58.658
					c0,30.814-21.41,57.481-65.619,57.481c-18.073,0-37.814-5.63-47.824-12.74L172.934,335.28z"/>
			</g>
		</g>
		<g>
			<g>
				<path fill="#004E76" d="M171.517,333.863c10.844,7.111,26.692,13.037,43.375,13.037c24.746,0,39.205-13.926,39.205-34.074
					c0-18.666-10.01-29.333-35.312-39.703c-30.585-11.552-49.492-28.435-49.492-56.573c0-31.108,24.19-54.22,60.614-54.22
					c19.185,0,33.087,4.741,41.429,9.778l-6.673,21.037c-6.117-3.556-18.629-9.481-35.59-9.481
					c-25.581,0-35.312,16.296-35.312,29.924c0,18.66,11.4,27.843,37.258,38.506c31.697,13.032,47.824,29.325,47.824,58.658
					c0,30.814-21.41,57.481-65.619,57.481c-18.073,0-37.814-5.63-47.824-12.74L171.517,333.863z"/>
			</g>
		</g>
		<g>
			<g>
				<path fill="#004E76" d="M170.099,332.446c10.844,7.111,26.692,13.037,43.375,13.037c24.746,0,39.205-13.926,39.205-34.074
					c0-18.666-10.01-29.333-35.312-39.703c-30.585-11.552-49.492-28.435-49.492-56.573c0-31.109,24.19-54.22,60.614-54.22
					c19.185,0,33.087,4.741,41.429,9.778l-6.673,21.037c-6.117-3.556-18.629-9.481-35.59-9.481
					c-25.581,0-35.312,16.296-35.312,29.925c0,18.66,11.4,27.843,37.258,38.506c31.697,13.032,47.824,29.325,47.824,58.658
					c0,30.814-21.41,57.481-65.619,57.481c-18.073,0-37.814-5.63-47.824-12.74L170.099,332.446z"/>
			</g>
		</g>
		<g>
			<g>
				<path fill="#004E76" d="M168.682,331.029c10.844,7.111,26.692,13.037,43.375,13.037c24.746,0,39.205-13.926,39.205-34.074
					c0-18.666-10.01-29.333-35.312-39.703c-30.585-11.552-49.492-28.435-49.492-56.573c0-31.109,24.19-54.221,60.614-54.221
					c19.185,0,33.087,4.741,41.429,9.778l-6.673,21.037c-6.117-3.556-18.629-9.481-35.59-9.481
					c-25.581,0-35.312,16.296-35.312,29.925c0,18.66,11.4,27.843,37.258,38.506c31.697,13.032,47.824,29.325,47.824,58.658
					c0,30.814-21.41,57.481-65.619,57.481c-18.073,0-37.814-5.63-47.824-12.74L168.682,331.029z"/>
			</g>
		</g>
		<g>
			<g>
				<path fill="#004E76" d="M167.264,329.612c10.844,7.111,26.692,13.037,43.375,13.037c24.746,0,39.205-13.926,39.205-34.074
					c0-18.666-10.01-29.333-35.312-39.703c-30.585-11.552-49.492-28.435-49.492-56.573c0-31.11,24.19-54.221,60.614-54.221
					c19.185,0,33.087,4.741,41.429,9.778l-6.673,21.037c-6.117-3.556-18.629-9.481-35.59-9.481
					c-25.581,0-35.312,16.296-35.312,29.926c0,18.66,11.4,27.843,37.258,38.506c31.697,13.032,47.824,29.325,47.824,58.658
					c0,30.814-21.41,57.481-65.619,57.481c-18.073,0-37.814-5.63-47.824-12.74L167.264,329.612z"/>
			</g>
		</g>
		<g>
			<g>
				<path fill="#004E76" d="M165.847,328.195c10.844,7.111,26.692,13.037,43.375,13.037c24.746,0,39.205-13.926,39.205-34.074
					c0-18.666-10.01-29.333-35.312-39.703c-30.585-11.552-49.492-28.435-49.492-56.573c0-31.11,24.19-54.222,60.614-54.222
					c19.185,0,33.087,4.741,41.429,9.778l-6.673,21.037c-6.117-3.556-18.629-9.481-35.59-9.481
					c-25.581,0-35.312,16.296-35.312,29.926c0,18.661,11.4,27.843,37.258,38.506c31.697,13.032,47.824,29.325,47.824,58.658
					c0,30.814-21.41,57.481-65.619,57.481c-18.073,0-37.814-5.63-47.824-12.74L165.847,328.195z"/>
			</g>
		</g>
		<g>
			<g>
				<path fill="#004E76" d="M164.429,326.778c10.844,7.111,26.692,13.037,43.375,13.037c24.746,0,39.205-13.926,39.205-34.074
					c0-18.666-10.01-29.333-35.312-39.703c-30.585-11.552-49.492-28.435-49.492-56.573c0-31.111,24.19-54.222,60.614-54.222
					c19.185,0,33.087,4.741,41.429,9.778l-6.673,21.037c-6.117-3.556-18.629-9.481-35.59-9.481
					c-25.581,0-35.312,16.296-35.312,29.926c0,18.661,11.4,27.844,37.258,38.507c31.697,13.032,47.824,29.325,47.824,58.658
					c0,30.814-21.41,57.481-65.619,57.481c-18.073,0-37.814-5.63-47.824-12.74L164.429,326.778z"/>
			</g>
		</g>
		<g>
			<g>
				<path fill="#004E76" d="M163.012,325.361c10.844,7.111,26.692,13.037,43.375,13.037c24.746,0,39.205-13.926,39.205-34.074
					c0-18.666-10.01-29.333-35.312-39.703c-30.585-11.552-49.492-28.435-49.492-56.574c0-31.111,24.19-54.222,60.614-54.222
					c19.185,0,33.087,4.741,41.429,9.778l-6.673,21.037c-6.117-3.556-18.629-9.481-35.59-9.481
					c-25.581,0-35.312,16.296-35.312,29.926c0,18.662,11.4,27.844,37.258,38.507c31.697,13.032,47.824,29.325,47.824,58.658
					c0,30.814-21.41,57.481-65.619,57.481c-18.073,0-37.814-5.63-47.824-12.74L163.012,325.361z"/>
			</g>
		</g>
		<g>
			<g>
				<path fill="#004E76" d="M161.594,323.944c10.844,7.111,26.692,13.037,43.375,13.037c24.746,0,39.205-13.926,39.205-34.074
					c0-18.666-10.01-29.333-35.312-39.703c-30.585-11.552-49.492-28.435-49.492-56.574c0-31.111,24.19-54.222,60.614-54.222
					c19.185,0,33.087,4.741,41.429,9.778l-6.673,21.037c-6.117-3.556-18.629-9.481-35.59-9.481
					c-25.581,0-35.312,16.296-35.312,29.926c0,18.662,11.4,27.845,37.258,38.508c31.697,13.032,47.824,29.325,47.824,58.658
					c0,30.814-21.41,57.481-65.619,57.481c-18.073,0-37.814-5.63-47.824-12.74L161.594,323.944z"/>
			</g>
		</g>
		<g>
			<g>
				<path fill="#004E76" d="M160.177,322.527c10.844,7.111,26.692,13.037,43.375,13.037c24.746,0,39.205-13.926,39.205-34.074
					c0-18.666-10.01-29.333-35.312-39.703c-30.585-11.552-49.492-28.435-49.492-56.575c0-31.111,24.19-54.222,60.614-54.222
					c19.185,0,33.087,4.741,41.429,9.778l-6.673,21.037c-6.117-3.556-18.629-9.481-35.59-9.481
					c-25.581,0-35.312,16.296-35.312,29.926c0,18.663,11.4,27.845,37.258,38.508c31.697,13.032,47.824,29.325,47.824,58.658
					c0,30.814-21.41,57.481-65.619,57.481c-18.073,0-37.814-5.63-47.824-12.74L160.177,322.527z"/>
			</g>
		</g>
		<g>
			<g>
				<path fill="#004E76" d="M158.759,321.11c10.844,7.111,26.692,13.037,43.375,13.037c24.746,0,39.205-13.926,39.205-34.074
					c0-18.666-10.01-29.333-35.312-39.703c-30.585-11.552-49.492-28.435-49.492-56.575c0-31.111,24.19-54.222,60.614-54.222
					c19.185,0,33.087,4.741,41.429,9.778l-6.673,21.037c-6.117-3.556-18.629-9.481-35.59-9.481
					c-25.581,0-35.312,16.296-35.312,29.926c0,18.663,11.4,27.846,37.258,38.509c31.697,13.032,47.824,29.325,47.824,58.658
					c0,30.814-21.41,57.481-65.619,57.481c-18.073,0-37.814-5.63-47.824-12.74L158.759,321.11z"/>
			</g>
		</g>
		<g>
			<g>
				<path fill="#004E76" d="M157.342,319.693c10.844,7.111,26.692,13.037,43.375,13.037c24.746,0,39.205-13.926,39.205-34.074
					c0-18.666-10.01-29.333-35.312-39.703c-30.585-11.552-49.492-28.435-49.492-56.576c0-31.111,24.19-54.222,60.614-54.222
					c19.185,0,33.087,4.741,41.429,9.778l-6.673,21.037c-6.117-3.556-18.629-9.481-35.59-9.481
					c-25.581,0-35.312,16.296-35.312,29.926c0,18.664,11.4,27.846,37.258,38.509c31.697,13.032,47.824,29.325,47.824,58.658
					c0,30.814-21.41,57.481-65.619,57.481c-18.073,0-37.814-5.63-47.824-12.74L157.342,319.693z"/>
			</g>
		</g>
		<g>
			<g>
				<path fill="#004E76" d="M155.924,318.276c10.844,7.111,26.692,13.037,43.375,13.037c24.746,0,39.205-13.926,39.205-34.074
					c0-18.666-10.01-29.333-35.312-39.703c-30.585-11.552-49.492-28.435-49.492-56.576c0-31.111,24.19-54.222,60.614-54.222
					c19.185,0,33.087,4.741,41.429,9.778l-6.673,21.037c-6.117-3.556-18.629-9.481-35.59-9.481
					c-25.581,0-35.312,16.296-35.312,29.926c0,18.664,11.4,27.847,37.258,38.51c31.697,13.032,47.824,29.325,47.824,58.658
					c0,30.814-21.41,57.481-65.619,57.481c-18.073,0-37.814-5.63-47.824-12.74L155.924,318.276z"/>
			</g>
		</g>
		<g>
			<g>
				<path fill="#004E76" d="M154.507,316.859c10.844,7.111,26.692,13.037,43.375,13.037c24.746,0,39.205-13.926,39.205-34.074
					c0-18.666-10.01-29.333-35.312-39.703c-30.585-11.552-49.492-28.435-49.492-56.577c0-31.111,24.19-54.222,60.614-54.222
					c19.185,0,33.087,4.741,41.429,9.778l-6.673,21.037c-6.117-3.556-18.629-9.481-35.59-9.481
					c-25.581,0-35.312,16.296-35.312,29.926c0,18.665,11.4,27.847,37.258,38.51c31.697,13.032,47.824,29.325,47.824,58.658
					c0,30.814-21.41,57.481-65.619,57.481c-18.073,0-37.814-5.63-47.824-12.74L154.507,316.859z"/>
			</g>
		</g>
		<g>
			<g>
				<path fill="#004E76" d="M153.089,315.442c10.844,7.111,26.692,13.037,43.375,13.037c24.746,0,39.205-13.926,39.205-34.074
					c0-18.666-10.01-29.333-35.312-39.703c-30.585-11.552-49.492-28.435-49.492-56.577c0-31.111,24.19-54.222,60.614-54.222
					c19.185,0,33.087,4.741,41.429,9.778l-6.673,21.037c-6.117-3.556-18.629-9.481-35.59-9.481
					c-25.581,0-35.312,16.296-35.312,29.926c0,18.665,11.4,27.848,37.258,38.511c31.697,13.032,47.824,29.325,47.824,58.658
					c0,30.814-21.41,57.481-65.619,57.481c-18.073,0-37.814-5.63-47.824-12.74L153.089,315.442z"/>
			</g>
		</g>
		<g>
			<g>
				<path fill="#004E76" d="M151.672,314.025c10.844,7.111,26.692,13.037,43.375,13.037c24.746,0,39.205-13.926,39.205-34.074
					c0-18.666-10.01-29.333-35.312-39.703c-30.585-11.552-49.492-28.435-49.492-56.578c0-31.111,24.19-54.222,60.614-54.222
					c19.185,0,33.087,4.741,41.429,9.778l-6.673,21.037c-6.117-3.556-18.629-9.481-35.59-9.481
					c-25.581,0-35.312,16.296-35.312,29.926c0,18.666,11.4,27.848,37.258,38.511c31.697,13.032,47.824,29.325,47.824,58.658
					c0,30.814-21.41,57.481-65.619,57.481c-18.073,0-37.814-5.63-47.824-12.74L151.672,314.025z"/>
			</g>
		</g>
		<g>
			<g>
				<path fill="#004E76" d="M150.254,312.608c10.844,7.111,26.692,13.037,43.375,13.037c24.746,0,39.205-13.926,39.205-34.074
					c0-18.666-10.01-29.333-35.312-39.703c-30.585-11.552-49.492-28.435-49.492-56.578c0-31.111,24.19-54.222,60.614-54.222
					c19.185,0,33.087,4.741,41.429,9.778l-6.673,21.037c-6.117-3.556-18.629-9.481-35.59-9.481
					c-25.581,0-35.312,16.296-35.312,29.926c0,18.666,11.4,27.849,37.258,38.512c31.697,13.032,47.824,29.325,47.824,58.658
					c0,30.814-21.41,57.481-65.619,57.481c-18.073,0-37.814-5.63-47.824-12.74L150.254,312.608z"/>
			</g>
		</g>
		<g>
			<g>
				<path fill="#004E76" d="M148.837,311.191c10.844,7.111,26.692,13.037,43.375,13.037c24.746,0,39.205-13.926,39.205-34.074
					c0-18.666-10.01-29.333-35.312-39.703c-30.585-11.552-49.492-28.435-49.492-56.579c0-31.111,24.19-54.222,60.614-54.222
					c19.185,0,33.087,4.741,41.429,9.778l-6.673,21.037c-6.117-3.556-18.629-9.481-35.59-9.481
					c-25.581,0-35.312,16.296-35.312,29.926c0,18.667,11.4,27.849,37.258,38.512c31.697,13.032,47.824,29.325,47.824,58.658
					c0,30.814-21.41,57.481-65.619,57.481c-18.073,0-37.814-5.63-47.824-12.74L148.837,311.191z"/>
			</g>
		</g>
		<g>
			<g>
				<path fill="#004E76" d="M147.419,309.774c10.844,7.111,26.692,13.037,43.375,13.037c24.746,0,39.205-13.926,39.205-34.074
					c0-18.666-10.01-29.333-35.312-39.703c-30.585-11.552-49.492-28.435-49.492-56.579c0-31.111,24.19-54.222,60.614-54.222
					c19.185,0,33.087,4.741,41.429,9.778l-6.673,21.037c-6.117-3.556-18.629-9.481-35.59-9.481
					c-25.581,0-35.312,16.296-35.312,29.926c0,18.667,11.4,27.85,37.258,38.513c31.697,13.032,47.824,29.325,47.824,58.658
					c0,30.814-21.41,57.481-65.619,57.481c-18.073,0-37.814-5.63-47.824-12.74L147.419,309.774z"/>
			</g>
		</g>
		<g>
			<g>
				<path fill="#004E76" d="M146.002,308.357c10.844,7.111,26.692,13.037,43.375,13.037c24.746,0,39.205-13.926,39.205-34.074
					c0-18.666-10.01-29.333-35.312-39.703c-30.585-11.552-49.492-28.435-49.492-56.58c0-31.111,24.19-54.222,60.614-54.222
					c19.185,0,33.087,4.741,41.429,9.778l-6.673,21.037c-6.117-3.556-18.629-9.481-35.59-9.481
					c-25.581,0-35.312,16.296-35.312,29.926c0,18.667,11.4,27.85,37.258,38.513c31.697,13.032,47.824,29.325,47.824,58.658
					c0,30.814-21.41,57.481-65.619,57.481c-18.073,0-37.814-5.63-47.824-12.74L146.002,308.357z"/>
			</g>
		</g>
		<g>
			<g>
				<path fill="#004E76" d="M144.584,306.94c10.844,7.111,26.692,13.037,43.375,13.037c24.746,0,39.205-13.926,39.205-34.074
					c0-18.666-10.01-29.333-35.312-39.703c-30.585-11.552-49.492-28.435-49.492-56.58c0-31.111,24.19-54.222,60.614-54.222
					c19.185,0,33.087,4.741,41.429,9.778l-6.673,21.037c-6.117-3.556-18.629-9.481-35.59-9.481
					c-25.581,0-35.312,16.296-35.312,29.926c0,18.667,11.4,27.851,37.258,38.514c31.697,13.032,47.824,29.325,47.824,58.658
					c0,30.814-21.41,57.481-65.619,57.481c-18.073,0-37.814-5.63-47.824-12.74L144.584,306.94z"/>
			</g>
		</g>
		<g>
			<g>
				<path fill="#004E76" d="M143.167,305.523c10.844,7.111,26.692,13.037,43.375,13.037c24.746,0,39.205-13.926,39.205-34.074
					c0-18.666-10.01-29.333-35.312-39.703c-30.585-11.552-49.492-28.435-49.492-56.581c0-31.111,24.19-54.222,60.614-54.222
					c19.185,0,33.087,4.741,41.429,9.778l-6.673,21.037c-6.117-3.556-18.629-9.481-35.59-9.481
					c-25.581,0-35.312,16.296-35.312,29.926c0,18.667,11.4,27.851,37.258,38.514c31.697,13.032,47.824,29.325,47.824,58.658
					c0,30.814-21.41,57.481-65.619,57.481c-18.073,0-37.814-5.63-47.824-12.74L143.167,305.523z"/>
			</g>
		</g>
		<g>
			<g>
				<path fill="#004E76" d="M141.75,304.106c10.844,7.111,26.692,13.037,43.375,13.037c24.746,0,39.205-13.926,39.205-34.074
					c0-18.666-10.01-29.333-35.312-39.703c-30.585-11.552-49.492-28.435-49.492-56.581c0-31.111,24.19-54.222,60.614-54.222
					c19.185,0,33.087,4.741,41.429,9.778l-6.673,21.037c-6.117-3.556-18.629-9.481-35.59-9.481
					c-25.581,0-35.312,16.296-35.312,29.926c0,18.667,11.4,27.852,37.258,38.515c31.697,13.032,47.824,29.325,47.824,58.658
					c0,30.814-21.41,57.481-65.619,57.481c-18.073,0-37.814-5.63-47.824-12.74L141.75,304.106z"/>
			</g>
		</g>
		<g>
			<g>
				<path fill="#004E76" d="M140.332,302.689c10.844,7.111,26.692,13.037,43.375,13.037c24.746,0,39.205-13.926,39.205-34.074
					c0-18.666-10.01-29.333-35.312-39.703c-30.585-11.552-49.492-28.435-49.492-56.582c0-31.111,24.19-54.222,60.614-54.222
					c19.185,0,33.087,4.741,41.429,9.778l-6.673,21.037c-6.117-3.556-18.629-9.481-35.59-9.481
					c-25.581,0-35.312,16.296-35.312,29.926c0,18.667,11.4,27.852,37.258,38.515c31.697,13.032,47.824,29.325,47.824,58.658
					c0,30.814-21.41,57.481-65.619,57.481c-18.073,0-37.814-5.63-47.824-12.74L140.332,302.689z"/>
			</g>
		</g>
		<g>
			<g>
				<path fill="#004E76" d="M138.915,301.272c10.844,7.111,26.692,13.037,43.375,13.037c24.746,0,39.205-13.926,39.205-34.074
					c0-18.666-10.01-29.333-35.312-39.703c-30.585-11.552-49.492-28.435-49.492-56.582c0-31.111,24.19-54.222,60.614-54.222
					c19.185,0,33.087,4.741,41.429,9.778l-6.673,21.037c-6.117-3.556-18.629-9.481-35.59-9.481
					c-25.581,0-35.312,16.296-35.312,29.926c0,18.667,11.4,27.852,37.258,38.516c31.697,13.032,47.824,29.325,47.824,58.658
					c0,30.814-21.41,57.481-65.619,57.481c-18.073,0-37.814-5.63-47.824-12.74L138.915,301.272z"/>
			</g>
		</g>
		<g>
			<g>
				<path fill="#004E76" d="M137.497,299.855c10.844,7.111,26.692,13.037,43.375,13.037c24.746,0,39.205-13.926,39.205-34.074
					c0-18.666-10.01-29.333-35.312-39.703c-30.585-11.552-49.492-28.435-49.492-56.583c0-31.111,24.19-54.222,60.614-54.222
					c19.185,0,33.087,4.741,41.429,9.778l-6.673,21.037c-6.117-3.556-18.629-9.481-35.59-9.481
					c-25.581,0-35.312,16.296-35.312,29.926c0,18.667,11.4,27.852,37.258,38.516c31.697,13.032,47.824,29.325,47.824,58.658
					c0,30.814-21.41,57.481-65.619,57.481c-18.073,0-37.814-5.63-47.824-12.74L137.497,299.855z"/>
			</g>
		</g>
		<g>
			<g>
				<path fill="#004E76" d="M136.08,298.438c10.844,7.111,26.692,13.037,43.375,13.037c24.746,0,39.205-13.926,39.205-34.074
					c0-18.666-10.01-29.333-35.312-39.703c-30.585-11.552-49.492-28.435-49.492-56.583c0-31.111,24.19-54.222,60.614-54.222
					c19.185,0,33.087,4.741,41.429,9.778l-6.673,21.037c-6.117-3.556-18.629-9.481-35.59-9.481
					c-25.581,0-35.312,16.296-35.312,29.926c0,18.667,11.4,27.852,37.258,38.517c31.697,13.032,47.824,29.325,47.824,58.658
					c0,30.814-21.41,57.481-65.619,57.481c-18.073,0-37.814-5.63-47.824-12.74L136.08,298.438z"/>
			</g>
		</g>
		<g>
			<g>
				<path fill="#004E76" d="M134.662,297.021c10.844,7.111,26.692,13.037,43.375,13.037c24.746,0,39.205-13.926,39.205-34.074
					c0-18.666-10.01-29.333-35.312-39.703c-30.585-11.552-49.492-28.436-49.492-56.583c0-31.111,24.19-54.222,60.614-54.222
					c19.185,0,33.087,4.741,41.429,9.778l-6.673,21.037c-6.117-3.556-18.629-9.481-35.59-9.481
					c-25.581,0-35.312,16.296-35.312,29.926c0,18.667,11.4,27.852,37.258,38.517c31.697,13.032,47.824,29.325,47.824,58.658
					c0,30.814-21.41,57.481-65.619,57.481c-18.073,0-37.814-5.63-47.824-12.74L134.662,297.021z"/>
			</g>
		</g>
		<g>
			<g>
				<path fill="#004E76" d="M133.245,295.604c10.844,7.111,26.692,13.037,43.375,13.037c24.746,0,39.205-13.926,39.205-34.074
					c0-18.666-10.01-29.333-35.312-39.703c-30.585-11.552-49.492-28.436-49.492-56.584c0-31.111,24.19-54.222,60.614-54.222
					c19.185,0,33.087,4.741,41.429,9.778l-6.673,21.037c-6.117-3.556-18.629-9.481-35.59-9.481
					c-25.581,0-35.312,16.296-35.312,29.926c0,18.667,11.4,27.852,37.258,38.518c31.697,13.032,47.824,29.325,47.824,58.658
					c0,30.814-21.41,57.481-65.619,57.481c-18.073,0-37.814-5.63-47.824-12.74L133.245,295.604z"/>
			</g>
		</g>
		<g>
			<g>
				<path fill="#004E76" d="M131.827,294.187c10.844,7.111,26.692,13.037,43.375,13.037c24.746,0,39.205-13.926,39.205-34.074
					c0-18.666-10.01-29.333-35.312-39.703c-30.585-11.552-49.492-28.437-49.492-56.584c0-31.111,24.19-54.222,60.614-54.222
					c19.185,0,33.087,4.741,41.429,9.778l-6.673,21.037c-6.117-3.556-18.629-9.481-35.59-9.481
					c-25.581,0-35.312,16.296-35.312,29.926c0,18.667,11.4,27.852,37.258,38.518c31.697,13.032,47.824,29.325,47.824,58.658
					c0,30.814-21.41,57.481-65.619,57.481c-18.073,0-37.814-5.63-47.824-12.74L131.827,294.187z"/>
			</g>
		</g>
		<g>
			<g>
				<path fill="#004E76" d="M130.41,292.77c10.844,7.111,26.692,13.037,43.375,13.037c24.746,0,39.205-13.926,39.205-34.074
					c0-18.666-10.01-29.333-35.312-39.703c-30.585-11.552-49.492-28.437-49.492-56.585c0-31.111,24.19-54.222,60.614-54.222
					c19.185,0,33.087,4.741,41.429,9.778l-6.673,21.037c-6.117-3.556-18.629-9.481-35.59-9.481
					c-25.581,0-35.312,16.296-35.312,29.926c0,18.667,11.4,27.852,37.258,38.519c31.697,13.032,47.824,29.325,47.824,58.658
					c0,30.814-21.41,57.481-65.619,57.481c-18.073,0-37.814-5.63-47.824-12.74L130.41,292.77z"/>
			</g>
		</g>
		<g>
			<g>
				<path fill="#004E76" d="M128.992,291.353c10.844,7.111,26.692,13.037,43.375,13.037c24.746,0,39.205-13.926,39.205-34.074
					c0-18.666-10.01-29.333-35.312-39.703c-30.585-11.552-49.492-28.438-49.492-56.585c0-31.111,24.19-54.222,60.614-54.222
					c19.185,0,33.087,4.741,41.429,9.778l-6.673,21.037c-6.117-3.556-18.629-9.481-35.59-9.481
					c-25.581,0-35.312,16.296-35.312,29.926c0,18.667,11.4,27.852,37.258,38.519c31.697,13.033,47.824,29.326,47.824,58.659
					c0,30.814-21.41,57.481-65.619,57.481c-18.073,0-37.814-5.63-47.824-12.74L128.992,291.353z"/>
			</g>
		</g>
		<g>
			<g>
				<path fill="#004E76" d="M127.575,289.936c10.844,7.111,26.692,13.037,43.375,13.037c24.746,0,39.205-13.926,39.205-34.074
					c0-18.666-10.01-29.333-35.312-39.703c-30.585-11.552-49.492-28.438-49.492-56.586c0-31.111,24.19-54.222,60.614-54.222
					c19.185,0,33.087,4.741,41.429,9.778l-6.673,21.037c-6.117-3.556-18.629-9.481-35.59-9.481
					c-25.581,0-35.312,16.296-35.312,29.926c0,18.667,11.4,27.852,37.258,38.519c31.697,13.033,47.824,29.326,47.824,58.659
					c0,30.814-21.41,57.481-65.619,57.481c-18.073,0-37.814-5.63-47.824-12.74L127.575,289.936z"/>
			</g>
		</g>
		<g>
			<g>
				<path fill="#004E76" d="M126.157,288.519c10.844,7.111,26.692,13.037,43.375,13.037c24.746,0,39.205-13.926,39.205-34.074
					c0-18.666-10.01-29.333-35.312-39.703c-30.585-11.552-49.492-28.438-49.492-56.586c0-31.111,24.19-54.222,60.614-54.222
					c19.185,0,33.087,4.741,41.429,9.778l-6.673,21.037c-6.117-3.556-18.629-9.481-35.59-9.481
					c-25.581,0-35.312,16.296-35.312,29.926c0,18.667,11.4,27.852,37.258,38.519c31.697,13.034,47.824,29.327,47.824,58.66
					c0,30.814-21.41,57.481-65.619,57.481c-18.073,0-37.814-5.63-47.824-12.74L126.157,288.519z"/>
			</g>
		</g>
		<g>
			<g>
				<path fill="#004E76" d="M124.74,287.102c10.844,7.111,26.692,13.037,43.375,13.037c24.746,0,39.205-13.926,39.205-34.074
					c0-18.666-10.01-29.333-35.312-39.703c-30.585-11.552-49.492-28.439-49.492-56.587c0-31.111,24.19-54.222,60.614-54.222
					c19.185,0,33.087,4.741,41.429,9.778l-6.673,21.037c-6.117-3.556-18.629-9.481-35.59-9.481
					c-25.581,0-35.312,16.296-35.312,29.926c0,18.667,11.4,27.852,37.258,38.519c31.697,13.034,47.824,29.327,47.824,58.66
					c0,30.814-21.41,57.481-65.619,57.481c-18.073,0-37.814-5.63-47.824-12.74L124.74,287.102z"/>
			</g>
		</g>
		<g>
			<g>
				<path fill="#004E76" d="M123.322,285.685c10.844,7.111,26.692,13.037,43.375,13.037c24.746,0,39.205-13.926,39.205-34.074
					c0-18.666-10.01-29.333-35.312-39.703c-30.585-11.552-49.492-28.439-49.492-56.587c0-31.111,24.19-54.222,60.614-54.222
					c19.185,0,33.087,4.741,41.429,9.778l-6.673,21.037c-6.117-3.556-18.629-9.481-35.59-9.481
					c-25.581,0-35.312,16.296-35.312,29.926c0,18.667,11.4,27.852,37.258,38.519c31.697,13.035,47.824,29.328,47.824,58.661
					c0,30.814-21.41,57.481-65.619,57.481c-18.073,0-37.814-5.63-47.824-12.74L123.322,285.685z"/>
			</g>
		</g>
		<g>
			<g>
				<path fill="#004E76" d="M121.905,284.268c10.844,7.111,26.692,13.037,43.375,13.037c24.746,0,39.205-13.926,39.205-34.074
					c0-18.666-10.01-29.333-35.312-39.703c-30.585-11.552-49.492-28.44-49.492-56.588c0-31.111,24.19-54.222,60.614-54.222
					c19.185,0,33.087,4.741,41.429,9.778l-6.673,21.037c-6.117-3.556-18.629-9.481-35.59-9.481
					c-25.581,0-35.312,16.296-35.312,29.926c0,18.667,11.4,27.852,37.258,38.519c31.697,13.035,47.824,29.328,47.824,58.661
					c0,30.814-21.41,57.481-65.619,57.481c-18.073,0-37.814-5.63-47.824-12.74L121.905,284.268z"/>
			</g>
		</g>
		<g>
			<g>
				<path fill="#004E76" d="M120.487,282.851c10.844,7.111,26.692,13.037,43.375,13.037c24.746,0,39.205-13.926,39.205-34.074
					c0-18.666-10.01-29.333-35.312-39.703c-30.585-11.552-49.492-28.44-49.492-56.588c0-31.111,24.19-54.222,60.614-54.222
					c19.185,0,33.087,4.741,41.429,9.778l-6.673,21.037c-6.117-3.556-18.629-9.481-35.59-9.481
					c-25.581,0-35.312,16.296-35.312,29.926c0,18.667,11.4,27.852,37.258,38.519c31.697,13.036,47.824,29.329,47.824,58.662
					c0,30.814-21.41,57.481-65.619,57.481c-18.073,0-37.814-5.63-47.824-12.74L120.487,282.851z"/>
			</g>
		</g>
		<g>
			<g>
				<path fill="#004E76" d="M119.07,281.434c10.844,7.111,26.692,13.037,43.375,13.037c24.746,0,39.205-13.926,39.205-34.074
					c0-18.666-10.01-29.333-35.312-39.703c-30.585-11.552-49.492-28.441-49.492-56.589c0-31.111,24.19-54.222,60.614-54.222
					c19.185,0,33.087,4.741,41.429,9.778l-6.673,21.037c-6.117-3.556-18.629-9.481-35.59-9.481
					c-25.581,0-35.312,16.296-35.312,29.926c0,18.667,11.4,27.852,37.258,38.519c31.697,13.036,47.824,29.329,47.824,58.662
					c0,30.814-21.41,57.481-65.619,57.481c-18.073,0-37.814-5.63-47.824-12.74L119.07,281.434z"/>
			</g>
		</g>
		<g>
			<g>
				<path fill="#004E76" d="M117.652,280.017c10.844,7.111,26.692,13.037,43.375,13.037c24.746,0,39.205-13.926,39.205-34.074
					c0-18.666-10.01-29.333-35.312-39.703c-30.585-11.552-49.492-28.441-49.492-56.589c0-31.111,24.19-54.222,60.614-54.222
					c19.185,0,33.087,4.741,41.429,9.778l-6.673,21.037c-6.117-3.556-18.629-9.481-35.59-9.481
					c-25.581,0-35.312,16.296-35.312,29.926c0,18.667,11.4,27.852,37.258,38.519c31.697,13.037,47.824,29.33,47.824,58.663
					c0,30.814-21.41,57.481-65.619,57.481c-18.073,0-37.814-5.63-47.824-12.74L117.652,280.017z"/>
			</g>
		</g>
		<g>
			<g>
				<path fill="#004E76" d="M116.235,278.6c10.844,7.111,26.692,13.037,43.375,13.037c24.746,0,39.205-13.926,39.205-34.074
					c0-18.666-10.01-29.333-35.312-39.703c-30.585-11.553-49.492-28.442-49.492-56.59c0-31.111,24.19-54.222,60.614-54.222
					c19.185,0,33.087,4.741,41.429,9.778l-6.673,21.037c-6.117-3.556-18.629-9.481-35.59-9.481
					c-25.581,0-35.312,16.296-35.312,29.926c0,18.667,11.4,27.852,37.258,38.519c31.697,13.037,47.824,29.33,47.824,58.663
					c0,30.814-21.41,57.481-65.619,57.481c-18.073,0-37.814-5.63-47.824-12.74L116.235,278.6z"/>
			</g>
		</g>
		<g>
			<g>
				<path fill="#004E76" d="M114.817,277.183c10.844,7.111,26.692,13.037,43.375,13.037c24.746,0,39.205-13.926,39.205-34.074
					c0-18.666-10.01-29.333-35.312-39.703C131.5,204.89,112.593,188,112.593,159.853c0-31.111,24.19-54.222,60.614-54.222
					c19.185,0,33.087,4.741,41.429,9.778l-6.673,21.037c-6.117-3.556-18.629-9.481-35.59-9.481
					c-25.581,0-35.312,16.296-35.312,29.926c0,18.667,11.4,27.852,37.258,38.519c31.697,13.037,47.824,29.331,47.824,58.664
					c0,30.814-21.41,57.481-65.619,57.481c-18.073,0-37.814-5.63-47.824-12.74L114.817,277.183z"/>
			</g>
		</g>
		<g>
			<g>
				<path fill="#004E76" d="M113.4,275.766c10.844,7.111,26.692,13.037,43.375,13.037c24.746,0,39.205-13.926,39.205-34.074
					c0-18.666-10.01-29.333-35.312-39.703c-30.585-11.554-49.492-28.443-49.492-56.591c0-31.111,24.19-54.222,60.614-54.222
					c19.185,0,33.087,4.741,41.429,9.778l-6.673,21.037c-6.117-3.556-18.629-9.481-35.59-9.481
					c-25.581,0-35.312,16.296-35.312,29.926c0,18.667,11.4,27.852,37.258,38.519c31.697,13.037,47.824,29.331,47.824,58.664
					c0,30.814-21.41,57.481-65.619,57.481c-18.073,0-37.814-5.63-47.824-12.74L113.4,275.766z"/>
			</g>
		</g>
		<g>
			<g>
				<path fill="#004E76" d="M111.982,274.349c10.844,7.111,26.692,13.037,43.375,13.037c24.746,0,39.205-13.926,39.205-34.074
					c0-18.666-10.01-29.333-35.312-39.703c-30.585-11.554-49.492-28.443-49.492-56.591c0-31.111,24.19-54.222,60.614-54.222
					c19.185,0,33.087,4.741,41.429,9.778l-6.673,21.037c-6.117-3.556-18.629-9.481-35.59-9.481
					c-25.581,0-35.312,16.296-35.312,29.926c0,18.667,11.4,27.852,37.258,38.519c31.697,13.037,47.824,29.332,47.824,58.665
					c0,30.814-21.41,57.481-65.619,57.481c-18.073,0-37.814-5.63-47.824-12.74L111.982,274.349z"/>
			</g>
		</g>
		<g>
			<g>
				<path fill="#004E76" d="M110.565,272.932c10.844,7.111,26.692,13.037,43.375,13.037c24.746,0,39.205-13.926,39.205-34.074
					c0-18.666-10.01-29.333-35.312-39.703c-30.585-11.555-49.492-28.444-49.492-56.592c0-31.111,24.19-54.222,60.614-54.222
					c19.185,0,33.087,4.741,41.429,9.778l-6.673,21.037c-6.117-3.556-18.629-9.481-35.59-9.481
					c-25.581,0-35.312,16.296-35.312,29.926c0,18.667,11.4,27.852,37.258,38.519c31.697,13.037,47.824,29.332,47.824,58.665
					c0,30.814-21.41,57.481-65.619,57.481c-18.073,0-37.814-5.63-47.824-12.74L110.565,272.932z"/>
			</g>
		</g>
		<g>
			<g>
				<path fill="#004E76" d="M109.147,271.515c10.844,7.111,26.692,13.037,43.375,13.037c24.746,0,39.205-13.926,39.205-34.074
					c0-18.666-10.01-29.333-35.312-39.703c-30.585-11.555-49.492-28.444-49.492-56.592c0-31.111,24.19-54.222,60.614-54.222
					c19.185,0,33.087,4.741,41.429,9.778l-6.673,21.037c-6.117-3.556-18.629-9.481-35.59-9.481
					c-25.581,0-35.312,16.296-35.312,29.926c0,18.667,11.4,27.852,37.258,38.519c31.697,13.037,47.824,29.333,47.824,58.666
					c0,30.814-21.41,57.481-65.619,57.481c-18.073,0-37.814-5.63-47.824-12.74L109.147,271.515z"/>
			</g>
		</g>
		<g>
			<g>
				<path fill="#004E76" d="M107.73,270.098c10.844,7.111,26.692,13.037,43.375,13.037c24.746,0,39.205-13.926,39.205-34.074
					c0-18.666-10.01-29.333-35.312-39.704c-30.585-11.555-49.492-28.444-49.492-56.592c0-31.111,24.19-54.222,60.614-54.222
					c19.185,0,33.087,4.741,41.429,9.778l-6.673,21.037c-6.117-3.556-18.629-9.481-35.59-9.481
					c-25.581,0-35.312,16.296-35.312,29.926c0,18.667,11.4,27.852,37.258,38.519c31.697,13.037,47.824,29.333,47.824,58.666
					c0,30.814-21.41,57.481-65.619,57.481c-18.073,0-37.814-5.63-47.824-12.74L107.73,270.098z"/>
			</g>
		</g>
	</g>
</g>
<path fill="#4BBFEE" d="M107.73,270.098c10.844,7.111,26.692,13.037,43.375,13.037c24.746,0,39.205-13.926,39.205-34.074
	c0-18.666-10.01-29.333-35.312-39.704c-30.585-11.555-49.492-28.444-49.492-56.592c0-31.111,24.19-54.222,60.614-54.222
	c19.185,0,33.087,4.741,41.429,9.778l-6.673,21.037c-6.117-3.556-18.629-9.481-35.59-9.481c-25.581,0-35.312,16.296-35.312,29.926
	c0,18.667,11.4,27.852,37.258,38.519c31.697,13.037,47.824,29.333,47.824,58.666c0,30.814-21.41,57.481-65.619,57.481
	c-18.073,0-37.814-5.63-47.824-12.74L107.73,270.098z"/>
<path fill="none" stroke="#47A2DA" stroke-width="9" stroke-miterlimit="10" d="M104.672,57.262
	C109.456,27.353,135.374,4.5,166.631,4.5c33.201,0,60.379,25.784,62.603,58.421"/>
</svg>
